<svg xmlns="http://www.w3.org/2000/svg" viewBox="0 0 32 32"><path fill="#fff" stroke="#000" stroke-width=".8" stroke-linecap="round" stroke-linejoin="round" d="M12.6 16.6l-.4-1.6-.5-1.2-.5-1.2-.5-1.4c-.1-.5 0-.9.2-1.2.3-.3 1-.5 1.4-.4.4.1.7.5.9.8.3.5.4.6.7 1.5a8 8 0 0 1 .6 2.2l.1.5v-1.2-2.9l.1-.7c.1-.5.3-.8.7-1 .4-.2.9-.2 1.4 0 .4.2.6.5.7 1l.1 1.1v3.7c.1-.7.1-3.2.3-3.9.1-.4.4-.7.8-.9.4-.2 1.1-.1 1.4.2.3.3.4.7.5 1.2v3.5l.3-.7.4-.9.4-.7.7-.6c.5-.2 1.1.1 1.3.6v1.1l-.4 1.6a9 9 0 0 0-.3 1.6c-.1.4-.2 1.4-.4 1.8a6 6 0 0 1-.7 1.4s-1.1 1.2-1.2 1.8l-.1 1 .1.9h-1.2c-.4-.1-.9-.8-1-1.1-.2-.3-.5-.3-.7 0-.2.4-.7 1.1-1.1 1.1h-3.1s.2-1-.2-1.4l-1.1-1.1-.8-.9-1.2-2L9 16.6c-.2-.4-.3-1-.2-1.3.2-.6.7-.9 1.4-.8.5 0 .8.2 1.2.5l.8.7.4.5v.4"/><path fill="none" stroke="#000" stroke-width=".8" stroke-linecap="round" d="M19.6 20.7v-3.4M17.6 20.7l-.1-3.4M15.6 17.3v3.4"/></svg>
