
<svg xmlns="http://www.w3.org/2000/svg" version="1.1" xmlns:xlink="http://www.w3.org/1999/xlink" preserveAspectRatio="none" x="0px" y="0px" width="1060px" height="1010px" viewBox="0 0 1060 1010">
<defs/>

<g id="Layer_2">
<g transform="matrix( 1, 0, 0, 1, 0,0) ">
<g>
<g>
<path fill="#FFFFFF" stroke="none" d="
M 858.9 176.25
L 858.95 176.25
Q 722.6 39.9 529.7 39.9 337 39.9 200.9 176.25 64.55 312.1 64.55 505 64.55 575 82.9 637.9
L 17 725.65
Q 14.85 728.55 15 732.1 15.15 735.7 17.6 738.4
L 36.15 758.8
Q 38.6 761.45 42.15 761.95 45.7 762.45 48.8 760.6
L 115.7 719.6
Q 118.1 724.35 120.75 729.15 121.05 729.65 121.4 730.2 123.15 733.35 125.15 736.5 125.6 738.05 126.5 739.25 145.2 770.7 169.9 800.25
L 169.95 800.3
Q 183.9 816.85 199.8 832.95
L 199.85 833
Q 200.25 833.4 200.9 834.05
L 202.8 835.95
Q 276.4 908.7 366 941.85 366.5 942 367 942.15 392.8 951.75 420.1 958 472.55 970.15 529.7 970.15 722.6 970.15 858.95 834.05 916.95 776 950.3 707.3
L 950.3 707.25
Q 962.45 682.15 971.4 656
L 971.4 655.95
Q 994.15 587.9 995 510.7
L 995 510.4
Q 995 507.7 995 505 995 475.25 992.1 447.15 992.1 447.05 992.1 447
L 992.1 446.85
Q 992.05 446.5 992.05 446.2 973.75 290.65 858.9 176.25
M 734.25 347.9
Q 734.25 268 677.9 211.6 621.45 154.95 541.55 154.95 524 154.95 507.6 157.8
L 507.7 157.8
Q 449.25 167.4 405.3 211.5 405.25 211.55 405.2 211.6 395.8 220.8 388.55 230.4
L 388.45 230.55
Q 386.35 232.85 384.7 235.4
L 383.8 236.6
Q 382.6 237.8 381.95 238.95
L 333.1 304.15
Q 331.95 305.35 331.2 306.65 331 306.95 330.85 307.3
L 124.6 582.45
Q 117.85 545.05 117.85 505 117.85 334.15 238.5 213.9
L 238.55 213.9
Q 359 93.2 529.7 93.2 700.55 93.2 821.25 213.9 922.6 315.25 939.1 452.5
L 939.05 452.35
Q 941.75 477.9 941.75 505 941.75 507.7 941.75 510.2
L 941.75 510.4
Q 941.2 558.8 930.95 603.35 837.6 542.3 719.05 542.25 660.8 542.25 608.85 557.15 609 557 609.15 556.85 638.95 523.7 678.55 483.55 679.1 482.95 679.6 482.3 688.75 473.15 696.4 463.25
L 696.45 463.2
Q 713.2 441.05 722.6 415.8 723 415.05 723.3 414.3 734.25 383.15 734.25 347.9
M 673.05 396.4
Q 666.5 413.95 655.05 429.65 654.55 430.1 654.15 430.65 648.0912109375 438.4470703125 640.85 445.95 640.79921875 445.9990234375 640.75 446.05
L 640.6 446.2
Q 600.2 487.15 569.5 521 568.9 521.6 568.5 522.35 537.25 556.75 504.4 608.5
L 504.4 608.55 497.3 619.8
Q 495.45 622.7 495.8 626.15 496.15 629.6 498.6 632.1
L 517.1 651
Q 519.55 653.5 523.05 653.95 526.5 654.35 529.5 652.55
L 540.95 645.5 541.05 645.4
Q 619.65 595.5 719.05 595.55 829.5 595.5 914.5 656.75 909 670.5 902.4 683.95
L 902.35 684
Q 872.9 744.7 821.25 796.4 700.55 916.85 529.7 916.85 478.65 916.85 432.05 906.05 407.7 900.4 384.6 891.9 306.05 862.45 241.4 799.2 239.55 796.95 237.35 795.15 229 786.75 221.25 778.2 263.4 679.95 345.1 598.45
L 345.1 598.4
Q 388.45 554.9 436.4 522.9 436.95 522.6 437.5 522.3
L 522.4 470.5
Q 524.9 468.95 526.2 466.35 527.45 463.75 527.15 460.9
L 524.85 439.85
Q 524.55 436.95 522.75 434.7 520.95 432.45 518.25 431.5
L 508.25 427.95
Q 508.1 427.9 508.05 427.85 492.95 422.9 479.1 415.8 458.2 405.2 439.75 389.9 430.7 382.3 422.3 373.9 420.4 372 418.7 370.1 418.5 369.9 418.35 369.75
L 417.95 369.35
Q 417.8 369.2 417.7 369.1 417.6 369 417.55 368.9 409.2 360.05 401.95 350.9 401.9 349.4 401.9 347.9 401.9 334.4 404.1 322 404.15 321.55 404.25 321.15 409.25 293.25 425.15 270.2
L 426.65 268.35
Q 426.9 267.95 427.15 267.6 428.55 265.8 430 264 430.15 263.75 430.35 263.5 435.7 256.25 442.85 249.35
L 442.95 249.2
Q 474.35 217.65 515.9 210.5 516.25 210.45 516.65 210.4 528.7 208.25 541.55 208.25 599.4 208.25 640.2 249.2
L 640.2 249.25
Q 680.95 290 680.95 347.9 681 373.7 673.1 396.25 673.05 396.3 673.05 396.4
M 350.1 370.15
L 352.8 374.2
Q 353.15 374.65 355.4 377.75 361.35 385.7 368.05 393.5
L 279.3 489.25
Q 276.7 492.05 276.6 495.85 276.55 499.65 279 502.55
L 288.6 513.8
Q 291.1 516.7 294.9 517.2 298.65 517.7 301.85 515.55
L 414.85 438.1
Q 428.3 448.25 442.7 456.7
L 409.8 476.7 410.95 476.2
Q 412.3 475.85 407.85 478.15
L 151.6 635 350.1 370.15
M 234.3 646.85
Q 205.55 687.25 184.35 730.75 169.2 712 161.25 691.7
L 234.3 646.85
M 471.85 308.35
Q 471 309.2 470.35 310 469.55 310.65 468.7 311.7
L 466.4 314.15
Q 466.2 314.6 465.8 315 462.65 318.55 459.95 322.5 447.7 340.2 444.55 361.6 452.45 362.85 461 362.85 488.5 362.85 510.35 349.75 515.3 346.65 520.1 343.1 524.9 339.35 529.45 334.8 552.15 311.9 556.55 281.3 548.6 280.05 540.1 280.05 505.35 280.05 479.55 301.5 475.55 304.6 471.85 308.35 Z"/>
</g>
</g>
</g>
</g>
</svg>
