
<svg xmlns="http://www.w3.org/2000/svg" version="1.1" xmlns:xlink="http://www.w3.org/1999/xlink" preserveAspectRatio="none" x="0px" y="0px" width="980px" height="930px" viewBox="0 0 980 930">
<defs/>

<g id="Layer_2">
<g transform="matrix( 1, 0, 0, 1, 0,0) ">
<g>
<g>
<path fill="#FFFFFF" stroke="none" d="
M 843.9 136.35
L 843.95 136.35
Q 707.6 0 514.7 0 322 0 185.9 136.35 49.55 272.2 49.55 465.1 49.55 535.1 67.9 598
L 2 685.75
Q -0.15 688.65 0 692.2 0.15 695.8 2.6 698.5
L 21.15 718.9
Q 23.6 721.55 27.15 722.05 30.7 722.55 33.8 720.7
L 100.7 679.7
Q 103.1 684.45 105.75 689.25 106.05 689.75 106.4 690.3 108.15 693.45 110.15 696.6 110.6 698.15 111.5 699.35 130.2 730.8 154.9 760.35
L 154.95 760.4
Q 168.9 776.95 184.8 793.05
L 184.85 793.1
Q 185.25 793.5 185.9 794.15
L 187.8 796.05
Q 261.4 868.8 351 901.95 351.5 902.1 352 902.25 377.8 911.85 405.1 918.1 457.55 930.25 514.7 930.25 707.6 930.25 843.95 794.15 901.95 736.1 935.3 667.4
L 935.3 667.35
Q 947.45 642.25 956.4 616.1
L 956.4 616.05
Q 979.15 548 980 470.8
L 980 470.5
Q 980 467.8 980 465.1 980 435.35 977.1 407.25 977.1 407.15 977.1 407.1
L 977.1 406.95
Q 977.05 406.6 977.05 406.3 958.75 250.75 843.9 136.35
M 658.1 356.35
Q 658.05 356.4 658.05 356.5 651.5 374.05 640.05 389.75 639.55 390.2 639.15 390.75 633.1 398.55 625.85 406.05 625.8 406.1 625.75 406.15
L 625.6 406.3
Q 585.2 447.25 554.5 481.1 553.9 481.7 553.5 482.45 522.25 516.85 489.4 568.6
L 489.4 568.65 482.3 579.9
Q 480.45 582.8 480.8 586.25 481.15 589.7 483.6 592.2
L 502.1 611.1
Q 504.55 613.6 508.05 614.05 511.5 614.45 514.5 612.65
L 525.95 605.6 526.05 605.5
Q 604.65 555.6 704.05 555.65 814.5 555.6 899.5 616.85 894 630.6 887.4 644.05
L 887.35 644.1
Q 857.9 704.8 806.25 756.5 685.55 876.95 514.7 876.95 463.65 876.95 417.05 866.15 392.7 860.5 369.6 852 291.05 822.55 226.4 759.3 224.55 757.05 222.35 755.25 214 746.85 206.25 738.3 248.4 640.05 330.1 558.55
L 330.1 558.5
Q 373.45 515 421.4 483 421.95 482.7 422.5 482.4
L 507.4 430.6
Q 509.9 429.05 511.2 426.45 512.45 423.85 512.15 421
L 509.85 399.95
Q 509.55 397.05 507.75 394.8 505.95 392.55 503.25 391.6
L 493.25 388.05
Q 493.1 388 493.05 387.95 477.95 383 464.1 375.9 443.2 365.3 424.75 350 415.7 342.4 407.3 334 405.4 332.1 403.7 330.2 403.5 330 403.35 329.85
L 402.95 329.45
Q 402.8 329.3 402.7 329.2 402.6 329.1 402.55 329 394.2 320.15 386.95 311 386.9 309.5 386.9 308 386.9 294.5 389.1 282.1 389.15 281.65 389.25 281.25 394.25 253.35 410.15 230.3
L 411.65 228.45
Q 411.9 228.05 412.15 227.7 413.55 225.9 415 224.1 415.15 223.85 415.35 223.6 420.7 216.35 427.85 209.45
L 427.95 209.3
Q 459.35 177.75 500.9 170.6 501.25 170.55 501.65 170.5 513.7 168.35 526.55 168.35 584.4 168.35 625.2 209.3
L 625.2 209.35
Q 665.95 250.1 665.95 308 666 333.8 658.1 356.35
M 707.6 375.9
Q 708 375.15 708.3 374.4 719.25 343.25 719.25 308 719.25 228.1 662.9 171.7 606.45 115.05 526.55 115.05 509 115.05 492.6 117.9
L 492.7 117.9
Q 434.25 127.5 390.3 171.6 390.25 171.65 390.2 171.7 380.8 180.9 373.55 190.5
L 373.45 190.65
Q 371.35 192.95 369.7 195.5
L 368.8 196.7
Q 367.6 197.9 366.95 199.05
L 318.1 264.25
Q 316.95 265.45 316.2 266.75 316 267.05 315.85 267.4
L 109.6 542.55
Q 102.85 505.15 102.85 465.1 102.85 294.25 223.5 174
L 223.55 174
Q 344 53.3 514.7 53.3 685.55 53.3 806.25 174 907.6 275.35 924.1 412.6
L 924.05 412.45
Q 926.75 438 926.75 465.1 926.75 467.8 926.75 470.3
L 926.75 470.5
Q 926.2 518.9 915.95 563.45 822.6 502.4 704.05 502.35 645.8 502.35 593.85 517.25 594 517.1 594.15 516.95 623.95 483.8 663.55 443.65 664.1 443.05 664.6 442.4 673.75 433.25 681.4 423.35
L 681.45 423.3
Q 698.2 401.15 707.6 375.9
M 337.8 334.3
Q 338.15 334.75 340.4 337.85 346.35 345.8 353.05 353.6
L 264.3 449.35
Q 261.7 452.15 261.6 455.95 261.55 459.75 264 462.65
L 273.6 473.9
Q 276.1 476.8 279.9 477.3 283.65 477.8 286.85 475.65
L 399.85 398.2
Q 413.3 408.35 427.7 416.8
L 394.8 436.8 395.95 436.3
Q 397.3 435.95 392.85 438.25
L 136.6 595.1 335.1 330.25 337.8 334.3
M 219.3 606.95
Q 190.55 647.35 169.35 690.85 154.2 672.1 146.25 651.8
L 219.3 606.95
M 456.85 268.45
Q 456 269.3 455.35 270.1 454.55 270.75 453.7 271.8
L 451.4 274.25
Q 451.2 274.7 450.8 275.1 447.65 278.65 444.95 282.6 432.7 300.3 429.55 321.7 437.45 322.95 446 322.95 473.5 322.95 495.35 309.85 500.3 306.75 505.1 303.2 509.9 299.45 514.45 294.9 537.15 272 541.55 241.4 533.6 240.15 525.1 240.15 490.35 240.15 464.55 261.6 460.55 264.7 456.85 268.45 Z"/>
</g>
</g>
</g>
</g>
</svg>
