
<svg xmlns="http://www.w3.org/2000/svg" version="1.1" xmlns:xlink="http://www.w3.org/1999/xlink" preserveAspectRatio="none" x="0px" y="0px" width="1900px" height="450px" viewBox="0 0 1900 450">
<defs/>

<g id="Layer_1">
<g transform="matrix( 1, 0, 0, 1, 100,0) ">
<g>
<g>
<path fill="#FFFFFF" fill-opacity="0.09803921568627451" stroke="none" d="
M 1383.2 174.1
L 1890.9 579 1987.7 -63.1 1383.2 174.1 Z"/>
</g>
</g>
</g>

<g transform="matrix( 1, 0, 0, 1, 20.75,-125.25) ">
<g>
<g>
<path fill="#FFFFFF" fill-opacity="0.06666666666666667" stroke="none" d="
M 1418.45 49.5
L 1505.95 253 1638.4 75.45 1418.45 49.5 Z"/>
</g>
</g>
</g>

<g transform="matrix( 0.8643798828125, 0.5027618408203125, -0.5027618408203125, 0.8643798828125, 604.9,-732.65) ">
<g>
<g>
<path fill="#FFFFFF" fill-opacity="0.09803921568627451" stroke="none" d="
M 1321.75 429.3
L 1597.1 711.65 1703.95 332 1321.75 429.3 Z"/>
</g>
</g>
</g>

<g transform="matrix( 0.9091949462890625, 0.1393890380859375, -0.1393890380859375, 0.9091949462890625, 294.55,-141.95) ">
<g>
<g>
<path fill="#FFFFFF" fill-opacity="0.0392156862745098" stroke="none" d="
M 1224.95 172.9
L 1082.9 353.05 1309.95 386 1224.95 172.9 Z"/>
</g>
</g>
</g>

<g transform="matrix( 1.369903564453125, 0.1556243896484375, -0.1556243896484375, 1.369903564453125, -329.25,-369.95) ">
<g>
<g>
<path fill="#FFFFFF" fill-opacity="0.06666666666666667" stroke="none" d="
M 1311 261.85
L 1367.95 357 1421.85 260.1 1311 261.85 Z"/>
</g>
</g>
</g>

<g transform="matrix( 1, 0, 0, 1, 100,0) ">
<g>
<g>
<path fill="#FFFFFF" fill-opacity="0.06666666666666667" stroke="none" d="
M 1325.95 149
L 1317.85 76.3 1259 119.65 1325.95 149 Z"/>
</g>
</g>
</g>

<g transform="matrix( 1, 0, 0, 1, 100,0) ">
<g>
<g>
<path fill="#FFFFFF" fill-opacity="0.0392156862745098" stroke="none" d="
M 1085.95 63
L 1059.2 29.55 1043.65 69.4 1085.95 63 Z"/>
</g>
</g>
</g>

<g transform="matrix( 1, 0, 0, 1, 100,0) ">
<g>
<g>
<path fill="#FFFFFF" fill-opacity="0.0392156862745098" stroke="none" d="
M 1264.95 -126
L 1129.9 -23.8 1285.95 42 1264.95 -126 Z"/>
</g>
</g>
</g>

<g transform="matrix( 1, 0, 0, 1, 63,-6) ">
<g>
<g>
<path fill="#FFFFFF" fill-opacity="0.09803921568627451" stroke="none" d="
M 1530.95 107
L 1911.25 92.55 1708.6 -229.55 1530.95 107 Z"/>
</g>
</g>
</g>

<g transform="matrix( 1, 0, 0, 1, 100,0) ">
<g>
<g>
<path fill="#FFFFFF" fill-opacity="0.0392156862745098" stroke="none" d="
M 1008.55 404.45
L 1050.95 412 1036.3 371.5 1008.55 404.45 Z"/>
</g>
</g>
</g>

<g transform="matrix( 1.103607177734375, 0.5262298583984375, -0.5262298583984375, 1.103607177734375, -7.35,-718.5) ">
<g>
<g>
<path fill="#FFFFFF" fill-opacity="0.06666666666666667" stroke="none" d="
M 1461.75 344.65
L 1611.95 390 1576.1 237.3 1461.75 344.65 Z"/>
</g>
</g>
</g>

<g transform="matrix( 1, 0, 0, 1, 0,0) ">
<g>
<g>
<path fill="#FFFFFF" fill-opacity="0.0392156862745098" stroke="none" d="
M 1244.1 88.8
L 1229.95 189 1323.75 151.15 1244.1 88.8 Z"/>
</g>
</g>
</g>

<g transform="matrix( -0.7638092041015625, -0.6454315185546875, 0.6454315185546875, -0.7638092041015625, 1294.75,1476.8) ">
<g>
<g>
<path fill="#FFFFFF" fill-opacity="0.09803921568627451" stroke="none" d="
M 1383.2 174.1
L 1890.9 579 1987.7 -63.1 1383.2 174.1 Z"/>
</g>
</g>
</g>

<g transform="matrix( -0.823089599609375, 0, 0, -0.823089599609375, 1646.15,448.65) ">
<g>
<g>
<path fill="#FFFFFF" fill-opacity="0.06666666666666667" stroke="none" d="
M 1418.45 49.5
L 1505.95 253 1638.4 75.45 1418.45 49.5 Z"/>
</g>
</g>
</g>

<g transform="matrix( -0.6200408935546875, -0.78448486328125, 0.78448486328125, -0.6200408935546875, 837.75,1481.3) ">
<g>
<g>
<path fill="#FFFFFF" fill-opacity="0.09803921568627451" stroke="none" d="
M 1321.75 429.3
L 1597.1 711.65 1703.95 332 1321.75 429.3 Z"/>
</g>
</g>
</g>

<g transform="matrix( -0.5577239990234375, 0.393798828125, -0.393798828125, -0.5577239990234375, 1410.05,-187.55) ">
<g>
<g>
<path fill="#FFFFFF" fill-opacity="0.0392156862745098" stroke="none" d="
M 1224.95 172.9
L 1082.9 353.05 1309.95 386 1224.95 172.9 Z"/>
</g>
</g>
</g>

<g transform="matrix( -1.6113128662109375, 0.7598114013671875, -0.7598114013671875, -1.6113128662109375, 2878.95,-336.4) ">
<g>
<g>
<path fill="#FFFFFF" fill-opacity="0.06666666666666667" stroke="none" d="
M 1311 261.85
L 1367.95 357 1421.85 260.1 1311 261.85 Z"/>
</g>
</g>
</g>

<g transform="matrix( -0.1309356689453125, -0.9913787841796875, 0.9913787841796875, -0.1309356689453125, 624.35,1633.3) ">
<g>
<g>
<path fill="#FFFFFF" fill-opacity="0.06666666666666667" stroke="none" d="
M 1325.95 149
L 1317.85 76.3 1259 119.65 1325.95 149 Z"/>
</g>
</g>
</g>

<g transform="matrix( -0.3948516845703125, 0.918731689453125, -0.918731689453125, -0.3948516845703125, 1245.35,-606.6) ">
<g>
<g>
<path fill="#FFFFFF" fill-opacity="0.0392156862745098" stroke="none" d="
M 1085.95 63
L 1059.2 29.55 1043.65 69.4 1085.95 63 Z"/>
</g>
</g>
</g>

<g transform="matrix( -0.6365814208984375, 0.7711944580078125, -0.7711944580078125, -0.6365814208984375, 1299.35,-489.35) ">
<g>
<g>
<path fill="#FFFFFF" fill-opacity="0.06666666666666667" stroke="none" d="
M 1264.95 -126
L 1129.9 -23.8 1285.95 42 1264.95 -126 Z"/>
</g>
</g>
</g>

<g transform="matrix( -0.1007843017578125, 0.9948883056640625, -0.9948883056640625, -0.1007843017578125, 236.75,-1264.25) ">
<g>
<g>
<path fill="#FFFFFF" fill-opacity="0.09803921568627451" stroke="none" d="
M 1530.95 107
L 1911.25 92.55 1708.6 -229.55 1530.95 107 Z"/>
</g>
</g>
</g>

<g transform="matrix( -0.427978515625, -0.9037628173828125, 0.9037628173828125, -0.427978515625, 815.75,1147.5) ">
<g>
<g>
<path fill="#FFFFFF" fill-opacity="0.0392156862745098" stroke="none" d="
M 1008.55 404.45
L 1050.95 412 1036.3 371.5 1008.55 404.45 Z"/>
</g>
</g>
</g>

<g transform="matrix( -0.5462188720703125, -1.093841552734375, 1.093841552734375, -0.5462188720703125, 936,1876.2) ">
<g>
<g>
<path fill="#FFFFFF" fill-opacity="0.06666666666666667" stroke="none" d="
M 1461.75 344.65
L 1611.95 390 1576.1 237.3 1461.75 344.65 Z"/>
</g>
</g>
</g>

<g transform="matrix( -1, 0, 0, -1, 1954.3,507.8) ">
<g>
<g>
<path fill="#FFFFFF" fill-opacity="0.0392156862745098" stroke="none" d="
M 1244.1 88.8
L 1229.95 189 1323.75 151.15 1244.1 88.8 Z"/>
</g>
</g>
</g>
</g>
</svg>
