
<svg xmlns="http://www.w3.org/2000/svg" version="1.1" xmlns:xlink="http://www.w3.org/1999/xlink" preserveAspectRatio="none" x="0px" y="0px" width="1900px" height="450px" viewBox="0 0 1900 450">
<defs>
<filter id="Filter_1" x="-20%" y="-20%" width="140%" height="140%" color-interpolation-filters="sRGB">
<feGaussianBlur in="SourceGraphic" stdDeviation="10,10" result="result1"/>
</filter>

<filter id="Filter_2" x="-20%" y="-20%" width="140%" height="140%" color-interpolation-filters="sRGB">
<feGaussianBlur in="SourceGraphic" stdDeviation="5,5" result="result1"/>
</filter>

<filter id="Filter_3" x="-20%" y="-20%" width="140%" height="140%" color-interpolation-filters="sRGB">
<feGaussianBlur in="SourceGraphic" stdDeviation="3.3333333333333335,3.3333333333333335" result="result1"/>
</filter>

<filter id="Filter_4" x="-20%" y="-20%" width="140%" height="140%" color-interpolation-filters="sRGB">
<feGaussianBlur in="SourceGraphic" stdDeviation="10,10" result="result1"/>
</filter>

<filter id="Filter_5" x="-20%" y="-20%" width="140%" height="140%" color-interpolation-filters="sRGB">
<feGaussianBlur in="SourceGraphic" stdDeviation="5,5" result="result1"/>
</filter>

<filter id="Filter_6" x="-20%" y="-20%" width="140%" height="140%" color-interpolation-filters="sRGB">
<feGaussianBlur in="SourceGraphic" stdDeviation="3.3333333333333335,3.3333333333333335" result="result1"/>
</filter>

<filter id="Filter_7" x="-20%" y="-20%" width="140%" height="140%" color-interpolation-filters="sRGB">
<feGaussianBlur in="SourceGraphic" stdDeviation="1.6666666666666667,1.6666666666666667" result="result1"/>
</filter>
</defs>

<g id="Layer_1">
<g transform="matrix( 1, 0, 0, 1, 100,0) ">
<g>
<g>
<path fill="#FFFFFF" fill-opacity="0.0392156862745098" stroke="none" d="
M 1085.95 63
L 1059.2 29.55 1043.65 69.4 1085.95 63 Z"/>
</g>
</g>
</g>

<g transform="matrix( 1, 0, 0, 1, 100,0) ">
<g>
<g>
<path fill="#FFFFFF" fill-opacity="0.0392156862745098" stroke="none" d="
M 1008.55 404.45
L 1050.95 412 1036.3 371.5 1008.55 404.45 Z"/>
</g>
</g>
</g>

<g transform="matrix( -0.39483642578125, 0.918731689453125, -0.918731689453125, -0.39483642578125, 1245.35,-606.6) ">
<g>
<g>
<path fill="#FFFFFF" fill-opacity="0.0392156862745098" stroke="none" d="
M 1085.95 63
L 1059.2 29.55 1043.65 69.4 1085.95 63 Z"/>
</g>
</g>
</g>

<g transform="matrix( -0.427978515625, -0.90374755859375, 0.90374755859375, -0.427978515625, 815.75,1147.5) ">
<g>
<g>
<path fill="#FFFFFF" fill-opacity="0.0392156862745098" stroke="none" d="
M 1008.55 404.45
L 1050.95 412 1036.3 371.5 1008.55 404.45 Z"/>
</g>
</g>
</g>

<g filter="url(#Filter_1)" transform="matrix( 1, 0, 0, 1, 0,0) ">
<g transform="matrix( 1, 0, 0, 1, 70.8,627.85) ">
<g id="Layer_1">
<g transform="matrix( -0.7637939453125, -0.6454315185546875, 0.6454315185546875, -0.7637939453125, 1223.95,848.95) ">
<g>
<g>
<path fill="#FFFFFF" fill-opacity="0.09803921568627451" stroke="none" d="
M 1383.2 174.1
L 1890.9 579 1987.7 -63.1 1383.2 174.1 Z"/>
</g>
</g>
</g>

<g transform="matrix( -0.6200408935546875, -0.78448486328125, 0.78448486328125, -0.6200408935546875, 766.95,853.45) ">
<g>
<g>
<path fill="#FFFFFF" fill-opacity="0.09803921568627451" stroke="none" d="
M 1321.75 429.3
L 1597.1 711.65 1703.95 332 1321.75 429.3 Z"/>
</g>
</g>
</g>

<g transform="matrix( -0.10076904296875, 0.994873046875, -0.994873046875, -0.10076904296875, 165.95,-1892.1) ">
<g>
<g>
<path fill="#FFFFFF" fill-opacity="0.09803921568627451" stroke="none" d="
M 1530.95 107
L 1911.25 92.55 1708.6 -229.55 1530.95 107 Z"/>
</g>
</g>
</g>
</g>
</g>
</g>

<g filter="url(#Filter_2)" transform="matrix( 1, 0, 0, 1, 0,0) ">
<g transform="matrix( 1, 0, 0, 1, 432.55,407.9) ">
<g id="Layer_1">
<g transform="matrix( -0.823089599609375, 0, 0, -0.823089599609375, 1213.6,40.75) ">
<g>
<g>
<path fill="#FFFFFF" fill-opacity="0.06666666666666667" stroke="none" d="
M 1418.45 49.5
L 1505.95 253 1638.4 75.45 1418.45 49.5 Z"/>
</g>
</g>
</g>

<g transform="matrix( -1.6113128662109375, 0.7598114013671875, -0.7598114013671875, -1.6113128662109375, 2446.4,-744.3) ">
<g>
<g>
<path fill="#FFFFFF" fill-opacity="0.06666666666666667" stroke="none" d="
M 1367.95 357
L 1421.85 260.1 1311 261.85 1367.95 357 Z"/>
</g>
</g>
</g>

<g transform="matrix( -0.54620361328125, -1.093841552734375, 1.093841552734375, -0.54620361328125, 503.45,1468.3) ">
<g>
<g>
<path fill="#FFFFFF" fill-opacity="0.06666666666666667" stroke="none" d="
M 1611.95 390
L 1576.1 237.3 1461.75 344.65 1611.95 390 Z"/>
</g>
</g>
</g>
</g>
</g>
</g>

<g filter="url(#Filter_3)" transform="matrix( 1, 0, 0, 1, 0,0) ">
<g transform="matrix( 1, 0, 0, 1, 557.7,566.35) ">
<g id="Layer_1">
<g transform="matrix( -0.5577239990234375, 0.393798828125, -0.393798828125, -0.5577239990234375, 852.35,-753.9) ">
<g>
<g>
<path fill="#FFFFFF" fill-opacity="0.0392156862745098" stroke="none" d="
M 1224.95 172.9
L 1082.9 353.05 1309.95 386 1224.95 172.9 Z"/>
</g>
</g>
</g>

<g transform="matrix( -0.13092041015625, -0.9913787841796875, 0.9913787841796875, -0.13092041015625, 66.65,1066.95) ">
<g>
<g>
<path fill="#FFFFFF" fill-opacity="0.06666666666666667" stroke="none" d="
M 1325.95 149
L 1317.85 76.3 1259 119.65 1325.95 149 Z"/>
</g>
</g>
</g>

<g transform="matrix( -0.6365814208984375, 0.77117919921875, -0.77117919921875, -0.6365814208984375, 741.65,-1055.7) ">
<g>
<g>
<path fill="#FFFFFF" fill-opacity="0.06666666666666667" stroke="none" d="
M 1264.95 -126
L 1129.9 -23.8 1285.95 42 1264.95 -126 Z"/>
</g>
</g>
</g>
</g>
</g>
</g>

<g filter="url(#Filter_4)" transform="matrix( 1, 0, 0, 1, 0,0) ">
<g transform="matrix( 1, 0, 0, 1, 1785.45,685.45) ">
<g id="Layer_1">
<g transform="matrix( 1, 0, 0, 1, -1685.45,-685.45) ">
<g>
<g>
<path fill="#FFFFFF" fill-opacity="0.09803921568627451" stroke="none" d="
M 1383.2 174.1
L 1890.9 579 1987.7 -63.1 1383.2 174.1 Z"/>
</g>
</g>
</g>

<g transform="matrix( 0.8643798828125, 0.50274658203125, -0.50274658203125, 0.8643798828125, -1180.55,-1418.1) ">
<g>
<g>
<path fill="#FFFFFF" fill-opacity="0.09803921568627451" stroke="none" d="
M 1321.75 429.3
L 1597.1 711.65 1703.95 332 1321.75 429.3 Z"/>
</g>
</g>
</g>

<g transform="matrix( 1, 0, 0, 1, -1722.45,-691.45) ">
<g>
<g>
<path fill="#FFFFFF" fill-opacity="0.09803921568627451" stroke="none" d="
M 1530.95 107
L 1911.25 92.55 1708.6 -229.55 1530.95 107 Z"/>
</g>
</g>
</g>
</g>
</g>
</g>

<g filter="url(#Filter_5)" transform="matrix( 1, 0, 0, 1, 0,0) ">
<g transform="matrix( 1, 0, 0, 1, 1541.8,242.2) ">
<g id="Layer_1">
<g transform="matrix( 1, 0, 0, 1, -1521.05,-367.45) ">
<g>
<g>
<path fill="#FFFFFF" fill-opacity="0.06666666666666667" stroke="none" d="
M 1418.45 49.5
L 1505.95 253 1638.4 75.45 1418.45 49.5 Z"/>
</g>
</g>
</g>

<g transform="matrix( 1.3698883056640625, 0.1556243896484375, -0.1556243896484375, 1.3698883056640625, -1871.05,-612.15) ">
<g>
<g>
<path fill="#FFFFFF" fill-opacity="0.06666666666666667" stroke="none" d="
M 1367.95 357
L 1421.85 260.1 1311 261.85 1367.95 357 Z"/>
</g>
</g>
</g>

<g transform="matrix( 1.103607177734375, 0.5262298583984375, -0.5262298583984375, 1.103607177734375, -1549.15,-960.7) ">
<g>
<g>
<path fill="#FFFFFF" fill-opacity="0.06666666666666667" stroke="none" d="
M 1611.95 390
L 1576.1 237.3 1461.75 344.65 1611.95 390 Z"/>
</g>
</g>
</g>
</g>
</g>
</g>

<g filter="url(#Filter_6)" transform="matrix( 1, 0, 0, 1, 0,0) ">
<g transform="matrix( 1, 0, 0, 1, 1330.8,132.8) ">
<g id="Layer_1">
<g transform="matrix( 0.9091796875, 0.1393890380859375, -0.1393890380859375, 0.9091796875, -1036.25,-274.75) ">
<g>
<g>
<path fill="#FFFFFF" fill-opacity="0.0392156862745098" stroke="none" d="
M 1224.95 172.9
L 1082.9 353.05 1309.95 386 1224.95 172.9 Z"/>
</g>
</g>
</g>

<g transform="matrix( 1, 0, 0, 1, -1230.8,-132.8) ">
<g>
<g>
<path fill="#FFFFFF" fill-opacity="0.06666666666666667" stroke="none" d="
M 1325.95 149
L 1317.85 76.3 1259 119.65 1325.95 149 Z"/>
</g>
</g>
</g>

<g transform="matrix( 1, 0, 0, 1, -1230.8,-132.8) ">
<g>
<g>
<path fill="#FFFFFF" fill-opacity="0.0392156862745098" stroke="none" d="
M 1264.95 -126
L 1129.9 -23.8 1285.95 42 1264.95 -126 Z"/>
</g>
</g>
</g>
</g>
</g>
</g>

<g filter="url(#Filter_7)" transform="matrix( 1, 0, 0, 1, 0,0) ">
<g transform="matrix( 1, 0, 0, 1, 977.15,253.9) ">
<g id="Layer_1">
<g transform="matrix( 1, 0, 0, 1, -977.15,-253.9) ">
<g>
<g>
<path fill="#FFFFFF" fill-opacity="0.0392156862745098" stroke="none" d="
M 1244.1 88.8
L 1229.95 189 1323.75 151.15 1244.1 88.8 Z"/>
</g>
</g>
</g>

<g transform="matrix( -1, 0, 0, -1, 977.15,253.9) ">
<g>
<g>
<path fill="#FFFFFF" fill-opacity="0.0392156862745098" stroke="none" d="
M 1244.1 88.8
L 1229.95 189 1323.75 151.15 1244.1 88.8 Z"/>
</g>
</g>
</g>
</g>
</g>
</g>
</g>
</svg>
