
<svg xmlns="http://www.w3.org/2000/svg" version="1.1" xmlns:xlink="http://www.w3.org/1999/xlink" preserveAspectRatio="none" x="0px" y="0px" width="1920px" height="720px" viewBox="0 0 1920 720">
<defs>
<radialGradient id="Gradient_1" gradientUnits="userSpaceOnUse" cx="0" cy="0" r="947.3" fx="0" fy="0" gradientTransform="matrix( 1.0000000000000002, 0, 0, 1.1314261585558958, 964.05,315.65) " spreadMethod="pad">
<stop  offset="0%" stop-color="#FFFFFF" stop-opacity="0.6"/>

<stop  offset="100%" stop-color="#FFFFFF" stop-opacity="0"/>
</radialGradient>

<radialGradient id="Gradient_2" gradientUnits="userSpaceOnUse" cx="0" cy="0" r="947.3125" fx="0" fy="0" gradientTransform="matrix( 1, 0, 0, 1.131411229135053, 960.05,315.65) " spreadMethod="pad">
<stop  offset="0%" stop-color="#FFFFFF" stop-opacity="0.6"/>

<stop  offset="100%" stop-color="#FFFFFF" stop-opacity="0"/>
</radialGradient>
</defs>

<g id="Layer_1">
<g transform="matrix( 1, 0, 0, 1, 0,0) ">
<g>
<path stroke="url(#Gradient_1)" stroke-width="20" stroke-linejoin="round" stroke-linecap="butt" fill="none" d="
M 1707.9 -49.55
Q 1688.05 -38.65 1671 -14.4 1670.85 -14.15 1670.65 -13.9 1663.3 -3.35 1656.45 9.65 1633.6 53.15 1629.6 112.15 1625.6 171.1 1643 218.1 1660.3 265.15 1651.75 282.9 1644.2 298.45 1610.2 277 1605.75 274.2 1600.85 270.8 1563.85 244.8 1526.05 263.55 1520.55 266.25 1515.15 269.95 1509.4 273.7 1504.55 277.55 1472.15 302.8 1474.85 329.6 1476.25 343.8 1480.5 354.7 1485.45 367.4 1494.35 375.6 1510.8 390.85 1538.7 399.65 1566.6 408.5 1529.45 426.45 1492.25 444.4 1461.35 503.3 1430.45 562.3 1427.5 630.25 1424.55 696.55 1434.8 734.4 1434.85 734.65 1434.9 734.9 1435.1 735.65 1435.3 736.35
M 1845.6 -24.15
Q 1831.85 -22.15 1813.95 -14.4 1813.35 -14.15 1812.8 -13.9 1807 -11.35 1800.8 -8.2 1774.55 5.1 1748 37.6 1721.45 70.05 1713.55 100.1 1705.6 130.15 1712.35 157.45 1718.95 184.65 1726.3 208.9 1733.3 231.9 1735.55 247 1739.2 270.8 1736.7 297.9 1733.7 330.5 1722.95 354.8 1713.6 375.85 1691.25 398.05 1668.9 420.25 1629.55 438.85 1590.25 457.5 1566.15 485.85 1542 514.1 1532.15 536.35 1523.4 556.2 1521.95 571.7 1519.55 597.95 1539.2 604.2 1558.85 610.4 1599.35 606.85 1639.95 603.25 1654.75 628.25 1669.45 653.15 1662.25 679.55 1656.15 701.3 1631.3 734.4 1631.1 734.65 1630.9 734.9 1625.9 741.5 1620.2 748.55
M 1775.35 88.55
Q 1776.1 98.05 1785.75 100.6 1795 103 1804.6 102.8 1815.4 102.4 1817.65 91.7 1818.35 88.25 1817.5 85.05 1815 75.9 1815.1 66.25 1815.25 56.35 1807.5 55.4 1804.9 56 1803.55 56.85 1795.15 61.9 1788.05 68.3 1782.5 73.4 1778.45 79.75 1775.85 83.8 1775.35 88.55 Z
M 1796.75 770
Q 1793.35 751.25 1795 732.35 1796.6 714.2 1803.7 697.55 1811 680.25 1823.25 665.85 1835.3 651.55 1847.15 637.15 1858.85 623.05 1869.6 608.2 1880.35 593.3 1890.55 577.95 1900.6 562.85 1908.1 546.05 1915.55 529.45 1919.1 511.55 1922.75 493.1 1922.55 474 1922.35 457.75 1920.4 441.7 1917.95 422.05 1916.25 402.5 1914.7 384.15 1913.6 365.6 1912.6 348.25 1912.15 331.05 1911.65 312.35 1909.7 293.7 1907.705078125 274.9517578125 1907.4 265.8 1907.08671875 256.6408203125 1904.475 248.45 1901.8607421875 240.2623046875 1897.35 231.075 1892.8470703125 221.8947265625 1872.35 204.85 1888.8162109375 209.094140625 1914.7 201.5 1928.815625 197.2734375 1934.225 186.325 1940.239453125 174.1341796875 1935.35 159.275 1930.45546875 144.4046875 1953.3 136.55
M 1868.25 361.05
Q 1856.1 359.15 1846.8 368.75 1839.55 376.2 1841.05 386.45 1843.2 401.2 1849.45 414.35 1850.75 417.05 1852.8 419 1859.1 425.15 1867.55 426.8 1870.95 427.6 1873.85 425.85 1879.0037109375 422.902734375 1878.2 414.825 1877.388671875 406.7412109375 1875.975 393.525 1874.5611328125 380.30859375 1872.7 371.325 1870.84609375 362.3470703125 1869.7 361.8 1868.95 361.4 1868.25 361.05 Z
M 1600.85 368.05
Q 1641.8 369.7 1608.8 334.35 1575.85 299.05 1551.5 317.85 1527.2 336.75 1543.55 351.6 1559.9 366.45 1600.85 368.05 Z
M 1557.45 663
Q 1530.05 667.5 1523.5 667.7 1506.8 668.2 1499.1 683.3 1496.05 689.35 1495.25 696.25 1492.75 718.4 1506.95 734.4 1507.15 734.65 1507.4 734.9 1508.8 736.4 1510.3 737.85 1513.95 741.3 1518.6 742.7 1536.75 748.3 1551.25 735.75 1551.75 735.35 1552.25 734.9 1552.55 734.65 1552.85 734.4 1570.5 718.7 1583.85 698.95 1591.2 688.2 1594.15 679.65 1596.95 670.95 1590.85 664.75 1584.7 658.5 1557.45 663 Z
M 1863.75 764
Q 1858.95 744 1866.4 725.3 1873.3 707.85 1885.05 693.2 1896.85 678.5 1911.85 666.8 1922.55 658.4 1932.4 649.2 1940.6 641.6 1945 631.35 1951.4 616.3 1952.5 599.7 1952.8 595.3 1953.75 591
M 88.05 -103.65
Q 93.3 -94.85 94.45 -84.9 96 -70.05 88.65 -53.85 85.2 -46 78.45 -38.75 71 -30.9 59.7 -23.55 38.05 -9.5 32.15 15 27.5 34.2 38.95 51.2 51 69.05 74.85 74.65 91.3 78.55 109.85 74.55 118.65 72.85 143.05 64.4 164.75 56.8 179.55 54.85 201.45 51.85 223.9 57.15 245.95 62.35 262.9 75.35 278.5 87.5 288.1 105 297.2 122 299.65 141.45 302 160.6 297.65 179.2 292.45 201 279.2 219.85 270.9 231.5 252.85 249.8 234 268.75 226.7 278.8 213.8 296.35 209.05 316.05 206.65 325.9 208.1 336.05 209.5 345.8 214.15 354.5 224.05 373.1 241.75 377.2 254.1 380.15 274 381.7 293.95 383.3 307.85 386.6 340.6 394.4 317.6 433.9 294.5 473.6 323.55 486.3 352.55 499.05 298.4 540.8 247 580.4 252.95 739.2 253.25 747.9 253.75 756.95
M 124.25 -23.95
Q 112.35 -7.15 96.6 10.15 80.9 27.25 138.25 20.2 195.5 13.05 172.85 -9.35 159.75 -22.2 151.8 -29.2 146 -34.35 143.05 -36.25 138.15 -39.5 130.8 -31.95 127.7 -28.9 124.25 -23.95 Z
M 149.85 -145.75
Q 180.45 -56.15 250.15 -21.85 257.6 -18.15 264.6 -14.5 322.95 16.1 348.35 45.2 377.05 77.85 385.75 127.55 394.3 177.1 376.55 226.65 358.85 276.05 299.65 314.95 399.55 296.6 444 343.05 491.15 392.3 468.8 456.2 447.6 516.7 393.1 552.75 337.85 589.45 341.8 655 344.8 704.65 356.8 752.75 358.55 760.2 360.65 767.55
M 380.95 378.65
Q 379.15 393.55 371.15 410.3 363.1 426.95 365.3 439.35 366.35 444.7 369.4 449.15 377.65 460.95 391.5 462.25 395.95 462.6 399.45 460.15 411.55 451.95 418.4 438.75 423.95 428 425.95 416.15 429.4 395.3 412.95 381.8 403.85 374.3 392.55 371.95 388.95 371.25 385.9 373.25 382.7 375.2 380.95 378.65 Z"/>
</g>

<g>
<path stroke="url(#Gradient_2)" stroke-width="20" stroke-linejoin="bevel" stroke-linecap="butt" fill="none" d="
M 1724.2 729
Q 1734.05 712.85 1738.6 694.75 1743.35 675.8 1740.15 656.45 1737.2 638.6 1731.15 621.5 1724.95 604.05 1721.15 585.7 1717.65 568.6 1718.65 551.2 1719.8 531.65 1723.55 512.7 1727 495.1 1735.8 479.55 1745.15 462.9 1761.65 453.15 1778.45 443.1 1795.55 433.6 1811.55 424.7 1801.625 396.625 1791.7 368.55 1795.375 350.95 1799.05 333.35 1820.3 327.625 1841.55 321.9 1839.55 302.85 1837.55 284 1831.2 265.95 1825.2 249 1816.9 233.15 1807.7 215.65 1797.85 198.5 1788.25 181.75 1782.25 163.4 1775.95546875 144.2486328125 1817.7 154.25 1859.4306640625 164.258984375 1857.525 136.775 1855.619140625 109.2810546875 1859.275 102.15 1862.9369140625 95.0150390625 1866.3 93.025 1869.655078125 91.042578125 1885 85.275 1900.3490234375 79.5013671875 1912.45 63.65 1923.1 49.8 1929.45 33.65 1936.3 16.3 1939.35 -2.15 1942.35 -20.35 1942.35 -38.75 1942.35 -49.85 1940.75 -60.85
M 1612.35 511.3
Q 1601.2 524.25 1599.95 540.95 1599.75 543.6 1600.55 545.7 1604.5 556.3 1616.75 555.05 1626.35 554.4 1635 550.35 1642.7 546.8 1647.8 539.9 1659.65 523.8 1663.05 504.4 1664.5 496.2 1657 493.15 1653.9 491.85 1650.25 491.9 1629.85 492.15 1616.05 507.1 1614.15 509.15 1612.35 511.3 Z
M 1816.85 496.15
Q 1800.4 507.1 1787.85 521.85 1784.95 525.3 1783.5 529.45 1776.9 547.9 1782.1 566.9 1783.5 572.05 1788.3 574.05 1797.15 577.8 1806 573.8 1819.3 567.55 1826.8 554.45 1828.8 551 1831 547.55 1841.5 531.15 1850.9 514.1 1856.55 503.9 1853.4 493.2 1852.45 490.1 1849.3 488.55 1840.35 484.1 1830.95 488.05 1823.45 491.25 1816.85 496.15 Z
M 209.4 114.1
Q 207.35 119.25 206.7 123.3 206.3 125.7 206.3 129.6 206.3 138.05 209.6 144.65 210.5 146.55 212.6 150.4 214.45 154.1 215.6 157.7 221.7 155.4 226.3 147.45 228.65 143.5 229.75 139.85 229.75 130.3 220.7 121.25 217.3 117.85 213.8 115.75 210.6 113.8 209.4 114.1 Z
M -32.7 95.3
Q -33.7 100.45 -34.05 104.9 -34.25 107.5 -34.25 111.6 -34.25 137.85 -6.15 149.95 15.35 159.25 49.95 159.25 71.05 159.25 102.2 151.5 119.753125 147.15625 121.5 163.4 123.240625 179.63125 136.125 171.75 149.009375 163.88125 158.025 167.725 167.046875 171.55625 168.8 180.1 170.3 187.35 170.3 191.4 170.3 207.4 161.5 222.45 158.35 227.85 152.5 235.75 149.25 240.25 142.2 249.75 129.2 268.05 122.9 285.8 114.1 310.6 114.1 343.1 114.1005859375 365.357421875 122.75 379.1 131.400390625 392.836328125 145.475 401.95 159.5451171875 411.05859375 168.325 437.325 177.109375 463.60390625 162.025 507.4 146.928515625 551.1900390625 169.675 567.45 192.415625 583.7107421875 196.9 657.125 199.6880859375 702.6662109375 186.925 738
M 64.8 209.6
Q 56.85 213.5 53.45 221.1 51 226.55 51 230.5 51 236.25 55 238.05 57.15 239 63 239 74.3 239 80 231 84 225.4 84 219 84 200.3 64.8 209.6 Z
M -57.7 189.1
Q 11.5318359375 256.0275390625 33.5 294.375 55.4732421875 332.726953125 56.775 376.325 58.064453125 419.9291015625 51.725 437.75 45.39921875 455.5548828125 34.575 473.925 23.73828125 492.30078125 26.8 516.55 29.8623046875 540.796875 41.625 553.6 53.3953125 566.4056640625 95.725 590.45 138.0384765625 614.48828125 132.225 697.175 130.3779296875 723.4869140625 119.525 738
M 231.9 434.1
Q 227.9 439.2 226.55 445.2 224.3 455.2 230.05 461.8 235.8 468.4 232.6 476.15 231.3 479.3 228 486.55 224.65 493.75 243.05 501.95 246.8 503.6 249.3 504.9 252.05 503.85 255.6 502.1 263.15 498.35 264.35 497.25 265.55 496.15 265.75 494.15 265.95 492.15 265.35 490.6 264.75 489 264.35 488.2 264.15 487.75 263.9 487.45 261.55 484.2 258.8 481.35 255.75 478.3 254 474.45 252.5 471.2 253 467.65 253.9 461.65 256.3 456.25 258.1 452.2 258.65 447.65 259.1 444.1 258 440.6 255.8 434.05 249.3 431.4 246.85 430.45 244.15 429.6 237 427.45 231.9 434.1 Z
M 106.2 458.75
Q 97.75 455.2 90.75 482.9 86 501.7 86 509.5 86 516.65 88 519 89.7 521 94.5 521 104.35 521 109 506 113 493.15 113 470 113 461.7 106.2 458.75 Z
M -20 612
Q 32.1 628.05 49 662.3 55.6 675.7 57.7 693.55 59 704.4 59 725 59 738.95 57.5 757.8 56 776.65 56 777"/>
</g>
</g>
</g>
</svg>
