<svg xmlns="http://www.w3.org/2000/svg" xmlns:xlink="http://www.w3.org/1999/xlink" viewBox="0 0 32 32"><defs><path id="a" d="M0 0h32v32H0z"/></defs><clipPath id="b"><use xlink:href="#a" overflow="visible"/></clipPath><path clip-path="url(#b)" fill="#FFF" d="M12.6 13c.5-.2 1.4-.1 1.7.5l.4 1.1.1-1.6c.1-.3.3-.6.7-.7l.9-.1.8.5c.4.6.4 1.9.4 1.8.1-.3.1-1.2.3-1.6.1-.2.5-.4.7-.5h1c.2 0 .6.3.7.5.2.3.3 1.3.4 1.7l.3-.7c.4-.6 1.8-.8 1.9.6v2.3l-.2 1.7a6 6 0 0 1-.7 1.4s-1.1 1.2-1.2 1.8l-.1 1 .1.9h-1.2c-.4-.1-.9-.8-1-1.1-.2-.3-.5-.3-.7 0-.2.4-.7 1.1-1 1.1h-3.1s.2-1-.2-1.4l-1.1-1.1-.8-.9c-.3-.4-1-.9-1.2-2-.2-.9-.2-1.4 0-1.8.2-.4.7-.6.9-.6l.9.1.5.4c.2.3.3.5.2.1l-.4-1c-.1-.4-.4-.9-.4-1.5-.5 0-.4-.6.4-.9"/><path clip-path="url(#b)" fill="none" stroke="#000" stroke-width=".8" stroke-linejoin="round" d="M12.6 13c.5-.2 1.4-.1 1.7.5l.4 1.1.1-1.6c.1-.3.3-.6.7-.7l.9-.1.8.5c.4.6.4 1.9.4 1.8.1-.3.1-1.2.3-1.6.1-.2.5-.4.7-.5h1c.2 0 .6.3.7.5.2.3.3 1.3.4 1.7l.3-.7c.4-.6 1.8-.8 1.9.6v2.3l-.2 1.7a6 6 0 0 1-.7 1.4s-1.1 1.2-1.2 1.8l-.1 1 .1.9h-1.2c-.4-.1-.9-.8-1-1.1-.2-.3-.5-.3-.7 0-.2.4-.7 1.1-1 1.1h-3.1s.2-1-.2-1.4l-1.1-1.1-.8-.9c-.3-.4-1-.9-1.2-2-.2-.9-.2-1.4 0-1.8.2-.4.7-.6.9-.6l.9.1.5.4c.2.3.3.5.2.1l-.4-1c-.1-.4-.4-.9-.4-1.5-.5 0-.4-.6.4-.9z"/><path clip-path="url(#b)" fill="none" stroke="#000" stroke-width=".8" stroke-linecap="round" d="M19.6 20.7v-3.4M17.6 20.7l-.1-3.4M15.6 17.3v3.4"/></svg>