
<svg xmlns="http://www.w3.org/2000/svg" version="1.1" xmlns:xlink="http://www.w3.org/1999/xlink" preserveAspectRatio="none" x="0px" y="0px" width="650px" height="300px" viewBox="0 0 650 300">
<defs>
<linearGradient id="Gradient_1" gradientUnits="userSpaceOnUse" x1="-4.975000000000023" y1="153" x2="661.975" y2="153" spreadMethod="pad">
<stop  offset="0%" stop-color="#FFFFFF" stop-opacity="0.09803921568627451"/>

<stop  offset="100%" stop-color="#FFFFFF" stop-opacity="0"/>
</linearGradient>

<radialGradient id="Gradient_2" gradientUnits="userSpaceOnUse" cx="0" cy="0" r="316.0875000000001" fx="0" fy="0" gradientTransform="matrix( 0.9999999999999998, 0, 0, 0.9999999999999998, 620,94) " spreadMethod="pad">
<stop  offset="0%" stop-color="#FFFFFF" stop-opacity="0.09803921568627451"/>

<stop  offset="100%" stop-color="#FFFFFF" stop-opacity="0"/>
</radialGradient>
</defs>

<g id="Layer_2">
<g transform="matrix( 1, 0, 0, 1, 0,0) ">
<g>
<g>
<path fill="url(#Gradient_1)" stroke="none" d="
M -4.95 0.05
L -4.95 306 662 306 662 81 658 81 658 38 659 38 659 0.05 -4.95 0.05 Z"/>
</g>
</g>
</g>
</g>

<g id="Layer_1">
<g transform="matrix( 1, 0, 0, 1, 0,0) ">
<g>
<path stroke="url(#Gradient_2)" stroke-width="20" stroke-linejoin="miter" stroke-linecap="butt" stroke-miterlimit="1" fill="none" d="
M 511.45 -2.95
Q 521.4236328125 -0.063671875 530.25 5.6 534.65 8.45 538.8 12 540.5 13.45 542.2 15.05 542.9 15.75 543.6 16.45 543.9 16.75 544.2 17.05 561.85 35.05 565.2 58.95 585.15 51.1 608 50.2 611 50.05 614 50.05 614.0330078125 50.05 614.075 50.05 614 49.038671875 614 48 614 36.4 622.2 28.2 630.4 20 642 20 651.68515625 20 659 25.725
M 516 69.05
Q 516 80.65 507.8 88.85 499.6 97.05 488 97.05 476.4 97.05 468.2 88.85 460 80.65 460 69.05 460 57.45 468.2 49.25 476.4 41.05 488 41.05 499.6 41.05 507.8 49.25 516 57.45 516 69.05 Z
M 661.8 270.65
Q 657.15 271.3 652.25 271.3 652 271.3 651.7 271.3 622.5 271.3 601.85 250.65 581.2 230 581.2 200.75 581.2 171.55 601.85 150.9 620.65 132.05 646.65 130.4 646.3 130.1 646 129.8 640.35 124.15 640.35 116.15 640.35 108.15 646 102.5 648.85 99.7 652.25 98.25 655.65 96.85 659.7 96.85 660.75 96.85 661.8 96.95
M 564.825 305
Q 540.603125 295.353125 520.65 275.4 482 236.75 482 182.05 482 163.6 486.4 147 456.7 145.95 435.4 124.65 433.8 123.05 432.35 121.45 430.7 128.55 425.15 134.1 417.25 142 406.05 142 394.85 142 386.95 134.1 379.05 126.2 379.05 115 379.05 103.8 386.95 95.9 394.85 88 406.05 88 410.95 88 415.2 89.5 413 80.5 413 70.55 413 39.25 434.8 17.05 435.1 16.75 435.4 16.45 436.1 15.75 436.85 15.05 438.5 13.45 440.2 12 444.35 8.45 448.8 5.6 457.601953125 -0.063671875 467.55 -2.95
M 681 202
Q 681 213.6 672.8 221.8 664.6 230 653 230 641.4 230 633.2 221.8 625 213.6 625 202 625 190.4 633.2 182.2 641.4 174 653 174 664.6 174 672.8 182.2 681 190.4 681 202 Z"/>
</g>
</g>
</g>
</svg>
