<svg xmlns="http://www.w3.org/2000/svg" width="1010" height="1010"><path fill="#00233C" d="M957 448v-1q-18-152-130-264Q693 50 505 50q-189 0-322 133T50 505q0 71 19 135L0 732l19 20 76-47 1 3 9 16v1l5 8v1q18 31 43 60 13 16 29 32l1 1 2 2q72 71 159 103h1q25 10 52 16 52 12 108 12 188 0 322-133 57-57 89-124 12-25 21-50 22-67 23-142v-1-5q0-30-3-57m-30 62q-1 58-15 110-95-68-218-68-76 0-141 26l24-28 69-73v-1q10-9 17-19 17-21 26-46 10-30 10-63 0-76-53-129-54-54-129-54-17 0-33 3-55 9-97 51l-16 18-3 4-2 2-1 1-49 67-1 1L94 606q-11-48-11-101 0-175 123-298Q330 83 505 83t298 124q104 104 121 244 3 26 3 54v5m-25 143q-7 18-16 35-30 63-83 115-123 124-298 124-53 0-100-11-25-6-49-15-81-30-147-95l-3-3-21-23q43-103 128-189 44-44 93-77h1l85-52-2-21-10-4q-16-5-30-12-22-11-42-27l-18-17-4-4v-1h-1l-18-21v-7q0-15 2-29 6-30 23-55l2-2 3-4 14-16q34-34 79-41 13-3 27-3 62 0 105 44 44 44 44 106 0 28-9 52-7 19-20 37l-14 16-71 75q-31 34-64 86l-7 11 18 19 12-7q81-51 183-51 118 0 208 67M338 371l19 23-95 102 9 11 119-81q21 16 44 28l4 2-48 29-1 1L87 671l239-318 11 16v1l1 1M139 718v-1l-1-1-4-8q-5-7-8-15l-3-5 128-79q-56 66-90 142-12-16-22-33m316-416l-8 6-2 2-1 2-3 2v1l-6 8q-12 17-15 39l16 1q28 0 49-13l10-7 9-8q23-23 28-54l-17-1q-35 0-60 22z"/><path fill="#39F" d="M139 718q10 17 22 33 34-76 90-142l-128 79 3 5q3 8 8 15l4 8 1 1v1m788-208v-5q0-28-3-54-17-140-121-244Q680 83 505 83T206 207Q83 330 83 505q0 53 11 101l221-294 1-1 49-67 1-1 2-2 3-4 16-18q42-42 97-51 16-3 33-3 75 0 129 54 53 53 53 129 0 33-10 63-9 25-26 46-7 10-17 19v1l-69 73-24 28q65-26 141-26 123 0 218 68 14-52 15-110z"/><path fill="#F66" d="M357 394l-19-23-1-1v-1l-11-16L87 671l302-185 1-1 48-29-4-2q-23-12-44-28l-119 81-9-11 95-102z"/><path fill="#F3FFFF" d="M886 688q9-17 16-35-90-67-208-67-102 0-183 51l-12 7-18-19 7-11q33-52 64-86l71-75 14-16q13-18 20-37 9-24 9-52 0-62-44-106-43-44-105-44-14 0-27 3-45 7-79 41l-14 16-3 4-2 2q-17 25-23 55-2 14-2 29v7l18 21h1v1l4 4 18 17q20 16 42 27 14 7 30 12l10 4 2 21-85 52h-1q-49 33-93 77-85 86-128 189l21 23 3 3q66 65 147 95 24 9 49 15 47 11 100 11 175 0 298-124 53-52 83-115M447 308l8-6q25-22 60-22l17 1q-5 31-28 54l-9 8-10 7q-21 13-49 13l-16-1q3-22 15-39l6-8v-1l3-2 1-2 2-2z"/></svg>
