<svg xmlns="http://www.w3.org/2000/svg" viewBox="0 0 128 128"><path style="transform: translateX(-12px) rotate(-45deg); transform-origin: 50%" vector-effect="non-scaling-stroke" stroke-width="3" d="M98.3 58.4q-2.2 2.2-2.3 5.3V68 56q0-3.3-2.3-5.6Q91.3 48 88 48q-3.3 0-5.7 2.4-2.2 2.2-2.3 5.3V64 48q0-3.3-2.3-5.6Q75.3 40 72 40q-3.3 0-5.7 2.4-2.2 2.2-2.3 5.3V64 16q0-3.3-2.4-5.7Q59.4 8 56 8t-5.6 2.3Q48 12.8 48 16v68.7L29.6 66.3Q27.3 64 24 64q-3.4 0-5.7 2.3-2.4 2.4-2.3 5.7 0 3.3 2.3 5.6l30.6 38q.5 1.1 1.5 2 2.3 2.4 5.6 2.4h48q3.3 0 5.7-2.3 2.3-2.4 2.3-5.7V64q0-3.3-2.3-5.6-2.4-2.4-5.7-2.4-3.3 0-5.7 2.4z"/></svg>
