
<svg xmlns="http://www.w3.org/2000/svg" version="1.1" xmlns:xlink="http://www.w3.org/1999/xlink" preserveAspectRatio="none" x="0px" y="0px" width="1024px" height="1024px" viewBox="0 0 1024 1024">
<defs/>

<g id="Layer_1">
<g transform="matrix( 1, 0, 0, 1, 0,0) ">
<g>
<g>
<path fill="#000000" stroke="none" d="
M 1024 512
Q 1024 300 873.9 149.9 724.1 0 512 0 300 0 149.9 149.9 0 300 0 512 0 724 149.9 873.9 300 1024 512 1024 724.1 1024 873.9 873.9 1024 724 1024 512
M 776 352
Q 825.7 352 860.9 387.2 896 422.3 896 472
L 896 612
Q 896 636.8 878.4 654.4 860.8 672 836 672
L 696 672
Q 651.7685546875 672 619.1 644.2 618.6470703125 643.814453125 618.2 643.4 613.7552734375 639.85 608 639.85 601.6 639.85 597 644.2
L 596.8 644.2
Q 564.1677734375 672 520 672
L 248 672
Q 198.3 672 163.1 636.8 128 601.7 128 552
L 128 412
Q 128 387.2 145.6 369.6 163.2 352 188 352
L 328 352
Q 372.2314453125 352 404.9 379.8 405.351953125 380.184765625 405.8 380.55 410.2439453125 384.15 416 384.15 421.7515625 384.15 426.05 380.6 426.3794921875 380.346875 426.7 380.05 426.8556640625 379.9365234375 427 379.8
L 427 379.8
Q 459.7693359375 352 504 352
L 776 352
M 576 441
Q 576 430.65 568.65 423.3 561.35 416 551 416
L 488 416
Q 471.45 416 459.7 427.7 448 439.45 448 456
L 448 583
Q 448 593.35 455.3 600.65 462.65 608 473 608
L 536 608
Q 552.55 608 564.25 596.25 576 584.55 576 568
L 576 441
M 199.3 423.3
Q 192 430.65 192 441
L 192 558
Q 192 578.7 206.65 593.35 221.3 608 242 608
L 364 608
Q 384 608 384 588
L 384 466
Q 384 445.3 369.35 430.65 354.7 416 334 416
L 217 416
Q 206.65 416 199.3 423.3
M 832 466
Q 832 445.3 817.35 430.65 802.7 416 782 416
L 660 416
Q 640 416 640 436
L 640 558
Q 640 578.7 654.65 593.35 669.3 608 690 608
L 807 608
Q 817.35 608 824.65 600.65 832 593.35 832 583
L 832 466 Z"/>
</g>
</g>
</g>
</g>

<g id="MergedLayer_2"/>

<g id="Layer_3"/>

<g id="Layer_11"/>

<g id="Layer_10"/>
</svg>
