<svg xmlns="http://www.w3.org/2000/svg" viewBox="0 0 1120 1120"><path d="M1120 560q0-231.8-164.2-396Q792 0 560 0 328.1 0 163.9 164 0 328 0 560q0 232 163.9 395.9Q328.1 1120 560 1120q232 0 395.8-164.1Q1120 791.9 1120 560M908.9 435.2Q944 470.6 944 520v140q0 24.8-17.6 42.5Q908.8 720 884 720H744q-44.3 0-77-27.8-5.3-4.4-11-4.4-6.5 0-11.3 4.5Q612.1 720 568 720H296q-49.8 0-84.9-35.2-35.1-35-35.1-84.8V460q0-24.8 17.6-42.4Q211.2 400 236 400h140q44.1 0 76.9 27.8 5.3 4.3 11.1 4.3 5.6 0 11-4.3 32.9-27.8 77-27.8h272q49.6 0 84.9 35.3M624 489q0-10.3-7.4-17.7-7.3-7.3-17.6-7.3h-63q-16.6 0-28.3 11.8Q496 487.4 496 504v127q0 10.4 7.3 17.7 7.3 7.3 17.7 7.3h63q16.5 0 28.3-11.8Q624 632.6 624 616V489m-359-25q-10.4 0-17.7 7.3-7.3 7.3-7.3 17.7v117q0 20.8 14.6 35.4Q269.3 656 290 656h122q20 0 20-20V514q0-20.6-14.6-35.4Q402.6 464 382 464H265m600.3 14.6Q850.7 464 830 464H708q-20 0-20 20v122q0 20.8 14.6 35.4Q717.3 656 738 656h117q10.3 0 17.6-7.3 7.4-7.4 7.4-17.7V514q0-20.6-14.7-35.4z"/></svg>
