
<svg xmlns="http://www.w3.org/2000/svg" version="1.1" xmlns:xlink="http://www.w3.org/1999/xlink" preserveAspectRatio="none" x="0px" y="0px" width="1120px" height="1120px" viewBox="0 0 1120 1120">
<defs/>

<g id="Layer_1">
<g transform="matrix( 1, 0, 0, 1, 0,0) ">
<g>
<g>
<path fill="#000000" stroke="none" d="
M 1120 560
Q 1120 328.15 955.85 163.95 792 0 560 0 328.15 0 163.95 163.95 0 328.15 0 560 0 791.9 163.95 955.85 328.15 1120 560 1120 792 1120 955.85 955.85 1120 791.9 1120 560
M 824 400
Q 873.7 400 908.9 435.2 944 470.3 944 520
L 944 660
Q 944 684.8 926.4 702.4 908.8 720 884 720
L 744 720
Q 699.75 720 667.1 692.2 666.65 691.8 666.2 691.45 661.75 687.85 656 687.85 649.6 687.85 645 692.2
L 644.8 692.2
Q 612.15 720 568 720
L 296 720
Q 246.3 720 211.1 684.8 176 649.7 176 600
L 176 460
Q 176 435.2 193.6 417.6 211.2 400 236 400
L 376 400
Q 420.25 400 452.9 427.8 453.35 428.2 453.8 428.6 458.25 432.15 464 432.15 469.7 432.15 474.05 428.7 474.4 428.35 474.75 428.05 474.85 427.9 475 427.8
L 475.05 427.8
Q 507.8 400 552 400
L 824 400
M 624 489
Q 624 478.65 616.65 471.3 609.35 464 599 464
L 536 464
Q 519.45 464 507.7 475.7 496 487.45 496 504
L 496 631
Q 496 641.35 503.3 648.65 510.65 656 521 656
L 584 656
Q 600.55 656 612.25 644.25 624 632.55 624 616
L 624 489
M 265 464
Q 254.65 464 247.3 471.3 240 478.65 240 489
L 240 606
Q 240 626.7 254.65 641.35 269.3 656 290 656
L 412 656
Q 432 656 432 636
L 432 514
Q 432 493.3 417.35 478.65 402.7 464 382 464
L 265 464
M 865.35 478.65
Q 850.7 464 830 464
L 708 464
Q 688 464 688 484
L 688 606
Q 688 626.7 702.65 641.35 717.3 656 738 656
L 855 656
Q 865.35 656 872.65 648.65 880 641.35 880 631
L 880 514
Q 880 493.3 865.35 478.65 Z"/>
</g>
</g>
</g>
</g>

<g id="MergedLayer_3"/>
</svg>
