<svg xmlns="http://www.w3.org/2000/svg" preserveAspectRatio="none" width="1280" height="720">
  <path fill="$color1" d="M1280 127l-52 15-180 53q-90 28-176 65-84 36-164 80T563 449q-67 67-130 138-35 40-20 90 7 22 16 43h851V127z"/>
  <path fill="$color2" d="M1180 346l100-16V0H332l-30 15q-84 41-170 76-68 27-132 63v566h570q76-51 144-113l148-133q73-67 168-94 74-21 150-34z"/>
  <path fill="$color3" d="M394 269l149 6q98 3 196-4 98-5 187-48 90-42 170-102 71-54 129-121H0v355l15-4q94-26 187-57 93-32 192-25z"/>
  <path fill="$color4" d="M897 578q-85 40-177 62-92 23-186 32-98 9-194-13-93-20-188-34-77-10-152 3v92h1280V452l-22 3q-91 16-178 47-94 33-183 76M362 40q61-22 124-40H0v237l19-8q88-42 168-98 81-58 175-91z"/>
  <path stroke="$color5" stroke-width="2" stroke-linejoin="round" stroke-linecap="round" fill="none" d="M545 720q39-26 71-60 34-37 56-81 19-40 34-82l27-82q15-48 49-86 32-35 75-56 41-20 86-30 43-9 87-8 45 0 93-6t88-23q40-17 68-47M0 421q20-9 39-20 106-57 164-162 49-87 66-187 4-27 11-52"/>
</svg>
