
<svg xmlns="http://www.w3.org/2000/svg" version="1.1" xmlns:xlink="http://www.w3.org/1999/xlink" preserveAspectRatio="none" x="0px" y="0px" width="1800px" height="1600px" viewBox="0 0 1800 1600">
<defs/>

<g id="Layer_5">
<g transform="matrix( 1, 0, 0, 1, 0,0) ">
<g>
<g>
<path fill="#8F9BD1" stroke="none" d="
M 935.6 922.2
Q 941.63828125 926.9240234375 943.8 932.2
L 1092.85 875.45 742.4 875.45
Q 740.1990234375 889.384375 755.85 895.7 773.986328125 903.085546875 816.1 900.25 900.05 894.5 935.6 922.2
M 600 925.9
Q 599.860546875 925.1009765625 599.65 924.3
L 279.25 980.3
Q 278.75 982.9296875 278.75 985.6 278.75 1006.35 302.2 1018.25 315.02421875 1024.7578125 335.75 1029.8 352.96640625 1033.978125 375.6 1037.15 424.9 1044.0658203125 485.95 1029.8 486.705078125 1029.6267578125 487.45 1029.45 549.35 1014.75 543.55 991.45 537.75 968.15 556.65 965.4 575.5 962.6 584.45 957.35 593.35 952.05 597.15 944.75 600.95 937.45 600.55 930.15 600.4337890625 928.0314453125 600 925.9 Z"/>
</g>
</g>
</g>
</g>

<g id="Layer_1">
<g transform="matrix( 1, 0, 0, 1, 0,0) ">
<g>
<g>
<path fill="#CBD0EF" stroke="none" d="
M 1547.95 365.2
Q 1450.05 547.15 1310.75 576.75 1171.45 606.3 1138.8 629.35 1106.15 652.4 1090.4 707.4 1074.6 762.4 915.85 794.15 757.05 825.9 743.9 862.05 730.7 898.2 816.1 892.45 900.05 886.7 935.6 914.4 970.75 941.9 875.3 988.1 778.3435546875 1035.058203125 578.95 1115.55 379.61015625 1196.0833984375 322.7 1220.3 265.8390625 1244.528515625 208 1282.1 150.166015625 1319.719921875 112.4 1382.25 74.676953125 1444.7693359375 80.95 1511.95 85.738671875 1563.2927734375 97.15 1599.8
L 97.2 1606.5 1803.65 1606.5 1803.65 124.6
Q 1645.8 183.2 1547.95 365.2 Z"/>

<path fill="#D7DDF7" stroke="none" d="
M 543.55 983.65
Q 537.75 960.35 556.65 957.6 575.5 954.8 584.45 949.55 593.35 944.25 597.15 936.95 600.95 929.65 600.55 922.35 600.15 915.05 596.15 907.6 591.7 899.25 581.75 894.3 560.55 883.8 515.35 885 486.35 886.4 448.1 894.35 409.85 902.25 374.3 912.6 331.7 925.05 307.45 940.15 278.75 957.95 278.75 977.8 278.75 998.55 302.2 1010.45 325.65 1022.35 375.6 1029.35 425.5 1036.35 487.45 1021.65 549.35 1006.95 543.55 983.65 Z"/>
</g>
</g>
</g>
</g>
</svg>
