
<svg xmlns="http://www.w3.org/2000/svg" version="1.1" xmlns:xlink="http://www.w3.org/1999/xlink" preserveAspectRatio="none" x="0px" y="0px" width="1800px" height="1600px" viewBox="0 0 1800 1600">
<defs/>

<g id="Layer_7"/>

<g id="Layer_6">
<g transform="matrix( 1, 0, 0, 1, 0,0) ">
<g>
<g>
<path fill="#FFFFFF" fill-opacity="0.4" stroke="none" d="
M 1537.5 94.5
Q 1396.4 105.3 1310.45 175.1 1281.35 198.75 1256.8 230.9 1243.5 248.35 1226.4 274.1 1215.8 288.35 1200.65 319.95 1175.15 372.85 1172.5 378.1 1154.15 413.35 1135.25 437.8 1111.345703125 468.8439453125 1079.95 484.1 1048.56484375 499.36796875 1001.6 501.35 954.630078125 503.371484375 922.3 529.25 889.962890625 555.1869140625 874.95 589.95 859.9958984375 624.717578125 851.55 687.15 843.1 749.63671875 750.25 785.5 657.3884765625 821.36953125 644.75 904.85 632.17890625 988.373828125 579.8 1010.8 527.409765625 1033.28984375 451.75 1044.6 350.4 1059.85 266.1 1123.45 192.05 1179.35 138.05 1257 72.05 1351.95 38.95 1475.5 37.1 1482.25 32.3 1514.25 27.487109375 1545.93046875 23.05 1603.2
L 1806.45 1603.2 1806.45 -75.95
Q 1689.4279296875 82.750390625 1537.5 94.5 Z"/>

<path fill="#6076D1" fill-opacity="0.14901960784313725" stroke="none" d="
M 2103 -26.9
Q 2102.2109375 -26.1482421875 2101.4 -25.4
L 2108.6 -25.4 2103 -26.9 Z"/>
</g>
</g>
</g>
</g>

<g id="Layer_1">
<g transform="matrix( 1, 0, 0, 1, 0,0) ">
<g>
<g>
<path fill="#FFE7BF" stroke="none" d="
M 1549.85 429.7
Q 1450.0990234375 548.76171875 1310.75 577.5 1171.4501953125 606.29609375 1138.8 629.35 1106.15 652.4 1090.4 707.4 1074.6 762.4 915.85 794.15 757.05 825.9 743.9 862.05 730.7 898.2 816.1 892.45 900.05 886.7 935.6 914.4 970.75 941.9 875.3 988.1 778.3435546875 1035.058203125 578.95 1115.55 379.61015625 1196.0833984375 322.7 1220.3 265.8373046875 1244.53203125 208.4 1282 151.0173828125 1319.51328125 120.2 1380.3 89.4236328125 1441.091015625 87.55 1502.2 85.7349609375 1563.2990234375 97.15 1599.8
L 97.2 1603.2 1803.65 1603.2 1806.45 249.75
Q 1649.651171875 310.684375 1549.85 429.7 Z"/>
</g>
</g>
</g>
</g>
</svg>
