
<svg xmlns="http://www.w3.org/2000/svg" version="1.1" xmlns:xlink="http://www.w3.org/1999/xlink" preserveAspectRatio="none" x="0px" y="0px" width="647px" height="600px" viewBox="0 0 647 600">
<defs>
<linearGradient id="Gradient_1" gradientUnits="userSpaceOnUse" x1="265.875" y1="562.1625" x2="403.32500000000005" y2="525.3375" spreadMethod="pad">
<stop  offset="1.9607843137254901%" stop-color="#000000" stop-opacity="0.09803921568627451"/>

<stop  offset="100%" stop-color="#000000" stop-opacity="0"/>
</linearGradient>

<linearGradient id="Gradient_2" gradientUnits="userSpaceOnUse" x1="146.39999999999998" y1="515.85" x2="259.5" y2="485.55" spreadMethod="pad">
<stop  offset="1.9607843137254901%" stop-color="#000000" stop-opacity="0.09803921568627451"/>

<stop  offset="100%" stop-color="#000000" stop-opacity="0"/>
</linearGradient>

<linearGradient id="Gradient_3" gradientUnits="userSpaceOnUse" x1="306.7375" y1="483.2" x2="447.96250000000003" y2="430.90000000000003" spreadMethod="pad">
<stop  offset="0%" stop-color="#000000" stop-opacity="0.08627450980392157"/>

<stop  offset="100%" stop-color="#000000" stop-opacity="0"/>
</linearGradient>

<linearGradient id="Gradient_4" gradientUnits="userSpaceOnUse" x1="222.77499999999998" y1="415.05" x2="357.625" y2="415.05" spreadMethod="pad">
<stop  offset="0%" stop-color="#FFE7BF"/>

<stop  offset="100%" stop-color="#A58E66"/>
</linearGradient>

<linearGradient id="Gradient_5" gradientUnits="userSpaceOnUse" x1="190.85" y1="370.45" x2="297.45" y2="370.45" spreadMethod="pad">
<stop  offset="0%" stop-color="#D6D6D6"/>

<stop  offset="100%" stop-color="#B2B2B2"/>
</linearGradient>

<linearGradient id="Gradient_6" gradientUnits="userSpaceOnUse" x1="267.6" y1="436.35" x2="83.5" y2="229.14999999999998" spreadMethod="pad">
<stop  offset="1.9607843137254901%" stop-color="#FFFFFF" stop-opacity="0.2784313725490196"/>

<stop  offset="100%" stop-color="#FFFFFF" stop-opacity="0.8274509803921568"/>
</linearGradient>

<linearGradient id="Gradient_7" gradientUnits="userSpaceOnUse" x1="18.5625" y1="289.2375" x2="1.1374999999999993" y2="116.76249999999999" spreadMethod="pad">
<stop  offset="1.9607843137254901%" stop-color="#FFFFFF" stop-opacity="0.2784313725490196"/>

<stop  offset="100%" stop-color="#FFFFFF" stop-opacity="0.8274509803921568"/>
</linearGradient>

<linearGradient id="Gradient_8" gradientUnits="userSpaceOnUse" x1="13.600000000000001" y1="156.53750000000002" x2="21.6" y2="17.862499999999997" spreadMethod="pad">
<stop  offset="1.9607843137254901%" stop-color="#FFFFFF" stop-opacity="0.2784313725490196"/>

<stop  offset="100%" stop-color="#FFFFFF" stop-opacity="0.8274509803921568"/>
</linearGradient>

<linearGradient id="Gradient_9" gradientUnits="userSpaceOnUse" x1="555.0875" y1="274.4625" x2="398.7125" y2="477.63750000000005" spreadMethod="pad">
<stop  offset="1.9607843137254901%" stop-color="#FFFFFF" stop-opacity="0"/>

<stop  offset="100%" stop-color="#FFFFFF" stop-opacity="0.8274509803921568"/>
</linearGradient>

<linearGradient id="Gradient_10" gradientUnits="userSpaceOnUse" x1="326.15" y1="241.8" x2="629.85" y2="241.8" spreadMethod="pad">
<stop  offset="0%" stop-color="#FFFFFF" stop-opacity="0.8"/>

<stop  offset="100%" stop-color="#FFFFFF" stop-opacity="0"/>
</linearGradient>

<linearGradient id="Gradient_11" gradientUnits="userSpaceOnUse" x1="-84.85000000000001" y1="201.3" x2="124.85000000000001" y2="201.3" spreadMethod="pad">
<stop  offset="1.9607843137254901%" stop-color="#FFFFFF" stop-opacity="0"/>

<stop  offset="100%" stop-color="#FFFFFF" stop-opacity="0.8274509803921568"/>
</linearGradient>

<linearGradient id="Gradient_12" gradientUnits="userSpaceOnUse" x1="-9.675000000000011" y1="337.325" x2="175.775" y2="151.875" spreadMethod="pad">
<stop  offset="1.9607843137254901%" stop-color="#FFFFFF" stop-opacity="0"/>

<stop  offset="100%" stop-color="#FFFFFF" stop-opacity="0.8274509803921568"/>
</linearGradient>
</defs>

<g id="Shadows">
<g transform="matrix( 1, 0, 0, 1, 0,0) ">
<g>
<g>
<path fill="url(#Gradient_1)" stroke="none" d="
M 266.35 577.9
Q 282.13203125 579.7107421875 320.1 545.7
L 458 542.8 437.7 495.25 298.9 529.3 266.35 577.9 Z"/>

<path fill="url(#Gradient_2)" stroke="none" d="
M 163.2 512.8
Q 194.866015625 516.7322265625 216.8 513.85
L 273.85 522.8 263.05 485.65 132.1 503.25
Q 131.5810546875 508.8580078125 163.2 512.8 Z"/>

<path fill="url(#Gradient_3)" stroke="none" d="
M 314.5 431.6
L 301.25 492.35 508.05 480.3 469.7 400.5 314.5 431.6 Z"/>
</g>
</g>
</g>
</g>

<g id="Stool">
<g transform="matrix( 1, 0, 0, 1, 0,0) ">
<g>
<g>
<path fill="url(#Gradient_4)" stroke="none" d="
M 357.65 375.65
Q 357.1 359.95 337.9 348.95 318.45 337.6 290.9 337.45 290.55 337.45 290.2 337.45 262.5 337.45 242.8 348.95 223.65 359.8 222.85 375.1 222.8 375.45 222.8 375.9
L 222.8 454.05
Q 223.05 470.25 242.8 481.75 262.25 493 290.2 492.7 295.313671875 492.7548828125 300.15 492.4 307.1666015625 491.9453125 313.6 490.65 327.0169921875 487.96484375 337.9 481.75 357.6 470.3 357.65 454.15
L 357.65 376.15
Q 357.65 375.9 357.65 375.65 Z"/>
</g>
</g>
</g>
</g>

<g id="Layer_1">
<g transform="matrix( 1, 0, 0, 1, 0,0) ">
<g>
<g>
<path fill="#838DC4" stroke="none" d="
M 357.65 376.15
Q 357.65 375.9 357.65 375.65 357.1 359.95 337.9 348.95 318.45 337.6 290.9 337.45 290.55 337.45 290.2 337.45 262.5 337.45 242.8 348.95 223.65 359.8 222.85 375.1 222.8 375.45 222.8 375.9
L 222.8 376.7
Q 223.35 392.55 242.8 403.9 262.25 415.1 290.2 414.85 318.2 415.1 337.9 403.9 356.05 393.3 357.65 376.15 Z"/>
</g>
</g>
</g>
</g>

<g id="Layer_2">
<g transform="matrix( 1, 0, 0, 1, 0,0) ">
<g>
<g>
<path fill="#E8D4B6" stroke="none" d="
M 357.65 376.15
Q 357.65 375.9 357.65 375.65 357.1 359.95 337.9 348.95 318.45 337.6 290.9 337.45 290.55 337.45 290.2 337.45 262.5 337.45 242.8 348.95 223.65 359.8 222.85 375.1 222.8 375.45 222.8 375.9
L 222.8 376.7
Q 223.35 392.55 242.8 403.9 262.25 415.1 290.2 414.85 318.2 415.1 337.9 403.9 356.05 393.3 357.65 376.15 Z"/>
</g>
</g>
</g>
</g>

<g id="Body">
<g transform="matrix( 1, 0, 0, 1, 0,0) ">
<g>
<g>
<path fill="#E4D6CA" stroke="none" d="
M 287 285.35
Q 288.95 288.2 293.35 289.3 297.75 290.35 305.8 293.1 310.15 294.5 315.4 298.95 316.85 300.15 318.4 301.6 318.65 301 318.9 300.5 319.25 299.6 319.5 298.9 320.8 294.75 320.8 288 320.8 286.4 320.75 285.5 319.85 285.1 319.4 284.6 318.5 283.7 317.95 283.1 317 282.1 316.7 281.15 316.15 279.9 315.45 277.05 314.7 273.95 314.1 272.45 312.3 267.65 308.05 265.55
L 283.85 265.05
Q 280.9 269.2 283 275.85 285.05 282.5 287 285.35
M 328.2 159.25
Q 328.4 154 327.65 151.7 326.9 149.35 324 147.9 322.65 147.25 319.6 146.6 316.85 146 314.65 145.95 312.45 145.85 307.2 146.35 301.95 146.85 298.4 146.65 294.85 146.45 293.15 145.85 291.4 145.2 290 144.3 289.4 143.9 288.7 143.45
L 287.4 152.65 286.4 160.1
Q 286.4 161.2 286.8 162.65 287.2 164.05 287.2 165
L 286.75 170.15
Q 286.6 171.5 286.55 172.55 286.5 173.2 286.7 176.3 286.95 179.75 287.25 180.85 288.3 184.3 289.4 183.45 290.45 182.55 296.3 182.7 302.1 182.8 307.2 186.1 312.25 189.35 316.75 185.4 321.25 181.45 323.05 179.2 324.75 176.95 325.7 174.2 326.65 171.4 327.25 169.15 327.9 166.4 328.2 159.25
M 340.25 160.65
Q 340.3 159.35 339.6 157.65 338.9 155.95 337.4 156.05 335.85 156.1 335 156.8 334.1 157.5 332.35 160.45 331.6 161 330.9 167.8 330.15 174.55 330.2 176.8 330.25 179 330.3 184.5 330.35 189.9 323.9 195.55 317.4 201.1 309.75 203 302.1 204.85 298.9 204.2 295.65 203.55 293.85 202.25
L 293.85 205.85
Q 291 208.1 289.95 211.55 288.9 214.95 291.25 218.25 292.85 220.45 296.1 222.3 300.5 224.85 306.45 225.55 313.55 226.4 318.3 226 323.05 225.6 328 223.7 335.25 220.9 335.9 212.65 336.05 210.65 335.6 209.35 335.5 209.05 335 208.15
L 334.75 207.8
Q 334.35 207.15 334.1 206.45 333.35 204.65 333.1 202.4 332.9 200.6 332.9 193.35
L 332.9 190.4
Q 332.9 189.7 332.9 189.15
L 332.85 186.5
Q 332.85 184.45 333.6 175.05 334.1 175.4 334.95 174.85 335.75 174.25 336.55 171.55 337.35 168.75 338.75 165.4 340.15 162 340.25 160.65 Z"/>

<path fill="#242A47" stroke="none" d="
M 298.8 521.55
Q 295.65 524.2 289.25 524.65 278.6 525.45 273.95 522.85
L 273.85 522.8
Q 275.1 525.9 270.8 534.2 266.45 542.5 264 549.65 261.5 556.8 260.85 564.4 260.15 572 262.9 575.9 265.6 579.8 274.45 576.45 283.25 573.1 288.25 563.75 293.25 554.4 294.45 549 295.6 543.55 296.95 541.9 298.25 540.2 298.65 536.55 299 532.9 298.8 521.55
M 178.65 476.05
Q 177.55 474.8 177.25 474.25 177.15 474.4 177.05 474.6 172.85 481.45 165.1 485.15 160.5 487.35 150.1 490.8 140.55 493.95 137.1 495.9 131.7 498.85 132 502.7 132.25 506.25 142.25 508.75 152.2 511.3 166.5 508.1 180.8 504.75 184.95 506.6 189.05 508.4 200.25 502.75 203.2 496.35 203.65 494.2 205 488.25 204.1 480.45 204.1 480.4 204.1 480.35
L 199.3 481.1
Q 195.45 481.5 190.2 480.8 184.9 480.05 181.1 478.2 180.15 477.75 178.65 476.05
M 331.95 129.75
Q 329.1 128.4 324.6 126.95 320.1 125.45 312.7 123.2 305.25 120.9 298.2 121.7 291.15 122.45 288.25 126.65 285.35 130.8 285 136 284.85 138.35 285.45 141.75
L 287.4 152.65 288.7 143.45
Q 289.4 143.9 290 144.3 291.4 145.2 293.15 145.85 294.85 146.45 298.4 146.65 301.95 146.85 307.2 146.35 312.45 145.85 314.65 145.95 316.85 146 319.6 146.6 322.65 147.25 324 147.9 326.9 149.35 327.65 151.7 328.4 154 328.2 159.25 327.9 166.4 327.25 169.15 326.65 171.4 325.7 174.2 324.75 176.95 323.05 179.2 321.25 181.45 316.75 185.4 312.25 189.35 307.2 186.1 302.1 182.8 296.3 182.7 290.45 182.55 289.4 183.45 288.3 184.3 287.25 180.85 286.95 179.75 286.7 176.3 286.5 173.2 286.55 172.55 286.6 171.5 286.75 170.15 286.45 171.35 286.05 174.6 285.65 177.85 285.7 181.9 285.7 185.95 286.65 190.15 287.6 194.3 288.6 196 289.55 197.7 290.45 199.1 291.3 200.5 293.85 202.25 295.65 203.55 298.9 204.2 302.1 204.85 309.75 203 317.4 201.1 323.9 195.55 330.35 189.9 330.3 184.5 330.25 179 330.2 176.8 330.15 174.55 330.9 167.8 331.6 161 332.35 160.45 334.1 157.5 335 156.8 335.85 156.1 337.4 156.05 338.9 155.95 339.6 157.65 340.3 159.35 340.25 160.65 340.15 162 338.75 165.4 337.35 168.75 336.55 171.55 335.75 174.25 334.95 174.85 334.1 175.4 333.6 175.05 332.85 184.45 332.85 186.5
L 332.9 189.15
Q 332.9 189.7 332.9 190.4 333.2 190.2 334.15 188.5 335.05 186.75 336.55 182.45 338 178.15 338.95 175.25 344.55 157.45 344.3 148.7 344 139.9 342.2 137.2 340.35 134.5 337.6 132.8 334.8 131.1 331.95 129.75 Z"/>

<path fill="#4B4F67" stroke="none" d="
M 347.55 373
Q 347.45 364.25 345.5 358.1 342.5 361.95 334.1 363.95 323.65 366.4 304.5 360.35 285.3 354.25 281.4 352.7 277.45 351.1 271.55 347.7 265.65 344.25 264.1 342.9 264 342.8 263.95 342.8
L 263.85 342.7
Q 262.45 341.3 261.55 339.3 261.4 339.65 261 340
L 260.95 340.05
Q 259.05 341.8 242.7 347.6 226.25 352.9 218.15 356.6 209.8 360.35 202.1 364.8 194.4 369.25 191.8 377.05 189.15 384.85 186.35 411.5 183.5 438.15 176.5 471.65 176.75 473.1 177.25 474.25 177.55 474.8 178.65 476.05 180.15 477.75 181.1 478.2 184.9 480.05 190.2 480.8 195.45 481.5 199.3 481.1
L 204.1 480.35
Q 204.1 480.4 204.1 480.45 205.15 480.25 205.85 480.05 210.6 464 219.45 438.95 228.25 413.9 228.1 397.9 231.25 396.25 251.6 389.35 272.5 382.3 276.5 381.75 280.5 381.15 282 382.1 282.35 382.3 281.2 388.7 280 395.75 278.45 399.8 273.1 413.7 270.3 423.05 266.6 435.2 267 446.7 267.15 448.25 267.3 449.9 268.3 463.35 268.65 485.05 269 506.7 269.15 513.5 269.25 520.15 273.85 522.8
L 273.95 522.85
Q 278.6 525.45 289.25 524.65 295.65 524.2 298.8 521.55
L 301.65 517
Q 301.8505859375 516.15546875 302.05 515.05 303.506640625 507.060546875 305 485.45 305.576953125 477.0841796875 305.95 471.5 306.666015625 460.6302734375 306.6 460.3 306.5 459.75 306.8 453.9 307.1 448 307.25 446.5 307.4 444.95 309.2 440.95 310.95 436.9 317.75 426.45 324.5 416 336.1 398.85 347.65 381.7 347.55 373 Z"/>
</g>
</g>
</g>
</g>

<g id="Shadow_under_table">
<g transform="matrix( 1, 0, 0, 1, 0,0) ">
<g>
<g>
<path fill="#34374A" stroke="none" d="
M 221.25 380.45
L 217.65 389.35 220.95 408.35 197.2 481.25
Q 198.3 481.2 199.3 481.1
L 204.1 480.35
Q 204.1 480.4 204.1 480.45 205.15 480.25 205.85 480.05 210.6 464 219.45 438.95 228.25 413.9 228.1 397.9 231.25 396.25 251.6 389.35 272.5 382.3 276.5 381.75 280.5 381.15 282 382.1
L 274.55 370.15 267.65 364.5 221.25 380.45
M 347.55 373
Q 347.45 364.25 345.5 358.1 342.8 361.6 335.55 363.6 335.1 380.5 325.05 396.65 324 398.3 323.75 398.85 315.8 389.5 282.05 382.25 282.2 383.05 281.2 388.7 280 395.75 278.45 399.8 273.1 413.7 270.3 423.05 266.6 435.2 267 446.7 267.15 448.1 267.25 449.5 268.843359375 437.6482421875 283 429.4 297.1568359375 421.1521484375 309 426.15 305.85 432.55 300.85 442.55 301.4505859375 455.971875 300.8 471.5 300.565625 477.31484375 300.15 483.4 299.827734375 488.1765625 299.4 493.1 296.9 521.2 293.65 524 296.85 523.15 298.8 521.55
L 301.65 517
Q 301.8505859375 516.15546875 302.05 515.05 303.506640625 507.060546875 305 485.45 305.576953125 477.0841796875 305.95 471.5 306.666015625 460.6302734375 306.6 460.3 306.5 459.75 306.8 453.9 307.1 448 307.25 446.5 307.4 444.95 309.2 440.95 310.95 436.9 317.75 426.45 324.5 416 336.1 398.85 347.65 381.7 347.55 373 Z"/>
</g>
</g>
</g>
</g>

<g id="Table">
<g transform="matrix( 1, 0, 0, 1, 0,0) ">
<g>
<g>
<path fill="#F2F2F2" stroke="none" d="
M 322.05 383.2
L 187.3 302.85 111.15 348.25 245.9 428.55 322.05 383.2 Z"/>

<path fill="#BABABA" stroke="none" d="
M 322.05 388.45
L 322.05 383.2 245.9 428.55 245.9 433.8 322.05 388.45 Z"/>

<path fill="#E0E0E0" stroke="none" d="
M 111.15 348.25
L 111.15 353.5 245.9 433.8 245.9 428.55 111.15 348.25 Z"/>
</g>
</g>
</g>
</g>

<g id="Layer_12">
<g transform="matrix( 1, 0, 0, 1, 0,0) ">
<g>
<g>
<path fill="#DBCBAD" stroke="none" d="
M 195.4 329.5
Q 192.35 330.2 187.35 333.1 190 332.1 191.6 331.45 195.9 329.65 195.4 329.5 Z"/>

<path fill="#E0E0E0" stroke="none" d="
M 215.7 330.5
L 229.5 328 216.25 320.1
Q 216.25 320.2 216.3 320.35 216.55 321.1 216.7 321.8 214.75 322.9 213.1 323.95 213.05 323.95 213 324 206.55 328.05 205.25 331.5 204.95 332.3 203.75 333.65 203.75 333 193 337.6 182.2 342.15 174.45 344.35 189.9 347.7 200.45 340.55 211 333.35 215.7 330.5 Z"/>
</g>
</g>
</g>
</g>

<g id="Layer_7">
<g transform="matrix( 1, 0, 0, 1, 0,0) ">
<g>
<g>
<path fill="#9BA6E3" stroke="none" d="
M 377.05 246
Q 375.85 242.65 374.25 239.85 371.75 235.45 366.15 230.8 361.3 226.8 354.15 222.6 338.85 213.6 335 208.15 335.5 209.05 335.6 209.35 336.05 210.65 335.9 212.65 335.25 220.9 328 223.7 323.05 225.6 318.3 226 313.55 226.4 306.45 225.55 300.5 224.85 296.1 222.3 292.85 220.45 291.25 218.25 288.9 214.95 289.95 211.55 291 208.1 293.85 205.85 288.2 208.05 278.65 210.3 268.1 212.8 267.7 212.95 263.65 214.15 259.7 217 259.4 217.2 259.1 217.45 258.75 217.7 258.35 218 257.15 218.95 256 220.05 252.05 223.7 250.1 230.15 249.25 233.05 248.75 236.5 247.2 247.7 247.05 260.05 246.8 272.35 240 281.25 238.05 283.7 234.15 287.15 233.6 287.55 228.7 292.05 223.8 296.55 213.35 303.8 204.7537109375 309.7779296875 202.5 311.65 203.3025390625 311.009765625 204.85 311.3 214.55 314.9 216.3 320.35 216.55 321.1 216.7 321.8 217.1 323.35 217.05 324.6 216.95 325.4 216.7 326.05 229.8 320.45 245.15 311.55 245.35 311.45 245.5 311.35 249.9 308.8 253.15 306.35 256.2 304 258.25 301.75 258.7 301.2 259.1 300.7 260.95 298.4 261.75 296.15 262 290.2 262.15 284.25 261.85 269 262.4 257.75
L 262.55 296.45
Q 262.7 300.65 262.85 308.45 262.85 311.7 262 320.25 261.1 328.85 260.8 334.45 260.6 337.2 261.55 339.3 262.45 341.3 263.85 342.7
L 263.95 342.8
Q 264 342.8 264.1 342.9 265.65 344.25 271.55 347.7 277.45 351.1 281.4 352.7 285.3 354.25 304.5 360.35 323.65 366.4 334.1 363.95 342.5 361.95 345.5 358.1 346.2 357.2 346.6 356.25 348.7 351 349.2 346.8 349.65 342.6 350.75 328.3 362 333.85 370.45 334.3 382.6 334.95 384.75 331.35 386.85 327.75 386.5 318.6 386.1 309.4 383.6 291.3 381.1 273.15 380.05 260.6 379.3 252.35 377.05 246
M 293.35 289.3
Q 288.95 288.2 287 285.35 285.05 282.5 283 275.85 280.9 269.2 283.85 265.05
L 308.05 265.55
Q 312.3 267.65 314.1 272.45 314.7 273.95 315.45 277.05 316.15 279.9 316.7 281.15 317 282.1 317.95 283.1 318.5 283.7 319.4 284.6 319.85 285.1 320.75 285.5 320.8 286.4 320.8 288 320.8 294.75 319.5 298.9 319.25 299.6 318.9 300.5 318.65 301 318.4 301.6 317.85 302.7 316.3 304.8 315.2 304.5 315.4 298.95 310.15 294.5 305.8 293.1 297.75 290.35 293.35 289.3 Z"/>
</g>
</g>
</g>
</g>

<g id="Layer_5">
<g transform="matrix( 1, 0, 0, 1, 0,0) ">
<g>
<g>
<path fill="#E0E0E0" stroke="none" d="
M 190.85 359.9
L 193.35 363.9 266.9 407.7 297.45 383.75 190.85 359.9 Z"/>
</g>
</g>
</g>
</g>

<g id="Keyboard">
<g transform="matrix( 1, 0, 0, 1, 0,0) ">
<g>
<g>
<path fill="#8C8C8C" stroke="none" d="
M 264.4 400.8
L 264.4 403.7 297.45 383.75 264.4 400.8 Z"/>

<path fill="url(#Gradient_5)" stroke="none" d="
M 224.15 340.1
L 190.85 357 264.4 400.8 297.45 383.75 224.15 340.1 Z"/>

<path fill="#E2E2E2" stroke="none" d="
M 190.85 357
L 190.85 359.9 264.4 403.7 264.4 400.8 190.85 357 Z"/>
</g>
</g>
</g>
</g>

<g id="Layer_3">
<g transform="matrix( 1, 0, 0, 1, 0,0) ">
<g>
<g>
<path fill="#FFFFFF" fill-opacity="0.6" stroke="none" d="
M 224 344.65
L 199.15 357.3 264.55 396.25 289.5 383.65 224 344.65 Z"/>
</g>
</g>
</g>
</g>

<g id="Mouse">
<g transform="matrix( 1, 0, 0, 1, 0,0) ">
<g>
<g>
<path fill="#8C8C8C" stroke="none" d="
M 199.25 332.35
Q 202.15 327.15 200.05 323.5 197.9 319.95 192.1 320 186.15 319.95 179.85 323.6 173.6 327.2 170.65 332.35 167.65 337.45 169.7 341.05 171.85 344.7 177.8 344.7 183.65 344.7 189.9 341.05 196.25 337.45 199.25 332.35 Z"/>
</g>
</g>
</g>
</g>

<g id="Layer_8">
<g transform="matrix( 1, 0, 0, 1, 0,0) ">
<g>
<g>
<path fill="#BABABA" stroke="none" d="
M 194.35 328.25
Q 197.85 327.1 196.25 324.15 194.65 321.2 189.6 321.25 184.3 321.2 178.75 324.45 173.25 327.6 170.65 332.1 168 336.65 169.8 339.8 171.7 343.05 177.2 342.65 182.65 342.25 186.75 335.85 190.85 329.4 194.35 328.25 Z"/>
</g>
</g>
</g>
</g>

<g id="Shadow_bg">
<g transform="matrix( 1, 0, 0, 1, 0,0) ">
<g>
<g>
<path fill="#7586E3" stroke="none" d="
M 216.7 326.05
Q 219.75 322.4 214.15 315 208.55 307.55 202.4 311.7 212.85 327.3 216.7 326.05 Z"/>
</g>
</g>
</g>
</g>

<g id="Arm">
<g transform="matrix( 1, 0, 0, 1, 0,0) ">
<g>
<g>
<path fill="#E4D6CA" stroke="none" d="
M 205.25 331.5
Q 206.55 328.05 213 324 213.05 323.95 213.1 323.95 214.75 322.9 216.7 321.8 216.55 321.1 216.3 320.35 214.55 314.9 204.85 311.3 202.3 312.55 200.7 312.85 186.25 315.35 177.9 320.45 168.55 326.05 168.65 332.45 168.75 338.85 174.2 338.15 179.65 337.45 186.85 333.35 192.2 330.25 195.4 329.5 196.15 329.7 196.3 330.6 196.35 331.05 196.25 331.85 196.25 332.6 193.65 335.3 191.05 338 191.05 340.05 191.05 341.35 191.8 341.85 192.4 342.25 193.7 342.25 204.2 334.2 205.25 331.5 Z"/>

<path fill="#3F8BD1" stroke="none" d="
M 262.15 284.25
Q 262.5 271 262.4 257.75 261.85 269 262.15 284.25 Z"/>
</g>
</g>
</g>
</g>

<g id="Body_shadow">
<g transform="matrix( 1, 0, 0, 1, 0,0) ">
<g>
<g>
<path fill="#7586E3" stroke="none" d="
M 258.4 293.5
Q 258.35 294.3 256.95 296.65 252.55 303.75 220.55 322.55 218.8 323.55 217 324.6
L 217.05 324.6
Q 216.95 325.4 216.7 326.05
L 221.5 324.1
Q 221.65 324.05 221.8 324 222.15 323.85 222.55 323.7 229.6 320.6 245.15 311.55 245.35 311.45 245.5 311.35 249.9 308.8 253.15 306.35 256.2 304 258.25 301.75 258.7 301.2 259.1 300.7 260.95 298.4 261.75 296.15 262.15 295.05 262.4 294.15 262.6 293.2 262.65 290.65 262.6 288.1 262.55 278.35 262.5 268.55 262.7 257.6 262.85 246.6 264.1 239.3 258.45 255.3 258.4 293.5
M 320.4 282.15
Q 319.65 283.75 319.4 284.6 319.85 285.1 320.75 285.5 320.75 284.75 320.4 282.15
M 349.85 288.9
Q 349.45 286.05 348.85 283.9 347.85 280.1 344.15 264.5
L 345.65 287.5 320.4 282.15
Q 320.85 282.3 321.45 282.55
L 321.5 282.55
Q 324.65 283.75 331.15 286.45 339.9 290.1 344.8 291.55 345.4 291.7 345.95 291.9 348.2 292.6 350.3 293.35 357.6 295.95 363.3 299.4 365.45 300.7 371.85 305.55 361.7 294.75 349.85 288.9
M 315.4 298.95
Q 315.2 304.5 316.3 304.8 317.85 302.7 318.4 301.6 316.85 300.15 315.4 298.95
M 293.35 289.3
Q 290.5 288.55 288.7 287.15 290.5 291.4 295.75 294.75 300.95 298.1 315.4 298.95 310.15 294.5 305.8 293.1 297.75 290.35 293.35 289.3
M 377.05 246
Q 375.85 242.65 374.25 239.85 374 239.4 372.25 236.75 370.4 234.05 363.45 228.55 356.45 223 347.65 218.3 338.85 213.6 335 208.15 335.5 209.05 335.6 209.35 336.05 210.65 335.9 212.65 335.6 216.75 333.65 219.5
L 332.95 220.35
Q 332.6 220.75 332.2 221.15 359.05 230.55 365.6 236.85 372.15 243.1 375.05 255.95 377.95 268.8 383.55 328.25 371.1 333.55 316.3 304.8 332.5 319.1 345.25 328.8 343.85 351 335.55 363.6 341.7095703125 362.2283203125 344.1 359.85 346.4927734375 357.4662109375 347.6 354.2 348.70234375 350.99453125 349.2 346.8 349.65 342.6 350.75 328.3 362 333.85 370.45 334.3 382.6 334.95 384.75 331.35 386.85 327.75 386.5 318.6 386.1 309.4 383.6 291.3 381.1 273.15 380.05 260.6 379.3 252.35 377.05 246 Z"/>

<path fill="#BFB3A8" stroke="none" d="
M 315.45 277.05
Q 314.7 273.95 314.1 272.45 312.3 267.65 308.05 265.55 313.4 269.7 314 283.75
L 320.8 289.2 320.8 288
Q 320.8 286.4 320.75 285.5 319.85 285.1 319.4 284.6 318.5 283.7 317.95 283.1 317 282.1 316.7 281.15 316.15 279.9 315.45 277.05
M 330.35 183.3
Q 330.4 187.55 328.55 190.35 326.45 193.3 323.9 195.55 317.4 201.1 309.75 203 307.3 203.55 300.75 204.4 315.55 205.15 322.15 201.1 328.15 197.4 328.4 196.35 328.7 204 330.6 210.75 332.55 217.7 332.2 221.15 332.6 220.75 332.95 220.35
L 333.65 219.5
Q 335.6 216.75 335.9 212.65 336.05 210.65 335.6 209.35 335.5 209.05 335 208.15
L 334.75 207.8
Q 334.35 207.15 334.1 206.45 333.35 204.65 333.1 202.4 332.9 200.6 332.9 193.35
L 332.9 190.4
Q 332.9 189.7 332.9 189.15
L 333.6 175.05 332.7 174.4
Q 332.25 177.45 331.95 180.3
L 330.5 171.85
Q 330.15 175.3 330.2 176.8 330.25 179 330.35 183.3
M 169.65 336.55
Q 171 338.55 174.2 338.15 179.65 337.45 186.85 333.35 192.2 330.25 195.4 329.5 195.8 329.6 196.05 329.9
L 194.85 328
Q 193.6 326 188.55 330.45 183.5 334.8 177.2 336.45 170.9 338.05 169.65 336.55
M 216.3 320.35
Q 214.55 314.9 204.85 311.3 204 311.7 202.65 312.3 207.8 312.4 210.4 316.3 212.95 320.2 209.95 322.15 206.95 324.1 205.15 326.7 203.35 329.25 201.3 332.95 199.25 336.6 196 338.75 192.75 340.9 193.7 342.25 204.2 334.2 205.25 331.5 206.55 328.05 213 324 213.05 323.95 213.1 323.95 214.75 322.9 216.7 321.8 216.55 321.1 216.3 320.35
M 308.3 271.1
Q 308.55 268.7 307.95 266.2
L 303.65 271.55 287 270.65
Q 289.5 273 295 274.2 300.5 275.4 304.25 274.45 308 273.45 308.3 271.1
M 327.25 169.15
Q 327.9 166.4 328.2 159.25 328.4 154 327.65 151.7 326.9 149.35 324 147.9 322.65 147.25 319.6 146.6 316.85 146 314.65 145.95 312.45 145.85 307.2 146.35 305.55 146.5 304.05 146.6 320.6 146.05 324.05 150.45 327.6 155 325.1 167.45 322.55 179.85 319 183.4 321.75 180.85 323.05 179.2 324.75 176.95 325.7 174.2 326.65 171.4 327.25 169.15 Z"/>
</g>
</g>
</g>
</g>

<g id="Layer_10">
<g transform="matrix( 1, 0, 0, 1, 0,0) ">
<g>
<g>
<path fill="#FFF1D1" stroke="none" d="
M 1193.05 328.75
L 1116.9 374.15 1251.65 454.4 1327.75 409.05 1193.05 328.75 Z"/>
</g>
</g>
</g>
</g>

<g id="Layer_4">
<g transform="matrix( 1, 0, 0, 1, 0,0) ">
<g>
<g>
<path fill="#ECCDAB" stroke="none" d="
M 1206.4 338.75
Q 1192.00078125 341.27265625 1183.6 346.3 1174.3171875 351.938671875 1174.4 358.35 1174.434375 361.01640625 1175.4 362.45 1176.7564453125 364.4654296875 1179.95 364.05 1185.4056640625 363.34609375 1192.6 359.25 1197.962109375 356.159375 1201.15 355.35 1201.668359375 355.53046875 1201.9 356 1202.0037109375 356.221875 1202.05 356.5 1202.1 356.95 1202 357.7 1201.9990234375 358.5001953125 1199.4 361.2 1196.8 363.9 1196.8 365.95 1196.8 367.25 1197.55 367.75 1198.15 368.15 1199.45 368.15 1209.95 360.1 1211 357.4 1212.2923828125 353.9537109375 1218.75 349.9 1218.8013671875 349.8673828125 1218.85 349.8 1220.4912109375 348.7951171875 1222.45 347.7
L 1222.45 347.65
Q 1222.2927734375 347.016796875 1222.05 346.25 1220.2974609375 340.802734375 1210.6 337.2 1209.7634765625 337.6109375 1209 337.9 1207.51640625 338.55078125 1206.4 338.75
M 1335.95 202.65
Q 1335.997265625 204.922265625 1336.05 210.35 1336.0701171875 212.0349609375 1335.45 213.7 1335.389453125 213.99375 1335.25 214.25
L 1331.2 226.9 1338 208.05 1336.2 197.75
Q 1335.9107421875 201.1955078125 1335.95 202.65
M 1338 234
L 1338 208.05 1331.2 226.9 1310.5 229.85
Q 1310.1982421875 229.9345703125 1309.9 229.95 1306.5076171875 230.455859375 1304.6 230.05 1301.383203125 229.4337890625 1299.6 228.15
L 1299.6 231.75
Q 1296.757421875 234.019921875 1295.7 237.4 1294.65 240.846484375 1296.95 244.1 1298.6 246.35 1301.85 248.2 1306.25 250.75 1312.2 251.45 1319.3 252.3 1324.05 251.9 1327.5455078125 251.6056640625 1331.15 250.5
L 1335.55 245.95
Q 1339.6427734375 241.7646484375 1338 234
M 1338.1 186.35
Q 1337.365625 186.91328125 1336.6 193.65 1336.375390625 195.972265625 1336.2 197.75
L 1338 208.05 1338 200.95 1339.35 200.95 1339.35 200.9
Q 1339.8416015625 201.2869140625 1340.65 200.7 1341.508984375 200.1703125 1342.3 197.4 1343.091796875 194.6685546875 1344.5 191.25 1345.9013671875 187.875 1345.95 186.55 1346.04765625 185.23125 1345.35 183.55 1344.6583984375 181.8685546875 1343.1 181.9 1341.5861328125 181.9794921875 1340.7 182.65 1339.86953125 183.3767578125 1338.1 186.35
M 1330.6 197
L 1330.6 182.6 1325.3 176.8 1303.75 172.5
Q 1300.5095703125 172.3119140625 1298.85 171.7 1297.132421875 171.099609375 1295.7 170.2 1295.1283203125 169.816015625 1294.45 169.35
L 1292.15 186
Q 1292.15 187.1 1292.55 188.55 1292.95 189.95 1292.95 190.9
L 1292.45 196
Q 1292.35546875 197.3791015625 1292.25 198.45 1292.25 199.1 1292.45 202.2 1292.7 205.65 1293 206.75 1294.054296875 210.1953125 1295.1 209.3 1296.187109375 208.459375 1302 208.55 1307.8630859375 208.7009765625 1312.9 211.95 1317.9822265625 215.2439453125 1322.5 211.3 1323.4162109375 210.500390625 1324.2 209.75
L 1330.6 197 Z"/>

<path fill="#666666" stroke="none" d="
M 1257.35 415.25
Q 1278.25 408.2033203125 1282.25 407.6 1286.25234375 407.0453125 1287.7 408
L 1287.75 408 1280.3 396.05 1273.4 390.4 1227 406.35 1223.4 415.25 1226.7 434.25 1202.95 507.1
Q 1204.0474609375 507.0853515625 1205.05 506.95
L 1209.85 506.25
Q 1209.8546875 506.2904296875 1209.85 506.3 1210.890234375 506.1451171875 1211.6 505.95 1216.339453125 489.902734375 1225.15 464.85 1234.010546875 439.797265625 1233.85 423.8 1237 422.15 1257.35 415.25
M 1314.8 452
L 1299.1 436.3 1287.8 408.1
Q 1287.962890625 408.9625 1286.95 414.6 1285.75 421.65 1284.15 425.7 1278.8537109375 439.5953125 1276.05 448.95 1272.3654296875 461.1 1272.75 472.6 1272.8775390625 473.980859375 1273 475.4
L 1287.9 461.5 1314.8 452
M 1337.8 412.85
L 1341 398.6 1331 398.6 1295.1 381.35
Q 1289.1203125 379.390625 1287.1 378.55 1283.2158203125 376.9845703125 1277.3 373.55 1271.37734375 370.16875 1269.8 368.75 1269.7669921875 368.7220703125 1269.7 368.65
L 1269.6 368.6
Q 1268.2154296875 367.2232421875 1267.3 365.2 1267.1390625 365.53046875 1266.7 365.9
L 1266.7 365.9
Q 1264.8 367.7 1248.45 373.45 1232.015625 378.7826171875 1223.85 382.45 1215.5677734375 386.2505859375 1207.85 390.7 1200.144921875 395.1447265625 1197.5 402.95 1194.89921875 410.7677734375 1192.05 437.4 1189.2509765625 464.026171875 1182.25 497.55 1182.4916015625 498.97578125 1183 500.15 1183.3 500.7 1184.4 501.95 1185.9 503.65 1186.85 504.1 1190.66015625 505.95 1195.9 506.65 1199.8224609375 507.21171875 1202.95 507.1
L 1226.7 434.25 1223.4 415.25 1227 406.35 1273.4 390.4 1280.3 396.05 1287.75 408
Q 1287.7828125 408.0333984375 1287.8 408.1
L 1299.1 436.3 1314.8 452 1287.9 461.5 1273 475.4
Q 1273.0091796875 475.601953125 1273 475.8 1274.037109375 489.2349609375 1274.4 510.9 1274.7689453125 532.6244140625 1274.9 539.35 1275.0236328125 546.044140625 1279.55 548.65 1279.6220703125 548.6953125 1279.65 548.7 1284.32890625 551.3306640625 1295 550.55 1297.4392578125 550.3724609375 1299.4 549.85
L 1303.5 537.7 1309.3 462.2 1337.8 412.85
M 1351.25 384
Q 1348.2732421875 387.831640625 1339.8 389.85 1329.41875 392.3232421875 1310.2 386.25 1300.83203125 383.2755859375 1295.1 381.35
L 1331 398.6 1341 398.6 1337.8 412.85 1309.3 462.2 1303.5 537.7 1299.4 549.85
Q 1302.592578125 549.06875 1304.55 547.4
L 1307.35 542.85
Q 1309.0626953125 535.9744140625 1310.75 511.35 1312.43125 486.7205078125 1312.3 486.15 1312.228125 485.644140625 1312.55 479.75 1312.862890625 473.9099609375 1313 472.35 1313.1447265625 470.8431640625 1314.9 466.8 1316.6994140625 462.8091796875 1323.45 452.35 1330.2572265625 441.888671875 1341.8 424.75 1353.3873046875 407.6173828125 1353.3 398.85 1353.2189453125 390.1306640625 1351.5 384.2
L 1351.25 384 Z"/>

<path fill="#0089DF" stroke="none" d="
M 1385.75 286.45
Q 1385.0724609375 278.2337890625 1382.8 271.85 1382.5875 271.27734375 1382.35 270.7
L 1337.95 247.05
Q 1336.23359375 248.6408203125 1333.75 249.6 1332.4427734375 250.1017578125 1331.15 250.5 1327.5455078125 251.6056640625 1324.05 251.9 1319.3 252.3 1312.2 251.45 1306.25 250.75 1301.85 248.2 1298.6 246.35 1296.95 244.1 1294.65 240.846484375 1295.7 237.4 1296.757421875 234.019921875 1299.6 231.75 1293.93125 233.9439453125 1284.4 236.2 1273.85 238.7 1273.45 238.85 1269.3802734375 240.0705078125 1265.45 242.9 1267.642578125 257.81953125 1267.95 272.75 1268.071484375 278.188671875 1268.1 283.6
L 1268.3 322.3
Q 1268.4494140625 326.55546875 1268.6 334.35 1268.6 337.6 1267.75 346.15 1266.85078125 354.7560546875 1266.5 360.35 1266.3640625 363.094921875 1267.3 365.2 1268.2154296875 367.2232421875 1269.6 368.6
L 1269.7 368.65
Q 1269.7669921875 368.7220703125 1269.8 368.75 1271.37734375 370.16875 1277.3 373.55 1283.2158203125 376.9845703125 1287.1 378.55 1289.1203125 379.390625 1295.1 381.35 1300.83203125 383.2755859375 1310.2 386.25 1329.41875 392.3232421875 1339.8 389.85 1348.2732421875 387.831640625 1351.25 384 1351.930859375 383.1087890625 1352.3 382.1 1354.4271484375 376.889453125 1354.9 372.7 1355.421484375 368.512890625 1356.5 354.2
L 1356.5 354.15
Q 1367.7619140625 359.7498046875 1376.2 360.2 1388.336328125 360.8458984375 1390.45 357.25 1392.6029296875 353.648046875 1392.2 344.45 1391.85546875 335.31484375 1389.35 317.15 1386.8423828125 299.0267578125 1385.75 286.45
M 1319.85 298.3
Q 1320.45 299.85 1321.2 302.95 1321.9 305.8 1322.45 307.05 1322.75 308 1323.7 309 1324.25 309.6 1325.15 310.5 1325.5755859375 311.0232421875 1326.5 311.4 1326.55 312.28671875 1326.55 313.9 1326.55 320.65 1325.25 324.8 1325.0154296875 325.51796875 1324.65 326.35 1324.41171875 326.9091796875 1324.1 327.5 1323.6 328.6 1322.05 330.7 1320.9525390625 330.4005859375 1321.15 324.85
L 1299.45 318.6 1294.4 313
Q 1293.4388671875 312.24140625 1292.75 311.25 1290.7876953125 308.4111328125 1288.7 301.75 1286.6595703125 295.098046875 1289.6 290.95
L 1313.8 291.45
Q 1318.0359375 293.5681640625 1319.85 298.3
M 1311.55 319
Q 1303.4763671875 316.2677734375 1299.1 315.15 1296.251953125 314.4642578125 1294.4 313
L 1299.45 318.6 1321.15 324.85 1321.15 324.8
Q 1315.8935546875 320.3775390625 1311.55 319 Z"/>
</g>
</g>

<g>
<path stroke="#666666" stroke-width="0.1" stroke-linejoin="round" stroke-linecap="round" fill="none" d="
M 1303.75 172.525
L 1325.3 176.8 1330.6 182.6 1330.6 197 1324.225 209.775
M 1336.225 197.75
L 1338 208.05
M 1337.95 247.05
L 1382.35 270.7
M 1309.9 229.975
Q 1310.1982421875 229.9345703125 1310.5 229.875
L 1331.2 226.9 1338 208.05"/>
</g>

<g>
<path stroke="#000000" stroke-width="0.1" stroke-linejoin="round" stroke-linecap="round" fill="none" d="
M 1321.15 324.85
L 1299.45 318.6 1294.425 313.025"/>
</g>

<g>
<path stroke="#000000" stroke-width="1" stroke-linejoin="round" stroke-linecap="round" fill="none" d="
M 1287.8 408.125
Q 1287.7828125 408.0333984375 1287.75 408
M 1295.1 381.375
L 1331 398.6 1341 398.6 1337.8 412.85 1309.3 462.2 1303.5 537.7 1299.4 549.875
M 1273 475.4
L 1287.9 461.5 1314.8 452 1299.1 436.3 1287.8 408.125
M 1287.75 408
L 1280.3 396.05 1273.4 390.4 1227 406.35 1223.4 415.25 1226.7 434.25 1202.95 507.125"/>
</g>
</g>
</g>

<g id="Layer_11">
<g transform="matrix( 1, 0, 0, 1, 0,0) ">
<g>
<g>
<path fill="#FFF1D1" stroke="none" d="
M 1199.45 368.15
L 1210.65 362.3 1217.6 356.3 1229.7 350.6 1221.95 346
Q 1222.0091796875 346.1232421875 1222.05 346.25 1222.2927734375 347.016796875 1222.45 347.65
L 1222.45 347.7
Q 1220.4912109375 348.7951171875 1218.85 349.8 1218.8013671875 349.8673828125 1218.75 349.9 1212.2923828125 353.9537109375 1211 357.4 1209.95 360.1 1199.45 368.15
M 1202 357.7
Q 1202.1 356.95 1202.05 356.5 1202.0037109375 356.221875 1201.9 356 1201.668359375 355.53046875 1201.15 355.35 1197.962109375 356.159375 1192.6 359.25 1185.4056640625 363.34609375 1179.95 364.05
L 1198.6 362.05
Q 1198.9767578125 361.6396484375 1199.4 361.2 1201.9990234375 358.5001953125 1202 357.7
M 1208.65 338.05
L 1193.05 328.75 1116.9 374.15 1251.65 454.4 1327.75 409.05 1229.7 350.6 1217.6 356.3 1210.65 362.3 1199.45 368.15
Q 1198.15 368.15 1197.55 367.75 1196.8 367.25 1196.8 365.95 1196.8 364.2337890625 1198.6 362.05
L 1179.95 364.05
Q 1176.7564453125 364.4654296875 1175.4 362.45 1174.434375 361.01640625 1174.4 358.35 1174.3171875 351.938671875 1183.6 346.3 1192.00078125 341.27265625 1206.4 338.75 1207.387890625 338.57421875 1208.65 338.05 Z"/>

<path fill="#ECCDAB" stroke="none" d="
M 1202.5 361.65
L 1198.6 362.05
Q 1196.8 364.2337890625 1196.8 365.95 1196.8 367.25 1197.55 367.75 1198.15 368.15 1199.45 368.15
L 1202.5 361.65
M 1206.4 338.75
Q 1192.00078125 341.27265625 1183.6 346.3 1174.3171875 351.938671875 1174.4 358.35 1174.434375 361.01640625 1175.4 362.45 1176.7564453125 364.4654296875 1179.95 364.05
L 1218.35 343.85 1179.95 364.05
Q 1185.4056640625 363.34609375 1192.6 359.25 1197.962109375 356.159375 1201.15 355.35 1201.668359375 355.53046875 1201.9 356 1202.0037109375 356.221875 1202.05 356.5 1202.1 356.95 1202 357.7 1201.9990234375 358.5001953125 1199.4 361.2 1198.9767578125 361.6396484375 1198.6 362.05
L 1202.5 361.65 1199.45 368.15
Q 1209.95 360.1 1211 357.4 1212.2923828125 353.9537109375 1218.75 349.9 1218.8013671875 349.8673828125 1218.85 349.8 1220.4912109375 348.7951171875 1222.45 347.7
L 1222.45 347.65
Q 1222.2927734375 347.016796875 1222.05 346.25 1222.0091796875 346.1232421875 1221.95 346 1220.071875 340.7189453125 1210.6 337.2 1209.7634765625 337.6109375 1209 337.9 1208.8474609375 337.9986328125 1208.65 338.05 1207.387890625 338.57421875 1206.4 338.75 Z"/>
</g>
</g>

<g>
<path stroke="#000000" stroke-width="0.1" stroke-linejoin="round" stroke-linecap="round" fill="none" d="
M 1321.15 324.85
L 1299.45 318.6 1294.425 313.025"/>
</g>
</g>
</g>

<g id="Cup">
<g transform="matrix( 1, 0, 0, 1, 0,0) ">
<g>
<g>
<path fill="#FFFFFF" stroke="none" d="
M 309.4 258.5
Q 308.75 260.95 305.6 262.8 301.65 265.05 296.05 265 290.45 265.05 286.55 262.8 283.6 261.05 282.65 258.6
L 284.45 268
Q 285.1 269.2 285.7 269.7 287.15 271.05 289.85 271.95 292.5 272.85 296.7 272.9 300.85 272.95 304.3 271.25 307.75 269.5 307.95 266.2
L 309.4 258.5 Z"/>

<path fill="#DEDEDE" stroke="none" d="
M 282.55 257.25
Q 282.55 258.05 282.65 258.6 283.6 261.05 286.55 262.8 290.45 265.05 296.05 265 301.65 265.05 305.6 262.8 308.75 260.95 309.4 258.5 309.55 257.9 309.55 257.25 309.5 254.05 305.6 251.8 301.65 249.5 296.05 249.5 290.5 249.5 286.55 251.8 282.6 254.05 282.55 257.25 Z"/>
</g>
</g>
</g>
</g>

<g id="Layer_6">
<g transform="matrix( 1, 0, 0, 1, 0,0) ">
<g>
<g>
<path fill="#49332D" stroke="none" d="
M 305.85 261.75
Q 305.15 260.95 303.95 260.3 300.7 258.4 296.1 258.4 291.5 258.4 288.25 260.3 287.1 260.95 286.35 261.7 286.05 262 285.85 262.35 286.15 262.6 286.55 262.8 290.45 265.05 296.05 265 301.65 265.05 305.6 262.8 306 262.55 306.35 262.35 306.15 262.05 305.85 261.75 Z"/>
</g>
</g>
</g>
</g>

<g id="Frame">
<g transform="matrix( 1, 0, 0, 1, 0,0) ">
<g>
<path stroke="#242A47" stroke-width="2" stroke-linejoin="round" stroke-linecap="round" fill="none" d="
M 303.6 161.3
Q 303.85 159.3 306.35 159.3 321.65 159.75 322.1 161.05 322.05 161.75 322 162.4 321.4 168.45 320.85 169.75 320.2 171.2 313.1 170.9 306 170.6 305.05 169.5 304.1 168.35 303.8 165 303.5 161.65 303.6 161.3 299.4 160.5 298.3 160.9 297.6 167.05 296.4 168.05 295.15 169.05 289.25 168.05 283.35 167 282.95 166.55 282.5 166.1 282.2 162.35 281.85 158.55 282.1 156.85 283.35 156.8 289.7 157.4 296.05 157.95 297.05 158.65 298 159.3 298.3 160.9"/>
</g>
</g>
</g>

<g id="Temples">
<g transform="matrix( 1, 0, 0, 1, 0,0) ">
<g>
<path stroke="#242A47" stroke-width="2" stroke-linejoin="round" stroke-linecap="round" fill="none" d="
M 282 158.8
L 286.1 157.45
M 322.05 162.45
L 331.95 159.25"/>
</g>
</g>
</g>

<g id="Screens">
<g transform="matrix( 1, 0, 0, 1, 0,0) ">
<g>
<g>
<path fill="url(#Gradient_6)" stroke="none" d="
M 295.05 307.05
Q 194.9 293.4 117.65 248.85 69.6 220.85 41.35 188.1
L 41.35 341.9
Q 69.6 374.65 117.65 402.65 194.9 447.2 295.05 460.85
L 295.05 307.05 Z"/>

<path fill="url(#Gradient_7)" stroke="none" d="
M 18.25 174.35
L 18.25 154.5
Q 2.05 123.7 1.05 89.25
L 1.05 238.4
Q 1 239.6 1 240.8 1.55 276.5 18.25 308.3
L 18.25 174.35 Z"/>

<path fill="url(#Gradient_8)" stroke="none" d="
M 1 87
Q 1 88.1 1.05 89.25 2.05 123.7 18.25 154.5
L 18.25 174.35
Q 20.9 169.4 24 164.55 27.1 159.6 30.6 154.8
L 30.6 1
Q 1.7 40.55 1 87 Z"/>

<path fill="url(#Gradient_9)" stroke="none" d="
M 394.7 313
Q 359.8 313.3 327.2 310.55
L 327.2 464.35
Q 359.8 467.1 394.7 466.8 538.7 468.1 645.3 417.25
L 645.3 263.45
Q 538.7 314.3 394.7 313 Z"/>
</g>
</g>

<g>
<path stroke="url(#Gradient_10)" stroke-width="2" stroke-linejoin="round" stroke-linecap="round" fill="none" d="
M 645.3 417.25
Q 538.7 468.1 394.7 466.8 359.8 467.1 327.2 464.35
L 327.2 310.55
Q 359.8 313.3 394.7 313 538.7 314.3 645.3 263.45
L 645.3 417.25 645.3 418.45"/>
</g>

<g>
<path stroke="url(#Gradient_11)" stroke-width="2" stroke-linejoin="round" stroke-linecap="round" fill="none" d="
M 1.05 89.25
Q 1 88.1 1 87 1.7 40.55 30.6 1
L 30.6 154.8
Q 27.1 159.6 24 164.55 20.9 169.4 18.25 174.35
L 18.25 308.3
Q 1.55 276.5 1 240.8 1 239.6 1.05 238.4
L 1.05 89.25
Q 2.05 123.7 18.25 154.5
L 18.25 174.35"/>
</g>

<g>
<path stroke="url(#Gradient_12)" stroke-width="2" stroke-linejoin="round" stroke-linecap="round" fill="none" d="
M 117.65 402.65
Q 69.6 374.65 41.35 341.9
L 41.35 188.1
Q 69.6 220.85 117.65 248.85 194.9 293.4 295.05 307.05
L 295.05 460.85
Q 194.9 447.2 117.65 402.65 Z"/>
</g>
</g>
</g>
</svg>
