
<svg xmlns="http://www.w3.org/2000/svg" version="1.1" xmlns:xlink="http://www.w3.org/1999/xlink" preserveAspectRatio="none" x="0px" y="0px" width="1818px" height="1732px" viewBox="0 0 1818 1732">
<defs/>

<g id="Layer_1">
<g transform="matrix( 1, 0, 0, 1, 0,0) ">
<g>
<g>
<path fill="#FFFFFF" fill-opacity="0.4" stroke="none" d="
M 1395.7 137.2
Q 1411.5 85.95 1392.35 0.45 1376.7 -69.7 1379.45 -178.85
L -415.4 -178.85 -415.4 1784.95 5.85 1784.95
Q 58.23515625 1741.018359375 92.5 1604.8 126.8248046875 1468.578515625 161.9 1368.55 196.9763671875 1268.566015625 293.75 1200.2 390.561328125 1131.8439453125 460.85 1101.65 531.15 1071.45 579.1 1040.95 627.1 1010.5 666.6 959.95 711.65 902.35 741.45 834.25 767.4 775.1 783.4 703.45 793.4 658.9 804.3 582.55 814.9 508 824.65 467.85 834.4 427.7 869.55 380 904.7 332.25 963.55 303 1022.35 273.75 1085.2 266.6 1148.1 259.5 1220.4 259 1292.7 258.45 1336.3 223.5 1379.9 188.5 1395.7 137.2 Z"/>
</g>
</g>
</g>
</g>
</svg>
