
<svg xmlns="http://www.w3.org/2000/svg" version="1.1" xmlns:xlink="http://www.w3.org/1999/xlink" preserveAspectRatio="none" x="0px" y="0px" width="646px" height="578px" viewBox="0 0 646 578">
<defs>
<linearGradient id="Gradient_1" gradientUnits="userSpaceOnUse" x1="222.77499999999998" y1="415.05" x2="357.625" y2="415.05" spreadMethod="pad">
<stop  offset="0%" stop-color="#9BA6E3"/>

<stop  offset="100%" stop-color="#6D77BA"/>
</linearGradient>

<linearGradient id="Gradient_2" gradientUnits="userSpaceOnUse" x1="190.85" y1="370.45" x2="297.45" y2="370.45" spreadMethod="pad">
<stop  offset="0%" stop-color="#E2E6FF"/>

<stop  offset="100%" stop-color="#9BA6E3"/>
</linearGradient>

<linearGradient id="Gradient_3" gradientUnits="userSpaceOnUse" x1="41.34999999999998" y1="324.45" x2="295.05" y2="324.45" spreadMethod="pad">
<stop  offset="1.9607843137254901%" stop-color="#E2E6FF" stop-opacity="0.2784313725490196"/>

<stop  offset="100%" stop-color="#F2F4FF" stop-opacity="0.6274509803921569"/>
</linearGradient>

<linearGradient id="Gradient_4" gradientUnits="userSpaceOnUse" x1="0.9749999999999996" y1="198.75" x2="18.225" y2="198.75" spreadMethod="pad">
<stop  offset="1.9607843137254901%" stop-color="#E2E6FF" stop-opacity="0.2784313725490196"/>

<stop  offset="100%" stop-color="#F2F4FF" stop-opacity="0.6274509803921569"/>
</linearGradient>

<linearGradient id="Gradient_5" gradientUnits="userSpaceOnUse" x1="1" y1="87.65" x2="30.6" y2="87.65" spreadMethod="pad">
<stop  offset="1.9607843137254901%" stop-color="#E2E6FF" stop-opacity="0.2784313725490196"/>

<stop  offset="100%" stop-color="#F2F4FF" stop-opacity="0.6274509803921569"/>
</linearGradient>

<linearGradient id="Gradient_6" gradientUnits="userSpaceOnUse" x1="327.2" y1="365.15" x2="645.3" y2="365.15" spreadMethod="pad">
<stop  offset="1.9607843137254901%" stop-color="#E2E6FF" stop-opacity="0.2784313725490196"/>

<stop  offset="100%" stop-color="#F2F4FF" stop-opacity="0.6274509803921569"/>
</linearGradient>
</defs>

<g id="Stool">
<g transform="matrix( 1, 0, 0, 1, 0,0) ">
<g>
<g>
<path fill="url(#Gradient_1)" stroke="none" d="
M 357.65 376.15
Q 357.65 375.9 357.65 375.65 357.1 359.95 337.9 348.95 318.45 337.6 290.9 337.45 290.55 337.45 290.2 337.45 262.5 337.45 242.8 348.95 223.65 359.8 222.85 375.1 222.8 375.45 222.8 375.9
L 222.8 454.05
Q 223.05 470.25 242.8 481.75 262.25 493 290.2 492.7 318.2 493 337.9 481.75 357.6 470.3 357.65 454.15
L 357.65 376.15 Z"/>
</g>
</g>
</g>
</g>

<g id="Layer_1">
<g transform="matrix( 1, 0, 0, 1, 0,0) ">
<g>
<g>
<path fill="#838DC4" stroke="none" d="
M 357.65 376.15
Q 357.65 375.9 357.65 375.65 357.1 359.95 337.9 348.95 318.45 337.6 290.9 337.45 290.55 337.45 290.2 337.45 262.5 337.45 242.8 348.95 223.65 359.8 222.85 375.1 222.8 375.45 222.8 375.9
L 222.8 376.7
Q 223.35 392.55 242.8 403.9 262.25 415.1 290.2 414.85 318.2 415.1 337.9 403.9 356.05 393.3 357.65 376.15 Z"/>
</g>
</g>
</g>
</g>

<g id="Layer_13"/>

<g id="Body">
<g transform="matrix( 1, 0, 0, 1, 0,0) ">
<g>
<g>
<path fill="#5864AA" stroke="none" d="
M 345.5 358.1
Q 342.5 361.95 334.1 363.95 323.65 366.4 304.5 360.35 285.3 354.25 281.4 352.7 277.45 351.1 271.55 347.7 265.65 344.25 264.1 342.9 264 342.8 263.95 342.8
L 263.85 342.7
Q 262.45 341.3 261.55 339.3 261.4 339.65 261 340
L 260.95 340.05
Q 259.05 341.8 242.7 347.6 226.25 352.9 218.15 356.6 209.8 360.35 202.1 364.8 194.4 369.25 191.8 377.05 189.15 384.85 186.35 411.5 183.5 438.15 176.5 471.65 176.75 473.1 177.25 474.25 177.55 474.8 178.65 476.05 180.15 477.75 181.1 478.2 184.9 480.05 190.2 480.8 195.45 481.5 199.3 481.1
L 204.1 480.35
Q 204.1 480.4 204.1 480.45 205.15 480.25 205.85 480.05 210.6 464 219.45 438.95 228.25 413.9 228.1 397.9 231.25 396.25 251.6 389.35 272.5 382.3 276.5 381.75 280.5 381.15 282 382.1 282.35 382.3 281.2 388.7 280 395.75 278.45 399.8 273.1 413.7 270.3 423.05 266.6 435.2 267 446.7 267.15 448.25 267.3 449.9 268.3 463.35 268.65 485.05 269 506.7 269.15 513.5 269.25 520.15 273.85 522.8
L 273.95 522.85
Q 278.6 525.45 289.25 524.65 295.65 524.2 298.8 521.55
L 301.65 517
Q 303.3 510.05 305 485.45 306.7 460.8 306.6 460.3 306.5 459.75 306.8 453.9 307.1 448 307.25 446.5 307.4 444.95 309.2 440.95 310.95 436.9 317.75 426.45 324.5 416 336.1 398.85 347.65 381.7 347.55 373 347.45 364.25 345.5 358.1 Z"/>

<path fill="#9BA6E3" stroke="none" d="
M 374.25 239.85
Q 371.75 235.45 366.15 230.8 361.3 226.8 354.15 222.6 338.85 213.6 335 208.15 335.5 209.05 335.6 209.35 336.05 210.65 335.9 212.65 335.25 220.9 328 223.7 323.05 225.6 318.3 226 313.55 226.4 306.45 225.55 300.5 224.85 296.1 222.3 292.85 220.45 291.25 218.25 288.9 214.95 289.95 211.55 291 208.1 293.85 205.85 288.2 208.05 278.65 210.3 268.1 212.8 267.7 212.95 263.65 214.15 259.7 217 261.9 231.9 262.2 246.85 262.3 252.3 262.4 257.75
L 262.55 296.45
Q 262.7 300.65 262.85 308.45 262.85 311.7 262 320.25 261.1 328.85 260.8 334.45 260.6 337.2 261.55 339.3 262.45 341.3 263.85 342.7
L 263.95 342.8
Q 264 342.8 264.1 342.9 265.65 344.25 271.55 347.7 277.45 351.1 281.4 352.7 285.3 354.25 304.5 360.35 323.65 366.4 334.1 363.95 342.5 361.95 345.5 358.1 346.2 357.2 346.6 356.25 348.7 351 349.2 346.8 349.65 342.6 350.75 328.3 362 333.85 370.45 334.3 382.6 334.95 384.75 331.35 386.85 327.75 386.5 318.6 386.1 309.4 383.6 291.3 381.1 273.15 380.05 260.6 379.3 252.35 377.05 246 375.85 242.65 374.25 239.85
M 293.35 289.3
Q 288.95 288.2 287 285.35 285.05 282.5 283 275.85 280.9 269.2 283.85 265.05
L 308.05 265.55
Q 312.3 267.65 314.1 272.45 314.7 273.95 315.45 277.05 316.15 279.9 316.7 281.15 317 282.1 317.95 283.1 318.5 283.7 319.4 284.6 319.85 285.1 320.75 285.5 320.8 286.4 320.8 288 320.8 294.75 319.5 298.9 319.25 299.6 318.9 300.5 318.65 301 318.4 301.6 317.85 302.7 316.3 304.8 315.2 304.5 315.4 298.95 310.15 294.5 305.8 293.1 297.75 290.35 293.35 289.3 Z"/>

<path fill="#E2E6FF" stroke="none" d="
M 287 285.35
Q 288.95 288.2 293.35 289.3 297.75 290.35 305.8 293.1 310.15 294.5 315.4 298.95 316.85 300.15 318.4 301.6 318.65 301 318.9 300.5 319.25 299.6 319.5 298.9 320.8 294.75 320.8 288 320.8 286.4 320.75 285.5 319.85 285.1 319.4 284.6 318.5 283.7 317.95 283.1 317 282.1 316.7 281.15 316.15 279.9 315.45 277.05 314.7 273.95 314.1 272.45 312.3 267.65 308.05 265.55
L 283.85 265.05
Q 280.9 269.2 283 275.85 285.05 282.5 287 285.35
M 337.4 156.05
Q 335.85 156.1 335 156.8 334.1 157.5 332.35 160.45 331.6 161 330.9 167.8 330.15 174.55 330.2 176.8 330.25 179 330.3 184.5 330.35 189.9 323.9 195.55 317.4 201.1 309.75 203 302.1 204.85 298.9 204.2 295.65 203.55 293.85 202.25
L 293.85 205.85
Q 291 208.1 289.95 211.55 288.9 214.95 291.25 218.25 292.85 220.45 296.1 222.3 300.5 224.85 306.45 225.55 313.55 226.4 318.3 226 323.05 225.6 328 223.7 335.25 220.9 335.9 212.65 336.05 210.65 335.6 209.35 335.5 209.05 335 208.15
L 334.75 207.8
Q 334.35 207.15 334.1 206.45 333.35 204.65 333.1 202.4 332.9 200.6 332.9 193.35
L 332.9 190.4
Q 332.9 189.7 332.9 189.15
L 332.85 186.5
Q 332.85 184.45 333.6 175.05 334.1 175.4 334.95 174.85 335.75 174.25 336.55 171.55 337.35 168.75 338.75 165.4 340.15 162 340.25 160.65 340.3 159.35 339.6 157.65 338.9 155.95 337.4 156.05
M 328.2 159.25
Q 328.4 154 327.65 151.7 326.9 149.35 324 147.9 322.65 147.25 319.6 146.6 316.85 146 314.65 145.95 312.45 145.85 307.2 146.35 301.95 146.85 298.4 146.65 294.85 146.45 293.15 145.85 291.4 145.2 290 144.3 289.4 143.9 288.7 143.45
L 287.4 152.65 286.4 160.1
Q 286.4 161.2 286.8 162.65 287.2 164.05 287.2 165
L 286.75 170.15
Q 286.6 171.5 286.55 172.55 286.5 173.2 286.7 176.3 286.95 179.75 287.25 180.85 288.3 184.3 289.4 183.45 290.45 182.55 296.3 182.7 302.1 182.8 307.2 186.1 312.25 189.35 316.75 185.4 321.25 181.45 323.05 179.2 324.75 176.95 325.7 174.2 326.65 171.4 327.25 169.15 327.9 166.4 328.2 159.25 Z"/>

<path fill="#242A47" stroke="none" d="
M 298.65 536.55
Q 299 532.9 298.8 521.55 295.65 524.2 289.25 524.65 278.6 525.45 273.95 522.85
L 273.85 522.8
Q 275.1 525.9 270.8 534.2 266.45 542.5 264 549.65 261.5 556.8 260.85 564.4 260.15 572 262.9 575.9 265.6 579.8 274.45 576.45 283.25 573.1 288.25 563.75 293.25 554.4 294.45 549 295.6 543.55 296.95 541.9 298.25 540.2 298.65 536.55
M 177.25 474.25
Q 177.15 474.4 177.05 474.6 172.85 481.45 165.1 485.15 160.5 487.35 150.1 490.8 140.55 493.95 137.1 495.9 131.7 498.85 132 502.7 132.25 506.25 142.25 508.75 152.2 511.3 166.5 508.1 180.8 504.75 184.95 506.6 189.05 508.4 200.25 502.75 203.2 496.35 203.65 494.2 205 488.25 204.1 480.45 204.1 480.4 204.1 480.35
L 199.3 481.1
Q 195.45 481.5 190.2 480.8 184.9 480.05 181.1 478.2 180.15 477.75 178.65 476.05 177.55 474.8 177.25 474.25
M 342.2 137.2
Q 340.35 134.5 337.6 132.8 334.8 131.1 331.95 129.75 329.1 128.4 324.6 126.95 320.1 125.45 312.7 123.2 305.25 120.9 298.2 121.7 291.15 122.45 288.25 126.65 285.35 130.8 285 136 284.85 138.35 285.45 141.75
L 287.4 152.65 288.7 143.45
Q 289.4 143.9 290 144.3 291.4 145.2 293.15 145.85 294.85 146.45 298.4 146.65 301.95 146.85 307.2 146.35 312.45 145.85 314.65 145.95 316.85 146 319.6 146.6 322.65 147.25 324 147.9 326.9 149.35 327.65 151.7 328.4 154 328.2 159.25 327.9 166.4 327.25 169.15 326.65 171.4 325.7 174.2 324.75 176.95 323.05 179.2 321.25 181.45 316.75 185.4 312.25 189.35 307.2 186.1 302.1 182.8 296.3 182.7 290.45 182.55 289.4 183.45 288.3 184.3 287.25 180.85 286.95 179.75 286.7 176.3 286.5 173.2 286.55 172.55 286.6 171.5 286.75 170.15 286.45 171.35 286.05 174.6 285.65 177.85 285.7 181.9 285.7 185.95 286.65 190.15 287.6 194.3 288.6 196 289.55 197.7 290.45 199.1 291.3 200.5 293.85 202.25 295.65 203.55 298.9 204.2 302.1 204.85 309.75 203 317.4 201.1 323.9 195.55 330.35 189.9 330.3 184.5 330.25 179 330.2 176.8 330.15 174.55 330.9 167.8 331.6 161 332.35 160.45 334.1 157.5 335 156.8 335.85 156.1 337.4 156.05 338.9 155.95 339.6 157.65 340.3 159.35 340.25 160.65 340.15 162 338.75 165.4 337.35 168.75 336.55 171.55 335.75 174.25 334.95 174.85 334.1 175.4 333.6 175.05 332.85 184.45 332.85 186.5
L 332.9 189.15
Q 332.9 189.7 332.9 190.4 333.2 190.2 334.15 188.5 335.05 186.75 336.55 182.45 338 178.15 338.95 175.25 344.55 157.45 344.3 148.7 344 139.9 342.2 137.2 Z"/>
</g>
</g>
</g>
</g>

<g id="Shadow_under_table">
<g transform="matrix( 1, 0, 0, 1, 0,0) ">
<g>
<g>
<path fill="#414A7F" stroke="none" d="
M 221.25 380.45
L 217.65 389.35 220.95 408.35 197.2 481.25
Q 198.3 481.2 199.3 481.1
L 204.1 480.35
Q 204.1 480.4 204.1 480.45 205.15 480.25 205.85 480.05 210.6 464 219.45 438.95 228.25 413.9 228.1 397.9 231.25 396.25 251.6 389.35 272.5 382.3 276.5 381.75 280.5 381.15 282 382.1
L 274.55 370.15 267.65 364.5 221.25 380.45
M 345.5 358.1
Q 342.8 361.6 335.55 363.6 335.1 380.5 325.05 396.65 324 398.3 323.75 398.85 315.8 389.5 282.05 382.25 282.2 383.05 281.2 388.7 280 395.75 278.45 399.8 273.1 413.7 270.3 423.05 266.6 435.2 267 446.7 267.15 448.1 267.25 449.5 270.2 438.05 282.4 429.5 298.5 421.55 309 426.15 305.85 432.55 300.85 442.55 301.85 464.9 299.4 493.1 296.9 521.2 293.65 524 296.85 523.15 298.8 521.55
L 301.65 517
Q 303.3 510.05 305 485.45 306.7 460.8 306.6 460.3 306.5 459.75 306.8 453.9 307.1 448 307.25 446.5 307.4 444.95 309.2 440.95 310.95 436.9 317.75 426.45 324.5 416 336.1 398.85 347.65 381.7 347.55 373 347.45 364.25 345.5 358.1 Z"/>
</g>
</g>
</g>
</g>

<g id="Table">
<g transform="matrix( 1, 0, 0, 1, 0,0) ">
<g>
<g>
<path fill="#BFC8FF" stroke="none" d="
M 322.05 383.2
L 187.3 302.85 111.15 348.25 245.9 428.55 322.05 383.2 Z"/>

<path fill="#7586E3" stroke="none" d="
M 322.05 388.45
L 322.05 383.2 245.9 428.55 245.9 433.8 322.05 388.45 Z"/>

<path fill="#9BA6E3" stroke="none" d="
M 111.15 348.25
L 111.15 353.5 245.9 433.8 245.9 428.55 111.15 348.25 Z"/>
</g>
</g>
</g>
</g>

<g id="Layer_12">
<g transform="matrix( 1, 0, 0, 1, 0,0) ">
<g>
<g>
<path fill="#DBCBAD" stroke="none" d="
M 191.6 331.45
Q 195.9 329.65 195.4 329.5 192.35 330.2 187.35 333.1 190 332.1 191.6 331.45 Z"/>

<path fill="#9BA6E3" stroke="none" d="
M 205.25 331.5
Q 204.95 332.3 203.75 333.65 203.75 333 193 337.6 182.2 342.15 174.45 344.35 189.9 347.7 200.45 340.55 211 333.35 215.7 330.5
L 229.5 328 216.25 320.1
Q 216.25 320.2 216.3 320.35 216.55 321.1 216.7 321.8 214.75 322.9 213.1 323.95 213.05 323.95 213 324 206.55 328.05 205.25 331.5 Z"/>
</g>
</g>
</g>
</g>

<g id="Layer_5">
<g transform="matrix( 1, 0, 0, 1, 0,0) ">
<g>
<g>
<path fill="#9BA6E3" stroke="none" d="
M 190.85 359.9
L 193.35 363.9 266.9 407.7 297.45 383.75 190.85 359.9 Z"/>
</g>
</g>
</g>
</g>

<g id="Keyboard">
<g transform="matrix( 1, 0, 0, 1, 0,0) ">
<g>
<g>
<path fill="#7586E3" stroke="none" d="
M 264.4 400.8
L 264.4 403.7 297.45 383.75 264.4 400.8 Z"/>

<path fill="url(#Gradient_2)" stroke="none" d="
M 224.15 340.1
L 190.85 357 264.4 400.8 297.45 383.75 224.15 340.1 Z"/>

<path fill="#E2E6FF" stroke="none" d="
M 190.85 357
L 190.85 359.9 264.4 403.7 264.4 400.8 190.85 357 Z"/>
</g>
</g>
</g>
</g>

<g id="Layer_3">
<g transform="matrix( 1, 0, 0, 1, 0,0) ">
<g>
<g>
<path fill="#FFFFFF" fill-opacity="0.6" stroke="none" d="
M 224 344.65
L 199.15 357.3 264.55 396.25 289.5 383.65 224 344.65 Z"/>
</g>
</g>
</g>
</g>

<g id="Mouse">
<g transform="matrix( 1, 0, 0, 1, 0,0) ">
<g>
<g>
<path fill="#7586E3" stroke="none" d="
M 169.7 341.05
Q 171.85 344.7 177.8 344.7 183.65 344.7 189.9 341.05 196.25 337.45 199.25 332.35 202.15 327.15 200.05 323.5 197.9 319.95 192.1 320 186.15 319.95 179.85 323.6 173.6 327.2 170.65 332.35 167.65 337.45 169.7 341.05 Z"/>
</g>
</g>
</g>
</g>

<g id="Layer_8">
<g transform="matrix( 1, 0, 0, 1, 0,0) ">
<g>
<g>
<path fill="#E2E6FF" stroke="none" d="
M 186.75 335.85
Q 190.85 329.4 194.35 328.25 197.85 327.1 196.25 324.15 194.65 321.2 189.6 321.25 184.3 321.2 178.75 324.45 173.25 327.6 170.65 332.1 168 336.65 169.8 339.8 171.7 343.05 177.2 342.65 182.65 342.25 186.75 335.85 Z"/>
</g>
</g>
</g>
</g>

<g id="Shadow_bg">
<g transform="matrix( 1, 0, 0, 1, 0,0) ">
<g>
<g>
<path fill="#7586E3" stroke="none" d="
M 216.7 326.05
Q 219.75 322.4 214.15 315 208.55 307.55 202.4 311.7 212.85 327.3 216.7 326.05 Z"/>
</g>
</g>
</g>
</g>

<g id="Arm">
<g transform="matrix( 1, 0, 0, 1, 0,0) ">
<g>
<g>
<path fill="#E2E6FF" stroke="none" d="
M 216.3 320.35
Q 214.55 314.9 204.85 311.3 202.3 312.55 200.7 312.85 186.25 315.35 177.9 320.45 168.55 326.05 168.65 332.45 168.75 338.85 174.2 338.15 179.65 337.45 186.85 333.35 192.2 330.25 195.4 329.5 196.15 329.7 196.3 330.6 196.35 331.05 196.25 331.85 196.25 332.6 193.65 335.3 191.05 338 191.05 340.05 191.05 341.35 191.8 341.85 192.4 342.25 193.7 342.25 204.2 334.2 205.25 331.5 206.55 328.05 213 324 213.05 323.95 213.1 323.95 214.75 322.9 216.7 321.8 216.55 321.1 216.3 320.35 Z"/>

<path fill="#3F8BD1" stroke="none" d="
M 262.15 284.25
Q 262.5 271 262.4 257.75 261.85 269 262.15 284.25 Z"/>

<path fill="#9BA6E3" stroke="none" d="
M 262.2 246.85
Q 261.9 231.9 259.7 217 259.4 217.2 259.1 217.45 258.75 217.7 258.35 218 257.15 218.95 256 220.05 252.05 223.7 250.1 230.15 249.25 233.05 248.75 236.5 247.2 247.7 247.05 260.05 246.8 272.35 240 281.25 238.05 283.7 234.15 287.15 233.6 287.55 228.7 292.05 223.8 296.55 213.35 303.8 204.7537109375 309.7779296875 202.5 311.65 203.3025390625 311.009765625 204.85 311.3 214.55 314.9 216.3 320.35 216.55 321.1 216.7 321.8 217.1 323.35 217.05 324.6 216.95 325.4 216.7 326.05 229.8 320.45 245.15 311.55 245.35 311.45 245.5 311.35 249.9 308.8 253.15 306.35 256.2 304 258.25 301.75 258.7 301.2 259.1 300.7 260.95 298.4 261.75 296.15 262 290.2 262.15 284.25 261.85 269 262.4 257.75 262.3 252.3 262.2 246.85 Z"/>
</g>
</g>
</g>
</g>

<g id="Body_shadow">
<g transform="matrix( 1, 0, 0, 1, 0,0) ">
<g>
<g>
<path fill="#BFC8FF" stroke="none" d="
M 169.65 336.55
Q 171 338.55 174.2 338.15 179.65 337.45 186.85 333.35 192.2 330.25 195.4 329.5 195.8 329.6 196.05 329.9
L 194.85 328
Q 193.6 326 188.55 330.45 183.5 334.8 177.2 336.45 170.9 338.05 169.65 336.55
M 216.3 320.35
Q 214.55 314.9 204.85 311.3 204 311.7 202.65 312.3 207.8 312.4 210.4 316.3 212.95 320.2 209.95 322.15 206.95 324.1 205.15 326.7 203.35 329.25 201.3 332.95 199.25 336.6 196 338.75 192.75 340.9 193.7 342.25 204.2 334.2 205.25 331.5 206.55 328.05 213 324 213.05 323.95 213.1 323.95 214.75 322.9 216.7 321.8 216.55 321.1 216.3 320.35
M 308.3 271.1
Q 308.55 268.7 307.95 266.2
L 303.65 271.55 287 270.65
Q 289.5 273 295 274.2 300.5 275.4 304.25 274.45 308 273.45 308.3 271.1
M 319.4 284.6
Q 318.5 283.7 317.95 283.1 317 282.1 316.7 281.15 316.15 279.9 315.45 277.05 314.7 273.95 314.1 272.45 312.3 267.65 308.05 265.55 313.4 269.7 314 283.75
L 320.8 289.2 320.8 288
Q 320.8 286.4 320.75 285.5 319.85 285.1 319.4 284.6
M 333.6 175.05
L 332.7 174.4
Q 332.25 177.45 331.95 180.3
L 330.5 171.85
Q 330.15 175.3 330.2 176.8 330.25 179 330.35 183.3 330.4 187.55 328.55 190.35 326.45 193.3 323.9 195.55 317.4 201.1 309.75 203 307.3 203.55 300.75 204.4 315.55 205.15 322.15 201.1 328.15 197.4 328.4 196.35 328.7 204 330.6 210.75 332.55 217.7 332.2 221.15 332.6 220.75 332.95 220.35
L 333.65 219.5
Q 335.6 216.75 335.9 212.65 336.05 210.65 335.6 209.35 335.5 209.05 335 208.15
L 334.75 207.8
Q 334.35 207.15 334.1 206.45 333.35 204.65 333.1 202.4 332.9 200.6 332.9 193.35
L 332.9 190.4
Q 332.9 189.7 332.9 189.15
L 333.6 175.05
M 327.25 169.15
Q 327.9 166.4 328.2 159.25 328.4 154 327.65 151.7 326.9 149.35 324 147.9 322.65 147.25 319.6 146.6 316.85 146 314.65 145.95 312.45 145.85 307.2 146.35 305.55 146.5 304.05 146.6 320.6 146.05 324.05 150.45 327.6 155 325.1 167.45 322.55 179.85 319 183.4 321.75 180.85 323.05 179.2 324.75 176.95 325.7 174.2 326.65 171.4 327.25 169.15 Z"/>

<path fill="#7586E3" stroke="none" d="
M 258.4 293.5
Q 258.35 294.3 256.95 296.65 252.55 303.75 220.55 322.55 218.8 323.55 217 324.6
L 217.05 324.6
Q 216.95 325.4 216.7 326.05
L 221.5 324.1
Q 221.65 324.05 221.8 324 222.15 323.85 222.55 323.7 229.6 320.6 245.15 311.55 245.35 311.45 245.5 311.35 249.9 308.8 253.15 306.35 256.2 304 258.25 301.75 258.7 301.2 259.1 300.7 260.95 298.4 261.75 296.15 262.15 295.05 262.4 294.15 262.6 293.2 262.65 290.65 262.6 288.1 262.55 278.35 262.5 268.55 262.7 257.6 262.85 246.6 264.1 239.3 258.45 255.3 258.4 293.5
M 320.4 282.15
Q 319.65 283.75 319.4 284.6 319.85 285.1 320.75 285.5 320.75 284.75 320.4 282.15
M 344.15 264.5
L 345.65 287.5 320.4 282.15
Q 320.85 282.3 321.45 282.55
L 321.5 282.55
Q 324.65 283.75 331.15 286.45 339.9 290.1 344.8 291.55 345.4 291.7 345.95 291.9 348.2 292.6 350.3 293.35 357.6 295.95 363.3 299.4 365.45 300.7 371.85 305.55 361.7 294.75 349.85 288.9 349.45 286.05 348.85 283.9 347.85 280.1 344.15 264.5
M 315.4 298.95
Q 315.2 304.5 316.3 304.8 317.85 302.7 318.4 301.6 316.85 300.15 315.4 298.95
M 293.35 289.3
Q 290.5 288.55 288.7 287.15 290.5 291.4 295.75 294.75 300.95 298.1 315.4 298.95 310.15 294.5 305.8 293.1 297.75 290.35 293.35 289.3
M 374.25 239.85
Q 374 239.4 372.25 236.75 370.4 234.05 363.45 228.55 356.45 223 347.65 218.3 338.85 213.6 335 208.15 335.5 209.05 335.6 209.35 336.05 210.65 335.9 212.65 335.6 216.75 333.65 219.5
L 332.95 220.35
Q 332.6 220.75 332.2 221.15 359.05 230.55 365.6 236.85 372.15 243.1 375.05 255.95 377.95 268.8 383.55 328.25 371.1 333.55 316.3 304.8 332.5 319.1 345.25 328.8 343.85 351 335.55 363.6 341.7095703125 362.2283203125 344.1 359.85 346.4927734375 357.4662109375 347.6 354.2 348.70234375 350.99453125 349.2 346.8 349.65 342.6 350.75 328.3 362 333.85 370.45 334.3 382.6 334.95 384.75 331.35 386.85 327.75 386.5 318.6 386.1 309.4 383.6 291.3 381.1 273.15 380.05 260.6 379.3 252.35 377.05 246 375.85 242.65 374.25 239.85 Z"/>
</g>
</g>
</g>
</g>

<g id="Cup">
<g transform="matrix( 1, 0, 0, 1, 0,0) ">
<g>
<g>
<path fill="#FFFFFF" stroke="none" d="
M 309.4 258.5
Q 308.75 260.95 305.6 262.8 301.65 265.05 296.05 265 290.45 265.05 286.55 262.8 283.6 261.05 282.65 258.6
L 284.45 268
Q 285.1 269.2 285.7 269.7 287.15 271.05 289.85 271.95 292.5 272.85 296.7 272.9 300.85 272.95 304.3 271.25 307.75 269.5 307.95 266.2
L 309.4 258.5 Z"/>

<path fill="#BFC8FF" stroke="none" d="
M 282.55 257.25
Q 282.55 258.05 282.65 258.6 283.6 261.05 286.55 262.8 290.45 265.05 296.05 265 301.65 265.05 305.6 262.8 308.75 260.95 309.4 258.5 309.55 257.9 309.55 257.25 309.5 254.05 305.6 251.8 301.65 249.5 296.05 249.5 290.5 249.5 286.55 251.8 282.6 254.05 282.55 257.25 Z"/>
</g>
</g>
</g>
</g>

<g id="Layer_6">
<g transform="matrix( 1, 0, 0, 1, 0,0) ">
<g>
<g>
<path fill="#7586E3" stroke="none" d="
M 305.85 261.75
Q 305.15 260.95 303.95 260.3 300.7 258.4 296.1 258.4 291.5 258.4 288.25 260.3 287.1 260.95 286.35 261.7 286.05 262 285.85 262.35 286.15 262.6 286.55 262.8 290.45 265.05 296.05 265 301.65 265.05 305.6 262.8 306 262.55 306.35 262.35 306.15 262.05 305.85 261.75 Z"/>
</g>
</g>
</g>
</g>

<g id="Frame">
<g transform="matrix( 1, 0, 0, 1, 0,0) ">
<g>
<path stroke="#242A47" stroke-width="2" stroke-linejoin="round" stroke-linecap="round" fill="none" d="
M 303.6 161.3
Q 303.85 159.3 306.35 159.3 321.65 159.75 322.1 161.05 322.05 161.75 322 162.4 321.4 168.45 320.85 169.75 320.2 171.2 313.1 170.9 306 170.6 305.05 169.5 304.1 168.35 303.8 165 303.5 161.65 303.6 161.3 299.4 160.5 298.3 160.9 297.6 167.05 296.4 168.05 295.15 169.05 289.25 168.05 283.35 167 282.95 166.55 282.5 166.1 282.2 162.35 281.85 158.55 282.1 156.85 283.35 156.8 289.7 157.4 296.05 157.95 297.05 158.65 298 159.3 298.3 160.9"/>
</g>
</g>
</g>

<g id="Temples">
<g transform="matrix( 1, 0, 0, 1, 0,0) ">
<g>
<path stroke="#242A47" stroke-width="2" stroke-linejoin="round" stroke-linecap="round" fill="none" d="
M 282 158.8
L 286.1 157.45
M 322.05 162.45
L 331.95 159.25"/>
</g>
</g>
</g>

<g id="Screens">
<g transform="matrix( 1, 0, 0, 1, 0,0) ">
<g>
<g>
<path fill="url(#Gradient_3)" stroke="none" d="
M 295.05 307.05
Q 194.9 293.4 117.65 248.85 69.6 220.85 41.35 188.1
L 41.35 341.9
Q 69.6 374.65 117.65 402.65 194.9 447.2 295.05 460.85
L 295.05 307.05 Z"/>

<path fill="url(#Gradient_4)" stroke="none" d="
M 18.25 174.35
L 18.25 154.5
Q 2.05 123.7 1.05 89.25
L 1.05 238.4
Q 1 239.6 1 240.8 1.55 276.5 18.25 308.3
L 18.25 174.35 Z"/>

<path fill="url(#Gradient_5)" stroke="none" d="
M 1 87
Q 1 88.1 1.05 89.25 2.05 123.7 18.25 154.5
L 18.25 174.35
Q 20.9 169.4 24 164.55 27.1 159.6 30.6 154.8
L 30.6 1
Q 1.7 40.55 1 87 Z"/>

<path fill="url(#Gradient_6)" stroke="none" d="
M 394.7 313
Q 359.8 313.3 327.2 310.55
L 327.2 464.35
Q 359.8 467.1 394.7 466.8 538.7 468.1 645.3 417.25
L 645.3 263.45
Q 538.7 314.3 394.7 313 Z"/>
</g>
</g>

<g>
<path stroke="#FFFFFF" stroke-width="2" stroke-linejoin="round" stroke-linecap="round" fill="none" d="
M 645.3 417.25
Q 538.7 468.1 394.7 466.8 359.8 467.1 327.2 464.35
L 327.2 310.55
Q 359.8 313.3 394.7 313 538.7 314.3 645.3 263.45
L 645.3 417.25 645.3 418.45
M 1.05 89.25
Q 1 88.1 1 87 1.7 40.55 30.6 1
L 30.6 154.8
Q 27.1 159.6 24 164.55 20.9 169.4 18.25 174.35
L 18.25 308.3
Q 1.55 276.5 1 240.8 1 239.6 1.05 238.4
L 1.05 89.25
Q 2.05 123.7 18.25 154.5
L 18.25 174.35
M 117.65 402.65
Q 69.6 374.65 41.35 341.9
L 41.35 188.1
Q 69.6 220.85 117.65 248.85 194.9 293.4 295.05 307.05
L 295.05 460.85
Q 194.9 447.2 117.65 402.65 Z"/>
</g>
</g>
</g>
</svg>
