<svg xmlns="http://www.w3.org/2000/svg" preserveAspectRatio="none" width="647" height="600"><defs><linearGradient id="a" gradientUnits="userSpaceOnUse" x1="265.9" y1="562.2" x2="403.3" y2="525.3" spreadMethod="pad"><stop offset="2%" stop-opacity=".1"/><stop offset="100%" stop-opacity="0"/></linearGradient><linearGradient id="b" gradientUnits="userSpaceOnUse" x1="146.4" y1="515.9" x2="259.5" y2="485.6" spreadMethod="pad"><stop offset="2%" stop-opacity=".1"/><stop offset="100%" stop-opacity="0"/></linearGradient><linearGradient id="c" gradientUnits="userSpaceOnUse" x1="306.7" y1="483.2" x2="448" y2="430.9" spreadMethod="pad"><stop offset="0%" stop-opacity=".1"/><stop offset="100%" stop-opacity="0"/></linearGradient><linearGradient id="d" gradientUnits="userSpaceOnUse" x1="222.8" y1="415.1" x2="357.6" y2="415.1" spreadMethod="pad"><stop offset="0%" stop-color="#FFE7BF"/><stop offset="100%" stop-color="#A58E66"/></linearGradient><linearGradient id="e" gradientUnits="userSpaceOnUse" x1="190.8" y1="370.4" x2="297.4" y2="370.4" spreadMethod="pad"><stop offset="0%" stop-color="#D6D6D6"/><stop offset="100%" stop-color="#B2B2B2"/></linearGradient><linearGradient id="f" gradientUnits="userSpaceOnUse" x1="267.6" y1="436.4" x2="83.5" y2="229.1" spreadMethod="pad"><stop offset="2%" stop-color="#FFF" stop-opacity=".3"/><stop offset="100%" stop-color="#FFF" stop-opacity=".8"/></linearGradient><linearGradient id="g" gradientUnits="userSpaceOnUse" x1="18.6" y1="289.2" x2="1.1" y2="116.8" spreadMethod="pad"><stop offset="2%" stop-color="#FFF" stop-opacity=".3"/><stop offset="100%" stop-color="#FFF" stop-opacity=".8"/></linearGradient><linearGradient id="h" gradientUnits="userSpaceOnUse" x1="13.6" y1="156.5" x2="21.6" y2="17.9" spreadMethod="pad"><stop offset="2%" stop-color="#FFF" stop-opacity=".3"/><stop offset="100%" stop-color="#FFF" stop-opacity=".8"/></linearGradient><linearGradient id="i" gradientUnits="userSpaceOnUse" x1="555.1" y1="274.5" x2="398.7" y2="477.6" spreadMethod="pad"><stop offset="2%" stop-color="#FFF" stop-opacity="0"/><stop offset="100%" stop-color="#FFF" stop-opacity=".8"/></linearGradient><linearGradient id="j" gradientUnits="userSpaceOnUse" x1="326.1" y1="241.8" x2="629.9" y2="241.8" spreadMethod="pad"><stop offset="0%" stop-color="#FFF" stop-opacity=".8"/><stop offset="100%" stop-color="#FFF" stop-opacity="0"/></linearGradient><linearGradient id="k" gradientUnits="userSpaceOnUse" x1="-84.9" y1="201.3" x2="124.9" y2="201.3" spreadMethod="pad"><stop offset="2%" stop-color="#FFF" stop-opacity="0"/><stop offset="100%" stop-color="#FFF" stop-opacity=".8"/></linearGradient><linearGradient id="l" gradientUnits="userSpaceOnUse" x1="-9.7" y1="337.3" x2="175.8" y2="151.9" spreadMethod="pad"><stop offset="2%" stop-color="#FFF" stop-opacity="0"/><stop offset="100%" stop-color="#FFF" stop-opacity=".8"/></linearGradient></defs><path fill="url(#a)" d="M266.4 577.9q15.7 1.8 53.7-32.2l137.9-2.9-20.3-47.5-138.8 34-32.5 48.6z"/><path fill="url(#b)" d="M163.2 512.8q31.7 4 53.6 1l57 9-10.8-37.1-130.9 17.6q-.5 5.6 31.1 9.5z"/><path fill="url(#c)" d="M314.5 431.6l-13.3 60.8 206.9-12.1-38.4-79.8-155.2 31.1z"/><path fill="url(#d)" d="M357.6 375.6Q357.1 360 338 349q-19.4-11.3-47-11.4h-.7q-27.7 0-47.4 11.4-19.2 10.9-20 26.2v79q.3 16.1 20 27.6 19.4 11.3 47.4 11 5.1 0 10-.3 7-.5 13.4-1.8 13.4-2.6 24.3-8.9 19.7-11.4 19.8-27.6v-78-.5z"/><path fill="#838DC4" d="M357.6 376.1v-.5Q357.1 360 338 349q-19.4-11.3-47-11.4h-.7q-27.7 0-47.4 11.4-19.2 10.9-20 26.2v1.6q.5 15.9 20 27.2 19.4 11.2 47.4 11 28 .2 47.7-11 18.2-10.6 19.8-27.8z"/><path fill="#E8D4B6" d="M357.6 376.1v-.5Q357.1 360 338 349q-19.4-11.3-47-11.4h-.7q-27.7 0-47.4 11.4-19.2 10.9-20 26.2v1.6q.5 15.9 20 27.2 19.4 11.2 47.4 11 28 .2 47.7-11 18.2-10.6 19.8-27.8z"/><path fill="#E4D6CA" d="M287 285.4q2 2.8 6.4 3.9 4.4 1 12.4 3.8 4.3 1.4 9.6 5.8l3 2.7.5-1.1.6-1.6q1.3-4.1 1.3-10.9v-2.5q-1-.4-1.4-.9l-1.4-1.5q-1-1-1.3-2-.6-1.2-1.3-4-.7-3.2-1.3-4.7-1.8-4.8-6-6.8l-24.3-.6q-2.9 4.2-.8 10.9 2 6.6 4 9.5m41.2-126.1q.2-5.3-.6-7.6-.7-2.3-3.6-3.8-1.4-.7-4.4-1.3-2.8-.6-5-.7-2.2 0-7.4.4-5.3.5-8.8.3-3.5-.2-5.3-.8-1.7-.6-3.1-1.5l-1.3-.9-1.3 9.3-1 7.4q0 1.1.4 2.6.4 1.4.4 2.3l-.4 5.2-.3 2.4.2 3.7q.3 3.4.6 4.5 1 3.5 2.1 2.6 1-.8 6.9-.7 5.8.1 10.9 3.4 5 3.3 9.6-.7 4.4-4 6.3-6.2 1.6-2.3 2.6-5l1.6-5q.6-2.8.9-10m12 1.5q.1-1.3-.6-3-.7-1.8-2.2-1.6-1.5 0-2.4.7-.9.7-2.6 3.6-.8.6-1.5 7.4-.8 6.8-.7 9l.1 7.7q0 5.4-6.4 11-6.5 5.6-14.1 7.5-7.7 1.8-10.9 1.2-3.3-.6-5-2v3.7q-2.9 2.2-4 5.7-1 3.3 1.4 6.7 1.6 2.1 4.8 4 4.4 2.5 10.3 3.3 7.2.8 11.9.4 4.8-.4 9.7-2.3 7.3-2.8 7.9-11 .2-2-.3-3.3l-.6-1.3-.3-.3-.6-1.4q-.8-1.8-1-4-.2-1.8-.2-9v-3V186.5q0-2 .7-11.4.5.3 1.3-.3.9-.6 1.7-3.3.8-2.8 2.1-6.1 1.4-3.4 1.6-4.8z"/><path fill="#242A47" d="M298.8 521.5q-3.2 2.7-9.6 3.1-10.6.9-15.3-1.8 1.2 3.1-3.1 11.4-4.4 8.3-6.8 15.4-2.5 7.2-3.1 14.8-.8 7.6 2 11.5 2.7 3.9 11.6.6 8.8-3.4 13.8-12.8 5-9.3 6.1-14.7 1.2-5.5 2.6-7.1 1.3-1.7 1.6-5.4.4-3.6.2-15m-120.2-45.4l-1.3-1.9-.3.4q-4.2 6.8-11.9 10.5-4.6 2.3-15 5.7-9.5 3.1-13 5.1-5.4 3-5.1 6.8.3 3.6 10.3 6 9.9 2.6 24.2-.6 14.3-3.4 18.4-1.5 4.2 1.8 15.3-3.9 3-6.3 3.5-8.5 1.3-6 .4-13.8l-4.8.7q-3.9.4-9.1-.3-5.3-.8-9.1-2.6-1-.4-2.4-2.1M332 129.7q-2.9-1.3-7.4-2.7l-11.9-3.8q-7.4-2.3-14.5-1.5-7 .8-10 5-2.8 4.1-3.2 9.3-.1 2.3.4 5.8l2 10.8 1.3-9.2 1.3.9q1.4.9 3.1 1.5 1.8.6 5.3.8 3.6.3 8.8-.3 5.3-.5 7.4-.4 2.3.1 5 .7 3 .7 4.4 1.3 2.9 1.4 3.6 3.8.8 2.3.6 7.6-.3 7.1-1 9.8l-1.5 5.1q-1 2.8-2.6 5-1.9 2.3-6.4 6.2-4.4 4-9.5.7t-10.9-3.4q-5.9-.1-6.9.8-1.1.8-2.1-2.7-.4-1-.6-4.5-.2-3.1-.1-3.8l.1-2.3q-.3 1.2-.6 4.4-.5 3.3-.4 7.3 0 4 1 8.3.9 4.1 1.9 5.8l1.8 3.1q.9 1.4 3.5 3.2 1.8 1.3 5 1.9 3.2.7 10.9-1.2 7.6-1.9 14.1-7.4 6.5-5.7 6.4-11.1l-.1-7.7q0-2.3.7-9 .7-6.8 1.5-7.4 1.7-2.9 2.6-3.6.9-.7 2.4-.8 1.5 0 2.2 1.7.7 1.7.6 3 0 1.3-1.4 4.7-1.4 3.3-2.3 6.2-.8 2.7-1.6 3.3-.8.5-1.3.2-.8 9.3-.8 11.4l.1 2.7v1.2q.3-.2 1.3-1.9.9-1.8 2.4-6l2.3-7.3q5.7-17.8 5.4-26.5-.3-8.8-2.1-11.5-1.8-2.7-4.6-4.4-2.8-1.7-5.7-3z"/><path fill="#4B4F67" d="M347.6 373q-.2-8.8-2.1-14.9-3 3.8-11.4 5.8-10.5 2.5-29.6-3.5-19.2-6.1-23.1-7.7-4-1.6-9.8-5-6-3.4-7.5-4.8l-.2-.1v-.1q-1.4-1.4-2.3-3.4l-.6.7q-2 1.8-18.3 7.6-16.4 5.3-24.5 9-8.4 3.8-16.1 8.2-7.7 4.4-10.3 12.3-2.7 7.8-5.5 34.4-2.8 26.6-9.8 60.1.3 1.5.8 2.6l1.3 1.9q1.6 1.6 2.5 2.1 3.8 1.9 9.1 2.6 5.3.7 9.1.3l4.8-.8v.1l1.8-.3q4.7-16.1 13.5-41.2 8.8-25 8.7-41 3.2-1.6 23.5-8.5 20.9-7.1 24.9-7.6 4-.7 5.5.3.4.2-.8 6.6-1.2 7-2.8 11.1-5.3 13.9-8.1 23.3-3.7 12.1-3.3 23.6l.3 3.2q1 13.5 1.3 35.2l.5 28.4q.1 6.6 4.8 9.3 4.7 2.7 15.4 1.9 6.3-.5 9.5-3.2l2.8-4.5q.3-.8.4-2 1.5-8 3-29.6l1-13.9q.7-10.9.6-11.2-.1-.6.2-6.4l.4-7.4q.2-1.6 2-5.6 1.8-4 8.6-14.4 6.7-10.5 18.3-27.6 11.5-17.2 11.4-25.9z"/><path fill="#34374A" d="M221.3 380.4l-3.7 9 3.3 19-23.7 72.9 2.1-.2 4.8-.8v.1l1.8-.3q4.7-16.1 13.5-41.2 8.8-25 8.7-41 3.2-1.6 23.5-8.5 20.9-7.1 24.9-7.6 4-.7 5.5.3l-7.4-12-7-5.6-46.4 16m126.4-7.5q-.2-8.8-2.1-14.9-2.7 3.5-10 5.5-.4 16.9-10.4 33l-1.4 2.3q-7.9-9.4-41.6-16.6.1.8-.9 6.4-1.2 7-2.8 11.1-5.3 13.9-8.1 23.3-3.7 12.1-3.3 23.6l.3 2.8q1.5-11.9 15.7-20.1 14.2-8.2 26-3.3l-8.1 16.4q.6 13.5-.1 29-.2 5.8-.7 11.9l-.7 9.7q-2.5 28.1-5.8 30.9 3.3-.9 5.2-2.5l2.8-4.5q.3-.8.4-2 1.5-8 3-29.6l1-13.9q.7-10.9.6-11.2-.1-.6.2-6.4l.4-7.4q.2-1.6 2-5.6 1.8-4 8.6-14.4 6.7-10.5 18.3-27.6 11.5-17.2 11.4-25.9z"/><path fill="#F2F2F2" d="M322 383.2l-134.7-80.3-76.2 45.4L246 428.6l76.2-45.4z"/><path fill="#BABABA" d="M322 388.4v-5.2L246 428.6v5.2l76.2-45.4z"/><path fill="#E0E0E0" d="M111.2 348.3v5.2l134.7 80.3v-5.3l-134.8-80.3z"/><path fill="#DBCBAD" d="M195.4 329.5q-3 .7-8 3.6l4.2-1.7q4.3-1.8 3.8-1.9z"/><path fill="#E0E0E0" d="M215.7 330.5l13.8-2.5-13.3-7.9.1.3.4 1.4-3.6 2.1-.1.1q-6.4 4-7.8 7.5-.3.8-1.4 2.1 0-.6-10.8 4-10.8 4.5-18.6 6.8 15.5 3.3 26-3.8 10.6-7.3 15.3-10.1z"/><path fill="#9BA6E3" d="M377 246q-1.1-3.3-2.8-6.2-2.4-4.4-8-9-4.9-4-12-8.2-15.3-9-19.2-14.4l.6 1.2q.4 1.3.3 3.3-.6 8.2-7.9 11-5 1.9-9.7 2.3-4.8.4-11.9-.4-5.9-.8-10.3-3.3-3.3-1.9-4.9-4-2.3-3.4-1.3-6.8 1.1-3.4 4-5.7-5.7 2.3-15.3 4.5l-10.9 2.6q-4 1.3-8 4.1l-.6.4-.8.6-2.3 2q-4 3.7-5.9 10.2-.8 2.9-1.3 6.3-1.6 11.2-1.8 23.6-.2 12.3-7 21.1-2 2.5-5.8 6-.6.4-5.5 4.9-4.9 4.4-15.3 11.7-8.6 6-10.9 7.8.8-.6 2.3-.3 9.8 3.6 11.5 9l.4 1.5q.4 1.6.4 2.8l-.4 1.4q13.1-5.6 28.5-14.4l.3-.3q4.4-2.5 7.7-5 3-2.3 5-4.6l.9-1q1.8-2.3 2.6-4.6.3-5.9.4-11.9-.3-15.2.3-26.4l.2 38.6.3 12q0 3.3-.9 11.9-.9 8.6-1.2 14.1-.2 2.8.8 4.9.8 2 2.3 3.4v.1l.2.1q1.5 1.4 7.4 4.8 6 3.4 9.9 5 3.9 1.6 23.1 7.7 19.1 6 29.6 3.6 8.4-2 11.4-5.9.7-.9 1.1-1.9 2.1-5.2 2.6-9.4l1.6-18.5q11.2 5.6 19.6 6 12.2.6 14.4-3 2-3.6 1.7-12.7-.4-9.2-2.9-27.3-2.5-18.2-3.6-30.7-.7-8.3-3-14.6m-83.6 43.3q-4.4-1.1-6.4-4-2-2.8-4-9.4-2.1-6.7.9-10.8l24.2.4q4.2 2.1 6 7 .6 1.4 1.3 4.6.8 2.8 1.3 4 .3 1 1.3 2l1.4 1.5q.5.5 1.4.9v2.5q0 6.8-1.3 10.9l-.6 1.6-.5 1.1q-.5 1.1-2.1 3.2-1.1-.3-.9-5.9-5.3-4.4-9.6-5.8-8-2.8-12.4-3.8z"/><path fill="#E0E0E0" d="M190.8 359.9l2.5 4 73.6 43.8 30.6-24L190.8 360z"/><path fill="#8C8C8C" d="M264.4 400.8v2.9l33-20-33 17.1z"/><path fill="url(#e)" d="M224.2 340.1L190.9 357l73.5 43.8 33-17-73.2-43.7z"/><path fill="#E2E2E2" d="M190.8 357v2.9l73.6 43.8v-2.9L190.9 357z"/><path fill="#FFF" fill-opacity=".6" d="M224 344.6l-24.8 12.7 65.4 39 24.9-12.7-65.5-39z"/><path fill="#8C8C8C" d="M199.3 332.4q2.8-5.3.8-8.9-2.2-3.6-8-3.5-6 0-12.3 3.6-6.2 3.6-9.2 8.8-3 5-.9 8.7 2.2 3.6 8.1 3.6 5.8 0 12.1-3.6 6.3-3.7 9.3-8.8z"/><path fill="#BABABA" d="M194.3 328.3q3.5-1.2 2-4.2-1.7-2.9-6.7-2.9-5.3 0-10.8 3.3-5.6 3.1-8.2 7.6-2.6 4.5-.8 7.7 1.9 3.3 7.4 2.8 5.5-.4 9.6-6.8 4-6.4 7.5-7.6z"/><path fill="#7586E3" d="M216.7 326q3-3.6-2.5-11-5.6-7.4-11.8-3.3 10.4 15.6 14.3 14.4z"/><path fill="#E4D6CA" d="M205.3 331.5q1.3-3.4 7.7-7.5h.1l3.6-2.2-.4-1.4q-1.8-5.5-11.5-9.1-2.5 1.3-4.1 1.6-14.4 2.5-22.8 7.6-9.3 5.6-9.3 12 .2 6.4 5.6 5.6 5.5-.7 12.7-4.8 5.3-3 8.5-3.8.8.2.9 1.1v1.3q0 .7-2.7 3.4-2.5 2.7-2.5 4.8 0 1.3.7 1.8.6.4 1.9.4 10.5-8.1 11.6-10.8z"/><path fill="#3F8BD1" d="M262.1 284.3q.4-13.3.3-26.6-.5 11.3-.3 26.6z"/><g><path fill="#7586E3" d="M258.4 293.5q0 .8-1.4 3.1-4.4 7.1-36.4 26l-3.6 2q0 .8-.3 1.4l4.8-1.9.3-.1.8-.3q7-3.1 22.6-12.1l.3-.3q4.4-2.5 7.7-5 3-2.3 5-4.6l.9-1q1.8-2.3 2.6-4.6l.7-2q.2-.9.3-3.5l-.1-12.3q-.1-9.8.1-20.7.2-11 1.4-18.3-5.7 16-5.7 54.2m62-11.4q-.8 1.6-1 2.5.5.5 1.4.9l-.4-3.4m29.5 6.8q-.4-2.8-1-5l-4.8-19.4 1.5 23-25.2-5.4 1 .4h.1l9.6 4q8.8 3.6 13.7 5l1.1.4 4.4 1.5q7.3 2.6 13 6 2.1 1.3 8.6 6.2-10.2-10.9-22-16.7m-34.5 10q-.2 5.6.9 5.9 1.6-2.1 2.1-3.2-1.5-1.5-3-2.7m-22-9.6q-2.9-.8-4.7-2.2 1.8 4.3 7 7.6 5.3 3.4 19.7 4.3-5.3-4.5-9.6-5.9-8-2.8-12.4-3.8M377 246q-1.3-3.3-2.9-6.2l-2-3q-1.8-2.8-8.8-8.3-7-5.5-15.8-10.2-8.8-4.7-12.6-10.2l.6 1.3q.4 1.3.3 3.3-.3 4-2.3 6.8l-.7.8-.7.8q26.9 9.5 33.4 15.8 6.5 6.2 9.4 19 3 12.9 8.6 72.3-12.5 5.4-67.3-23.4 16.2 14.3 29 24-1.4 22.2-9.8 34.8 6.2-1.4 8.6-3.8 2.4-2.3 3.5-5.6 1.1-3.2 1.6-7.4l1.6-18.5q11.2 5.6 19.6 6 12.2.6 14.4-3 2-3.6 1.7-12.7-.4-9.2-2.9-27.3-2.5-18.2-3.6-30.7-.7-8.3-3-14.6z"/><path fill="#BFB3A8" d="M315.4 277q-.7-3-1.3-4.6-1.8-4.8-6-6.8 5.3 4.1 5.9 18.1l6.8 5.5V288v-2.5q-1-.4-1.4-.9l-1.4-1.5q-1-1-1.3-2-.6-1.2-1.3-4m15-93.8q0 4.3-1.8 7-2.2 3-4.7 5.3-6.5 5.5-14.1 7.4-2.5.6-9 1.4 14.8.8 21.3-3.3 6-3.7 6.3-4.8.3 7.7 2.2 14.4 2 7 1.6 10.5l.8-.8.6-.9q2-2.8 2.3-6.8.2-2-.3-3.3l-.6-1.3-.3-.3-.6-1.4q-.8-1.8-1-4-.2-1.8-.2-9v-3-1.3l.7-14-.9-.7-.8 5.9-1.4-8.5q-.4 3.5-.3 5l.2 6.5M169.7 336.6q1.3 2 4.5 1.5 5.5-.7 12.7-4.8 5.3-3 8.5-3.8.4.1.7.4l-1.3-1.9q-1.2-2-6.3 2.4-5 4.4-11.3 6-6.3 1.7-7.5.2m46.6-16.3q-1.8-5.4-11.5-9l-2.2 1q5.2.1 7.8 4 2.5 3.9-.5 5.8-3 2-4.8 4.6-1.8 2.6-3.8 6.3-2 3.6-5.3 5.8-3.3 2.1-2.3 3.4 10.5-8 11.6-10.7 1.3-3.4 7.7-7.5h.1l3.6-2.2-.4-1.4m92-49.3q.3-2.4-.4-4.9l-4.3 5.4-16.6-1q2.5 2.4 8 3.6 5.5 1.2 9.3.3 3.7-1 4-3.4m19-102q.6-2.7.9-9.8.2-5.3-.6-7.6-.7-2.3-3.6-3.8-1.4-.7-4.4-1.3-2.8-.6-5-.7-2.2 0-7.4.4l-3.1.3q16.5-.5 20 3.8 3.5 4.6 1 17-2.6 12.4-6.1 16 2.8-2.6 4-4.2 1.8-2.3 2.7-5l1.6-5z"/></g><g><path fill="#FFF1D1" d="M1193 328.8L1117 374l134.8 80.3 76-45.3-134.7-80.4z"/></g><g><path fill="#ECCDAB" d="M1206.4 338.8q-14.4 2.5-22.8 7.5-9.3 5.6-9.2 12 0 2.7 1 4.1 1.4 2 4.5 1.7 5.5-.8 12.7-4.9 5.4-3 8.6-3.8.5.1.7.6l.1.5v1.2q0 .8-2.6 3.5t-2.6 4.8q0 1.3.8 1.8.6.3 1.9.3 10.5-8 11.5-10.7 1.3-3.4 7.8-7.5v-.1l3.7-2.1-.5-1.4q-1.7-5.5-11.4-9.1l-1.6.7q-1.5.7-2.6.9m129.5-136.2l.1 7.8q0 1.6-.5 3.3l-.3.6-4 12.6 6.8-18.8-1.8-10.3-.3 4.8m2.1 31.4v-26l-6.8 18.9-20.7 3h-.6q-3.4.6-5.3.2-3.2-.7-5-2v3.7q-2.8 2.2-3.9 5.6-1 3.4 1.3 6.7 1.6 2.3 4.8 4.1 4.5 2.6 10.4 3.3 7.1.8 11.8.4 3.5-.3 7.2-1.4l4.3-4.6q4.1-4.1 2.5-11.9m.1-47.7q-.7.6-1.5 7.3l-.4 4.2 1.8 10.3v-7.2h1.3q.5.4 1.4-.2.8-.5 1.6-3.3.8-2.7 2.2-6.2 1.4-3.3 1.5-4.6 0-1.4-.7-3-.6-1.7-2.2-1.7-1.5 0-2.4.8-.8.7-2.6 3.7m-7.5 10.6v-14.4l-5.3-5.8-21.5-4.3q-3.3-.2-5-.8-1.7-.6-3.1-1.5l-1.3-.8-2.3 16.6q0 1.1.5 2.6.4 1.3.4 2.3l-.5 5.1-.3 2.4.3 3.8q.2 3.5.5 4.6 1 3.4 2.1 2.5 1-.8 6.9-.8 5.9.2 10.9 3.4 5 3.3 9.6-.6 1-.8 1.7-1.6l6.4-12.7z"/><path fill="#666" d="M1257.3 415.3q21-7.1 25-7.7 4-.6 5.4.4l-7.4-12-6.9-5.6-46.4 16-3.6 8.9 3.3 19-23.8 72.8q1.1 0 2.1-.2l4.8-.6 1.8-.4q4.7-16 13.6-41 8.8-25.1 8.6-41.1 3.2-1.7 23.5-8.6m57.5 36.8l-15.7-15.7-11.3-28.2q.2.9-.8 6.5-1.3 7-2.8 11.1-5.3 13.9-8.2 23.3-3.6 12.1-3.3 23.6l.3 2.8 14.9-13.9 26.9-9.5m23-39.1l3.2-14.3h-10l-35.9-17.3-8-2.8q-3.9-1.5-9.8-5-6-3.3-7.5-4.8h-.1l-.1-.1q-1.4-1.4-2.3-3.4l-.6.7q-1.9 1.8-18.3 7.6-16.4 5.3-24.6 9-8.2 3.8-16 8.2-7.7 4.4-10.3 12.3-2.6 7.8-5.5 34.4-2.7 26.6-9.8 60.2.3 1.4.8 2.5.3.6 1.4 1.8 1.5 1.8 2.4 2.2 3.9 1.8 9.1 2.5 4 .6 7 .5l23.8-72.9-3.3-19 3.6-8.8 46.4-16 6.9 5.7 7.5 11.9v.1l11.3 28.2 15.7 15.7-26.9 9.5-14.9 13.9v.4q1 13.4 1.4 35.1l.5 28.5q.1 6.6 4.6 9.3h.2q4.6 2.6 15.3 1.8 2.4-.1 4.4-.6l4.1-12.2 5.8-75.5 28.5-49.3m13.5-28.9q-3 3.8-11.5 5.9-10.4 2.4-29.6-3.6-9.4-3-15.1-5l35.9 17.3h10l-3.2 14.3-28.5 49.3-5.8 75.5-4.1 12.1q3.2-.7 5.1-2.4l2.8-4.5q1.8-7 3.5-31.5 1.6-24.7 1.5-25.3l.3-6.4.4-7.3q.1-1.6 1.9-5.6 1.8-4 8.5-14.4l18.4-27.6q11.6-17.2 11.5-26 0-8.7-1.8-14.6l-.3-.2z"/><path fill="#0089DF" d="M1385.8 286.4q-.7-8.2-3-14.5l-.5-1.2-44.3-23.6q-1.8 1.5-4.3 2.5l-2.5.9q-3.7 1.1-7.2 1.4-4.7.4-11.8-.5-6-.7-10.4-3.2-3.2-1.8-4.8-4.1-2.3-3.3-1.3-6.7 1-3.4 3.9-5.7-5.7 2.2-15.2 4.5l-11 2.7q-4 1.2-8 4 2.2 15 2.5 29.8l.2 10.9.2 38.7.3 12q0 3.3-.8 11.8-1 8.7-1.3 14.3-.1 2.7.8 4.8 1 2 2.3 3.4h.1l.1.1q1.6 1.5 7.5 4.9 6 3.4 9.8 5l8 2.8 15.1 4.9q19.2 6 29.6 3.6 8.5-2 11.5-5.9.6-.9 1-1.9 2.1-5.2 2.6-9.4t1.6-18.5q11.3 5.5 19.7 6 12.1.6 14.3-3 2.1-3.6 1.7-12.8-.3-9-2.9-27.3-2.5-18-3.5-30.7m-66 11.9q.7 1.6 1.4 4.6.7 2.9 1.3 4.2.3.9 1.2 1.9l1.5 1.5q.4.5 1.3.9v2.5q0 6.8-1.3 10.9l-.5 1.6-.6 1.1q-.5 1.1-2 3.2-1.1-.3-1-5.8l-21.6-6.3-5.1-5.6q-1-.8-1.7-1.8-2-2.8-4-9.4-2-6.7.9-10.9l24.2.6q4.2 2 6 6.8m-8.3 20.7q-8-2.7-12.4-3.9-2.8-.6-4.7-2.1l5 5.6 21.8 6.3v-.1q-5.3-4.4-9.7-5.8z"/><path stroke="#666" stroke-width=".1" stroke-linejoin="round" stroke-linecap="round" fill="none" d="M1303.8 172.5l21.5 4.3 5.3 5.8V197l-6.4 12.8m12-12l1.8 10.3m0 39l44.3 23.6M1310 230l.6-.1 20.7-3 6.8-18.8"/><g><path stroke="#000" stroke-width=".1" stroke-linejoin="round" stroke-linecap="round" fill="none" d="M1321.2 324.9l-21.8-6.3-5-5.6"/></g><g><path stroke="#000" stroke-linejoin="round" stroke-linecap="round" fill="none" d="M1287.8 408.1v-.1m7.3-26.6l35.9 17.2h10l-3.2 14.3-28.5 49.3-5.8 75.5-4.1 12.2m-26.4-74.5l14.9-13.9 26.9-9.5-15.7-15.7-11.3-28.2m0-.1l-7.5-12-6.9-5.6-46.4 16-3.6 8.9 3.3 19-23.8 72.8"/></g></g><g><path fill="#FFF1D1" d="M1199.5 368.1l11.2-5.8 6.9-6 12.1-5.7-7.8-4.6.1.3.5 1.3v.1l-3.7 2.1v.1q-6.5 4-7.8 7.5-1 2.7-11.5 10.8m2.5-10.5v-1.2l-.1-.5q-.2-.5-.8-.6-3.1.8-8.5 3.9-7.2 4-12.6 4.8l18.6-2 .8-.9q2.6-2.7 2.6-3.5m6.7-19.6l-15.7-9.4-76.1 45.4 134.8 80.3 76-45.3-98-58.5-12.1 5.7-7 6-11.1 5.8q-1.3 0-2-.4t-.7-1.8q0-1.7 1.8-3.8l-18.6 2q-3.2.4-4.6-1.7-1-1.4-1-4 0-6.5 9.2-12.1 8.4-5 22.8-7.6 1-.1 2.3-.6z"/><path fill="#ECCDAB" d="M1202.5 361.6l-3.9.4q-1.8 2.2-1.8 4 0 1.3.8 1.8.6.3 1.9.3l3-6.5m3.9-22.9q-14.4 2.6-22.8 7.6-9.3 5.6-9.2 12 0 2.7 1 4.1 1.4 2 4.5 1.7l38.4-20.3-38.3 20.3q5.4-.8 12.6-4.9 5.4-3 8.6-3.8.5.1.7.6l.1.5v1.2q0 .8-2.6 3.5l-.8.9 3.9-.5-3 6.5q10.5-8 11.5-10.7 1.3-3.4 7.8-7.5v-.1l3.7-2.1-.5-1.4v-.3q-2-5.3-11.4-8.8l-1.6.7-.3.2q-1.3.5-2.3.6z"/><g><path stroke="#000" stroke-width=".1" stroke-linejoin="round" stroke-linecap="round" fill="none" d="M1321.2 324.9l-21.8-6.3-5-5.6"/></g></g><g><path fill="#FFF" d="M309.4 258.5q-.6 2.4-3.8 4.3-4 2.3-9.6 2.2-5.6 0-9.4-2.2-3-1.8-4-4.2l1.8 9.4q.7 1.2 1.3 1.7 1.4 1.4 4.2 2.3 2.6.9 6.8.9 4.2 0 7.6-1.6 3.4-1.8 3.6-5.1l1.5-7.7z"/><path fill="#DEDEDE" d="M282.6 257.3v1.3q1 2.4 4 4.2 3.8 2.3 9.4 2.2 5.6 0 9.6-2.2 3.1-1.9 3.8-4.3.2-.6.2-1.3-.1-3.1-4-5.4-4-2.3-9.6-2.3-5.5 0-9.4 2.3-4 2.3-4 5.4z"/></g><g><path fill="#49332D" d="M305.9 261.8q-.8-.9-2-1.5-3.2-1.9-7.8-1.9t-7.9 1.9q-1.1.6-1.8 1.4l-.5.7.7.4q3.8 2.3 9.4 2.2 5.6 0 9.6-2.2l.8-.4-.5-.6z"/></g><g><path stroke="#242A47" stroke-width="2" stroke-linejoin="round" stroke-linecap="round" fill="none" d="M303.6 161.3q.3-2 2.8-2 15.3.4 15.7 1.8l-.1 1.3q-.6 6-1.1 7.3-.7 1.5-7.8 1.2-7.1-.3-8-1.4-1-1.2-1.3-4.5-.3-3.3-.2-3.7-4.2-.8-5.3-.4-.7 6.2-1.9 7.2-1.3 1-7.1 0-6-1.1-6.4-1.5-.4-.5-.7-4.3-.3-3.8-.1-5.5 1.3 0 7.6.6 6.4.5 7.4 1.3.9.6 1.2 2.2"/></g><g><path stroke="#242A47" stroke-width="2" stroke-linejoin="round" stroke-linecap="round" fill="none" d="M282 158.8l4.1-1.4m36 5l9.8-3.2"/></g><g><path fill="url(#f)" d="M295 307Q195 293.4 117.8 248.9q-48.1-28-76.4-60.7v153.8q28.3 32.8 76.4 60.8 77.2 44.5 177.4 58.2V307z"/><path fill="url(#g)" d="M18.3 174.3v-19.8Q2 123.7 1 89.2v151.6q.6 35.7 17.3 67.5v-134z"/><path fill="url(#h)" d="M1 87v2.3q1 34.4 17.3 65.2v19.8q2.6-4.9 5.7-9.8t6.6-9.7V1Q1.7 40.5 1 87z"/><path fill="url(#i)" d="M394.7 313q-34.9.3-67.5-2.4v153.8q32.6 2.7 67.5 2.4 144 1.3 250.6-49.6V263.4Q538.7 314.3 394.7 313z"/><g><path stroke="url(#j)" stroke-width="2" stroke-linejoin="round" stroke-linecap="round" fill="none" d="M645.3 417.3Q538.7 468 394.7 466.8q-34.9.3-67.5-2.4V310.6q32.6 2.7 67.5 2.4 144 1.3 250.6-49.6v155"/></g><g><path stroke="url(#k)" stroke-width="2" stroke-linejoin="round" stroke-linecap="round" fill="none" d="M1 89.3V87q.7-46.5 29.6-86v153.8q-3.5 4.8-6.6 9.8-3.1 4.8-5.8 9.8v133.9Q1.6 276.5 1 240.8V89.2q1 34.5 17.3 65.3v19.8"/></g><g><path stroke="url(#l)" stroke-width="2" stroke-linejoin="round" stroke-linecap="round" fill="none" d="M117.7 402.6q-48.1-28-76.4-60.7V188.1q28.3 32.8 76.4 60.8Q194.9 293.4 295 307v153.8q-100.2-13.7-177.5-58.3z"/></g></g></svg>
