<svg xmlns="http://www.w3.org/2000/svg" viewBox="0 0 1120 1120"><path fill="#7586e3" d="M1120 560q0-231.85-164.15-396.05Q792 0 560 0 328.15 0 163.95 163.95 0 328.15 0 560q0 231.9 163.95 395.85Q328.15 1120 560 1120q232 0 395.85-164.15Q1120 791.9 1120 560M824 400q49.7 0 84.9 35.2Q944 470.3 944 520v160q0 40-40 40H744q-44.23 0-76.9-27.8l-.9-.8q-4.44-3.55-10.2-3.55-6.4 0-11 4.35h-.2Q612.17 720 568 720H296q-49.7 0-84.9-35.2Q176 649.7 176 600V440q0-40 40-40h160q44.23 0 76.9 27.8.44.4.9.75 4.44 3.6 10.2 3.6 5.73 0 10-3.5.4-.3.75-.65l.25-.2q32.77-27.8 77-27.8h272m-200 89q0-10.35-7.35-17.7-7.3-7.3-17.65-7.3h-63q-16.55 0-28.3 11.7Q496 487.45 496 504v127q0 10.35 7.3 17.65Q510.65 656 521 656h63q16.55 0 28.25-11.75Q624 632.55 624 616V489m-359-25q-10.35 0-17.7 7.3-7.3 7.35-7.3 17.7v117q0 20.7 14.65 35.35Q269.3 656 290 656h122q20 0 20-20V514q0-20.7-14.65-35.35Q402.7 464 382 464H265m600.35 14.65Q850.7 464 830 464H708q-20 0-20 20v122q0 20.7 14.65 35.35Q717.3 656 738 656h117q10.35 0 17.65-7.35Q880 641.35 880 631V514q0-20.7-14.65-35.35z"></path></svg>
