
<svg xmlns="http://www.w3.org/2000/svg" version="1.1" xmlns:xlink="http://www.w3.org/1999/xlink" preserveAspectRatio="none" x="0px" y="0px" width="173px" height="475px" viewBox="0 0 173 475">
<defs>
<g id="Symbol_2_0_Layer1_0_FILL">
<path fill="#E8C68A" stroke="none" d="
M 173.45 78.05
L 170.5 78.05
Q 168.65 47.1 146.1 24.6 135.3 13.75 122.55 7.7 106.3 0 86.75 0 67.3 0 51.05 7.75 38.25 13.75 27.45 24.55 4.9 47.05 3 78.05
L 0 78.05 0 89.8 3 89.8
Q 4.9 120.75 27.35 143.25 35.5 151.35 44.8 156.85
L 44.8 210.4 50.5 210.35 56.7 475.55 116.8 475.55 122.9 210.35 128.75 210.35 128.75 156.85
Q 138 151.45 146.1 143.25 168.6 120.8 170.5 89.75
L 173.5 89.75 173.45 78.05 Z"/>
</g>

<g id="Symbol_2_0_Layer0_0_FILL">
<path fill="#FFDA99" stroke="none" d="
M 104.95 153.05
Q 105.05 151.15 104 150.4 103.9 150.3 103.75 150.3 102.7 149.25 100.5 149.25 98.55 149.25 96.55 150 94.85 150.6 93.6 151.75 92.6 152.6 92.65 154.3 93.7 156.85 97.15 156.9 98.25 156.9 99.35 156.75 103.4 156.1 104.95 153.05
M 108.3 141.05
Q 107.85 141.8 107.5 142.65 106.95 144.25 107.55 145.7 108.45 146.65 109.85 147.05 111.75 147.6 113.4 147.2 114.4 147 115.2 146.55 116.55 146 117.5 145 118.95 143.6 119.6 141.5 119.6 141.4 119.65 141.35 119.55 139.4 118.5 138.45 118.05 138.1 117.6 138 116.7 137.6 115.65 137.5 114.85 137.5 114.2 137.65 110.35 138.35 108.3 141.05
M 92.55 133.55
Q 92.6 134.65 93 135.45 94.5 138.7 98.95 139.1 101.45 139.3 103.1 138.55 104 138.15 104.8 137.7 107.75 135.95 108.85 132.3 108.9 130.45 108.35 129.15 107.4 126.65 104.9 125.6 104.05 125.25 103.05 125.15 100.4 124.9 98.7 125.5 95.1 126.7 93.35 129.6 92.45 131.15 92.55 133.55
M 127.5 147.9
Q 127.25 145.5 124.55 146.1 120.7 147 118.95 150 118.45 150.9 118.85 151.95 119.05 152.2 119.45 152.3 120.8 152.8 122.15 152.4 122.3 152.4 122.4 152.35 126.1 151.2 127.5 147.9
M 138.6 133.9
Q 136.8 134 135.6 134.8 133.5 136.25 132.5 138.75 131.9 140.15 132.8 141 133.2 141.7 134.45 141.5 135 141.5 135.45 141.35 138.7 139.8 140.05 136.35 140.3 134.2 138.75 133.85 138.6 133.85 138.6 133.9
M 133.45 128.6
Q 133.4 128.55 133.4 128.45 133.6 125.8 132.3 124.6 131.6 124.1 130.55 123.85 129.5 123.65 128.35 123.9 124.75 125 123.1 128.05 122.75 128.9 122.45 129.8 121.8 132.75 123.45 134.25 124.45 134.95 126.2 134.95 127.95 134.85 129 134.25 129.2 134.15 129.35 134 132.3 132.15 133.45 128.6
M 122.1 121.9
Q 123.1 120.55 123.55 118.65 123.75 117.9 123.95 117.15 123.95 113.05 121.45 111.15 120.1 110.15 117.85 109.95 116.55 109.85 115.6 110.1 111.7 111.1 109.9 113.9 109.65 114.3 109.4 114.8 108.55 116.2 108.55 118.55 108.5 120.75 109.35 122.4 110.25 123.9 111.85 124.7 113.35 125.55 115.9 125.3 116.85 125.15 117.65 124.95 118.65 124.7 119.55 124.25 121.1 123.35 122.1 121.9
M 151.1 123.15
Q 151.1 123.1 151.15 123 151.35 120.95 150.3 120.3 149.85 120.1 149.25 120.2 148.75 120.3 148.3 120.55 146.15 121.85 145.15 124.4 144.75 125.25 144.65 126.2 144.35 128 145.15 128.8 145.65 129 146.25 128.9 147.1 128.8 147.65 128.35 148.8 127.6 149.6 126.45 150.55 125 151.1 123.15
M 144.2 109.15
Q 143.9 109 143.55 108.85 142.35 108.5 141.15 108.95 138.3 110.1 136.9 112.9 136.1 114.4 136.05 116.75 136 117.35 136.15 118 136.5 120 138.1 120.8 139.05 121.35 140.25 121 141.25 120.7 142 120.15 144.75 118.15 145.8 114.5 145.85 114.4 145.85 114.3 146.25 110.6 144.2 109.15
M 159.65 110.3
L 159.65 110.15
Q 159.95 107.45 158.65 106.45 158.5 106.5 158.3 106.45 157.45 106.6 156.9 107.15 155.35 109.05 154.9 112.05 154.5 114.5 155.6 115.5 156.3 115.55 156.6 115.35 157.7 114.65 158.3 113.45 159.1 112 159.65 110.3
M 75.9 156.7
Q 77.7 156.15 78.5 154.5 78.55 153.2 78.1 152.5 76.15 149.65 71.7 149.25 67.2 148.95 66.15 151.95 66.05 153.25 66.65 154 68.65 156.7 73.2 156.95 74.75 157 75.9 156.7
M 33.35 133.9
Q 32.3 133.55 31.55 134.2 30.9 134.65 31.2 135.85 32 139.2 34.65 140.8 35.75 141.5 37.5 141.35 38.5 141.2 38.8 140.35 38.8 139.15 38.4 138.3 37.05 134.95 33.35 133.9
M 15.75 110.1
Q 15.1 108.5 13.9 107.15 13.3 106.4 12.45 106.6 11.2 107.15 11.45 109.2 11.7 112.5 13.45 114.3 13.5 114.4 13.55 114.5 13.95 115.35 15.05 115.3 16.1 115.35 16.3 114.3 16.45 111.85 15.75 110.1
M 23.4 121.1
Q 23.05 120.75 22.7 120.55 21.8 120 20.8 120.25 19.5 121.35 20.15 123.45 21.1 127.2 24.35 128.8 24.75 129 25.45 128.85 26.3 128.55 26.55 127.65 26.6 127.45 26.6 127.2 26.6 126.65 26.45 126.05 25.65 122.85 23.4 121.1
M 32.7 111
Q 32.6 110.85 32.55 110.75 31.65 109.35 29.65 108.75 28.3 108.4 27.25 109 27.15 109 27.1 109.1 26.2 109.7 25.65 110.6 25 112.15 25.35 114 25.4 114.7 25.6 115.25 26.7 118.8 29.7 120.5 31.55 121.5 33.55 120.6 33.5 120.5 33.5 120.45 34.7 119.65 35.1 118 35.25 113.15 32.7 111
M 79.2 140.75
Q 78.85 141 78.55 141.4 77.4 142.65 77.85 145.3 77.9 145.75 78.05 146.2 79.75 149.35 83.95 149.95 86.25 150.2 88.25 149.65 92 148.7 93.45 145.35 93.6 142.9 92.7 141.6 91.75 140.3 90.25 139.45 88.7 138.65 86.55 138.5 84 138.3 82.25 139 80.5 139.65 79.2 140.75
M 78.7 133.9
Q 78.75 131 77.6 129.2 75.7 126.4 71.9 125.35 71.45 125.2 70.9 125.2 69.05 124.95 67.55 125.25 65.6 125.65 64.25 126.75 62.95 127.85 62.5 129.8 61.95 132.05 62.8 133.85 64.35 137.1 67.65 138.45 69.4 139.2 71.9 139.15 73.1 139.05 74 138.8 77.65 137.65 78.7 133.9
M 59.2 138.3
Q 58.35 137.9 57.4 137.75 53.25 136.95 51.65 139.7 51.3 141.9 52.3 143.4 54.05 146.4 58.05 147.2 58.95 147.4 60.15 147.25 61.1 147.2 62.1 146.95 62.1 146.9 62.1 146.85 63.25 146.15 63.9 145 63.9 144.9 63.85 144.8 63.9 143.15 63.55 141.95 62 139.5 59.2 138.3
M 48.8 146.9
Q 47.65 146.3 46.15 146.15 44.5 145.9 43.75 146.75 43.45 147.55 43.8 148.2 45.3 151.5 49.05 152.5 51.35 153.15 52.45 151.6 52.45 150.55 52.05 149.9 50.9 147.95 48.8 146.9
M 47.8 133.95
Q 48.6 133.15 48.9 131.95 48.95 130.9 48.8 130.1 47.85 126.35 44.95 124.75 44.1 124.35 43.25 124.05 39.9 123.15 38.15 125.25 38.15 125.6 38.05 125.75 37.85 126.15 37.8 126.6 37.55 129.15 38.4 130.75 40.05 133.85 43.9 134.85 44.95 135.15 46.05 134.85 47.1 134.6 47.8 134.15 47.75 134 47.8 133.95
M 75.65 117.25
Q 75.25 119.7 76.05 121.7 77.5 125.05 80.55 126.65 82.85 127.95 86.5 127.7 89.65 127.5 91.75 126.05 94.55 124 95.5 120.25 95.5 118.8 95.5 117.4 95.5 116.6 95.3 116.05 94.1 112.45 91.05 110.65 89.55 109.75 87.6 109.5 84.8 108.9 82.4 109.75 80.55 110.35 79.15 111.35 76.4 113.3 75.65 117.25
M 62.1 121.35
Q 62.4 120.35 62.7 119.5 62.7 117 61.95 115.3 61.85 114.95 61.7 114.75 60.1 111.6 56.6 110.4 55.65 110.05 54.55 110 49.75 109.9 48.1 113 47.95 113.2 47.8 113.45 46.9 115.1 47.2 117.35 47.5 119.65 48.45 121.1 50.2 124.1 53.9 125.1 54.9 125.35 56.15 125.3 60.5 125.05 61.95 121.75 62.1 121.6 62.1 121.35
M 78.2 98.45
Q 76.45 95.4 73.15 93.95 73 93.9 72.85 93.85 71.25 93.05 68.7 93.25 66.65 93.25 65.25 94 62 95.5 60.5 98.7 59.5 100.75 59.7 103.85 59.9 106.1 60.7 107.7 62.35 110.8 65.75 112.2 66.9 112.7 68.55 112.75 70.4 112.95 71.9 112.7 73.85 112.25 75.3 111.25 78.05 109.4 79.05 105.55 79.2 104.85 79.45 104.2 79.45 100.65 78.2 98.45
M 77.45 56.6
Q 75.25 54.1 70.9 53.65 70.8 53.65 70.75 53.6 66.3 53.85 63.75 56.05 61.25 58.3 60.3 62.05 60.1 66.1 61.45 68.45 63.2 71.45 66.6 72.75 68.45 73.6 70.6 73.45 72.9 73.2 74.45 72.4 77.65 70.85 79.1 67.55 79.85 65.85 79.95 63.65 80 61.25 79.4 59.6 78.6 57.9 77.45 56.6
M 37.6 94.3
Q 34.65 95.45 33.85 98.75 33.7 99.3 33.6 99.9 33.45 101.7 33.75 103.2 34.55 107.05 37.3 109.1 38.65 110.1 40.9 110.25 42.1 110.35 43.1 110.05 44.8 109.45 45.95 108.15 46.95 106.75 47.45 104.85 47.5 104.05 47.5 103.25 47.5 102.4 47.35 101.45 47.15 100.05 46.55 98.9 45.05 95.65 41.65 94.3 39.5 93.5 37.6 94.3
M 8.6 96.3
Q 8.45 95.85 8.4 95.7 8.05 94.2 6.7 93.95 5.5 95.1 5.8 97.6 6 99.7 6.6 101.3 6.9 102.05 7.65 102.4 8.65 102.8 8.85 101.5 8.9 101 9.1 100.55 9.1 98 8.6 96.3
M 18.1 94.15
Q 16.4 94.75 15.95 96.45 15.5 98.25 15.75 100.65 16.05 102.65 17 104.2 17.3 104.75 17.65 105.2 18.5 106.45 20.65 106.45 21.95 106.05 22.45 104.9 23.05 103.75 23.45 102.4 23.35 101.7 23.3 100.95 22.8 96.8 20.25 94.55 19.2 93.9 18.1 94.15
M 7.2 65.65
Q 6.9 66.8 6.5 67.85 6.5 69.25 6.45 70.75 6.4 72.3 7.4 72.65 7.6 72.7 7.7 72.6 8.8 71.75 9.25 70.1 9.65 68.35 9.6 66.25 9.6 66.2 9.6 66.1 9.7 64.4 8.6 64 7.55 64.5 7.2 65.65
M 16.9 54.45
Q 17.25 52.05 16.1 51.15 15.45 51 15.1 51.25 14.05 51.95 13.4 53.15 12.7 54.55 12.1 56.3 12.1 56.4 12.05 56.5 11.75 59.15 13.05 60.15 13.2 60.2 13.35 60.15 14.25 59.95 14.7 59.45 16.4 57.55 16.9 54.45
M 34.1 64.05
Q 34.05 66.3 34.55 68.2 34.6 68.35 34.65 68.5 35.35 70.45 36.9 71.55 37.4 71.95 38.15 72.2 40.05 73 42.2 72.4 43.1 72.2 43.85 71.7 45.5 70.65 46.55 69 47.4 67.65 47.75 66.15 48.05 65.15 48.05 64.2 48.2 61.35 47.15 59.55 46.9 59 46.6 58.5 45.15 56.3 41.65 56.3 41.2 56.25 40.75 56.4 37.15 57.45 35.45 60.5 34.65 62.1 34.1 64.05
M 21.2 60.15
Q 20.8 60.15 20.45 60.3 18.5 60.8 17.6 62.45 16.8 64 16.25 65.9 16.3 66 16.25 66.1 15.75 71.1 18.85 72.5 19.75 72.55 20.3 72.3 23.3 70.55 23.85 66.3 24.15 64 23.5 62.05
L 23.4 62.1
Q 22.8 60.55 21.2 60.15
M 35.6 48.6
Q 35.25 46.65 33.6 45.85 32.7 45.25 31.5 45.6 30.45 45.9 29.7 46.45 27 48.4 25.95 52.1 25.9 52.2 25.9 52.3 25.55 56 27.55 57.45 27.8 57.55 28.15 57.7 29.4 58.1 30.5 57.65 33.4 56.5 34.8 53.75 35.65 52.15 35.7 49.85 35.75 49.25 35.6 48.6
M 26.55 37.8
Q 26.1 37.65 25.45 37.7 24.6 37.8 24.1 38.2 22.9 38.85 22.05 40.2 21.1 41.55 20.6 43.45 20.6 43.5 20.55 43.6 20.35 45.6 21.45 46.35 21.85 46.5 22.5 46.4 23 46.3 23.3 46.05 25.55 44.75 26.65 42.15 26.95 41.3 27.1 40.35 27.35 38.6 26.55 37.8
M 31.7 30.25
Q 31.35 32.45 32.95 32.75 33.05 32.8 33.15 32.75 34.9 32.65 36.15 31.8 38.2 30.35 39.2 27.85 39.75 26.4 38.95 25.6 38.5 24.95 37.3 25.05 36.7 25.15 36.25 25.3 33 26.8 31.7 30.25
M 78.7 31.15
Q 77.15 27.9 72.8 27.55 70.25 27.35 68.6 28.05 67.75 28.45 66.95 28.9 63.95 30.65 62.85 34.25 62.8 36.15 63.3 37.45 64.3 39.9 66.85 40.95 67.65 41.3 68.7 41.4 71.3 41.75 73 41.15 76.6 39.9 78.35 36.9 79.25 35.45 79.15 32.95 79.1 31.95 78.7 31.15
M 49.65 44.7
Q 48.6 46.1 48.1 47.95 47.95 48.7 47.75 49.35 47.8 53.6 50.25 55.4 51.6 56.5 53.85 56.6
L 53.9 56.55
Q 55.25 56.7 56.15 56.5 59.9 55.55 61.8 52.7 62.1 52.3 62.3 51.85 63.25 50.35 63.2 48.1 63.25 45.85 62.35 44.3 61.45 42.7 59.9 41.9 58.35 41.05 55.85 41.3 54.9 41.4 54 41.7 53.05 41.95 52.2 42.4 50.6 43.25 49.65 44.7
M 42.7 32.4
Q 42.55 32.5 42.35 32.6 39.45 34.35 38.3 37.95 38.3 38.05 38.25 38.1 38.15 40.8 39.45 42.05 40.15 42.55 41.2 42.75 42.2 43 43.4 42.6 47 41.6 48.6 38.55 49 37.7 49.25 36.85 49.9 33.85 48.2 32.35 47.25 31.65 45.55 31.65 43.75 31.75 42.7 32.4
M 44.25 18.65
Q 44.45 21.15 47.15 20.5 51.05 19.6 52.75 16.6 53.3 15.7 52.9 14.65 52.65 14.35 52.3 14.2 50.9 13.8 49.55 14.25 49.4 14.25 49.3 14.3 45.65 15.35 44.25 18.65
M 64.2 23.95
Q 64.75 22.3 64.15 20.9 63.35 19.9 61.85 19.5 60 19 58.3 19.4 57.25 19.65 56.55 20 55.2 20.6 54.25 21.55 52.75 22.95 52.15 25.1 52.15 25.25 52.1 25.25 52.15 27.2 53.25 28.15 53.65 28.4 54.15 28.6 55 29 56.1 29.1 56.85 29.1 57.5 29 61.35 28.2 63.4 25.55 63.9 24.85 64.2 23.95
M 64.35 9.25
Q 64.9 8.95 65.45 8.65 66.6 7.95 66.7 6.35 66.3 5.8 65.6 5.6 64.65 5.4 64.05 5.45 59.55 5.85 57.75 8.7 57.7 9.95 58.7 10.15 62.05 10.65 64.35 9.25
M 79.1 12.3
Q 78.05 9.7 74.65 9.7 73.5 9.7 72.35 9.75 68.35 10.4 66.7 13.55 66.65 15.45 67.75 16.2 67.85 16.25 67.9 16.35 69.1 17.25 71.2 17.35 73.2 17.4 75.25 16.65 76.85 15.95 78.1 14.85 79.05 14 79.1 12.3
M 152.9 94.1
Q 152 94 151.45 94.3 148.3 96.05 147.8 100.35 147.55 102.55 148.25 104.55
L 148.35 104.55
Q 148.95 106 150.45 106.45 150.85 106.5 151.2 106.35 153.25 105.8 154.15 104.2 155 102.55 155.45 100.65 155.45 100.55 155.45 100.5 155.95 95.5 152.9 94.1
M 137.15 98.45
Q 137.1 98.25 137.05 98.05 136.35 96.1 134.85 95 134.25 94.7 133.6 94.4 131.65 93.55 129.55 94.15 128.6 94.45 127.9 94.9 126.2 95.95 125.15 97.6 124.4 98.85 123.95 100.5 123.75 101.45 123.6 102.5 123.55 105.2 124.45 107.05 124.8 107.6 125.1 108.1 126.55 110.3 130.05 110.3 130.6 110.3 131 110.25 134.65 109.15 136.3 106.1 137.15 104.5 137.6 102.6 137.7 100.3 137.15 98.45
M 125.8 58.5
Q 124.75 59.85 124.2 61.75 124.2 62.55 124.2 63.35 124.2 64.25 124.4 65.1 124.55 66.6 125.15 67.7 126.65 71 130.05 72.25 132.25 73.05 134.15 72.3 137.05 71.15 137.9 67.9 138.1 67.3 138.15 66.7 138.3 64.9 138 63.4 137.1 59.5 134.45 57.45 133.05 56.5 130.9 56.3 129.6 56.3 128.6 56.55 126.85 57.1 125.8 58.5
M 151.05 60.2
Q 149.75 60.6 149.25 61.65 148.7 62.8 148.35 64.15 148.35 64.9 148.4 65.65 148.95 69.8 151.4 72.05 151.45 72.1 151.5 72.05 152.5 72.7 153.65 72.35 155.35 71.85 155.75 70.15 156.25 68.35 155.9 66 155.6 63.95 154.75 62.4 154.4 61.85 154.05 61.35 153.25 60.15 151.05 60.2
M 155.4 52.3
Q 155.3 54.7 155.95 56.4 156.55 58.15 157.7 59.45 158.4 60.2 159.3 60 160.45 59.5 160.3 57.4 160 54.1 158.3 52.3 158.25 52.2 158.2 52.1 157.8 51.3 156.7 51.25 155.6 51.3 155.4 52.3
M 101.1 93.15
Q 98.9 93.4 97.2 94.15 94.05 95.75 92.65 99.05 91.85 100.65 91.8 102.9 91.6 105.35 92.35 106.95 93.15 108.7 94.2 110 96.45 112.5 100.8 112.95 100.9 113 101 112.95 105.4 112.75 107.9 110.5 110.5 108.35 111.4 104.55 111.6 100.5 110.25 98.15 108.5 95.15 105.15 93.75 103.25 93.05 101.1 93.15
M 105.95 54.35
Q 104.75 53.9 103.2 53.8 101.35 53.6 99.85 53.9 97.9 54.4 96.45 55.3 93.6 57.3 92.65 60.9 92.45 61.7 92.25 62.4 92.3 65.85 93.55 68.15 95.2 71.25 98.55 72.55 98.7 72.7 98.8 72.75 100.45 73.55 103 73.4 105.1 73.3 106.45 72.6 109.7 71.1 111.3 67.85 112.2 65.9 112 62.75 111.8 60.5 111 58.9 109.4 55.8 105.95 54.35
M 96 49.35
Q 96.5 46.9 95.65 44.9 94.2 41.55 91.15 39.85 88.85 38.65 85.2 38.95 82.05 39.1 80 40.6 77.25 42.6 76.2 46.35 76.2 47.8 76.2 49.25 76.2 50.05 76.4 50.55 77.6 54.15 80.65 55.9 82.15 56.75 84.05 57.2 86.95 57.65 89.35 56.85 91.15 56.25 92.55 55.25 95.3 53.3 96 49.35
M 97.7 27.8
Q 94.1 29 93.1 32.65 93.05 35.6 94.1 37.35 96.05 40.2 99.8 41.25 100.25 41.4 100.8 41.45 102.6 41.6 104.15 41.35 106.15 40.9 107.5 39.8 108.75 38.75 109.25 36.8 109.7 34.5 108.95 32.7 107.4 29.5 104 28.1 102.35 27.4 99.85 27.45 98.6 27.55 97.7 27.8
M 87.75 16.7
Q 85.5 16.35 83.45 16.95 79.7 18 78.3 21.25 78.1 23.7 79 25 79.95 26.3 81.45 27.1 83.05 27.9 85.2 28.15 87.7 28.3 89.5 27.6 91.15 26.95 92.5 25.85 92.85 25.55 93.15 25.2 94.35 23.95 93.9 21.3 93.85 20.8 93.65 20.4 91.95 17.3 87.75 16.7
M 91.95 5.8
Q 92 5.3 91.75 5.05 91.1 4.4 90.35 4 89.15 3.4 87.65 3.2 82.5 2.7 80.35 5.35 80.3 6.8 81.1 7.4 81.9 8.05 83.05 8.4 85 8.95 87.35 8.7 89.25 8.45 90.65 7.75
L 90.7 7.7
Q 91.75 7.2 91.95 5.8
M 107.85 21.55
Q 107.85 21.6 107.85 21.75 107.8 23.45 108.15 24.7 109.75 27.05 112.55 28.3 113.35 28.7 114.25 28.9 118.5 29.6 120.05 26.95 120.45 24.65 119.45 23.1 117.6 20.25 113.65 19.4 112.75 19.1 111.6 19.3 110.6 19.45 109.6 19.65
L 109.6 19.75
Q 108.45 20.4 107.85 21.55
M 105.6 14.65
Q 105.65 13.35 105.1 12.6 103.1 9.9 98.5 9.65 97.05 9.65 95.8 9.95 94.05 10.5 93.25 12.1 93.15 13.35 93.6 14.1 95.6 16.95 100 17.35 104.45 17.7 105.6 14.65
M 113.1 10.3
Q 114.2 10.2 114.6 9.35 114.65 8.75 114.45 8.4 112.75 6.2 109.3 5.55 106.9 5.1 105.65 6.35 105.5 7.15 105.75 7.6 107.05 9 108.95 9.7 110.65 10.45 113.1 10.3
M 151.6 43.15
Q 150.6 39.4 147.4 37.75 147 37.6 146.25 37.75 145.4 38.05 145.1 38.9 145.15 39.2 145.15 39.4 145.15 40 145.25 40.5 146 43.7 148.35 45.55 148.6 45.85 149.05 46.05 149.95 46.55 151 46.3 152.1 45.25 151.6 43.15
M 138.25 46
Q 138.25 46.05 138.2 46.15 137.05 46.95 136.65 48.6 136.45 53.5 139.05 55.65 139.15 55.75 139.2 55.8 140.1 57.25 142.1 57.8 143.45 58.2 144.5 57.6 144.55 57.55 144.6 57.55 145.5 56.9 146.1 56 146.75 54.4 146.4 52.6 146.3 51.95 146.15 51.35 145 47.8 142 46.15 140.15 45.1 138.25 46
M 124.55 49.15
Q 124.25 47 123.35 45.45 121.6 42.5 117.8 41.5 116.85 41.2 115.55 41.25 111.2 41.6 109.7 44.85 109.6 45.05 109.5 45.25 109.3 46.25 109 47.15 109 49.65 109.75 51.3 109.9 51.6 110 51.85 111.65 54.95 115.1 56.2 116 56.55 117.15 56.55 122.05 56.7 123.65 53.55 123.75 53.35 123.9 53.2 124.85 51.45 124.55 49.15
M 122.8 34.65
Q 122.75 35.75 122.95 36.55 123.85 40.2 126.85 41.85 127.55 42.3 128.45 42.5 131.75 43.45 133.5 41.3 133.6 41.05 133.7 40.8 133.85 40.5 133.9 40.1 134.15 37.45 133.3 35.85 131.6 32.8 127.8 31.75 126.7 31.45 125.65 31.75 124.6 32 123.95 32.5 123.95 32.6 123.85 32.7 123.15 33.4 122.8 34.65
M 140.15 32.35
Q 140.8 32 140.55 30.75 139.75 27.4 137.1 25.8 136 25.1 134.2 25.25 133.3 25.4 132.95 26.25 132.9 27.45 133.3 28.35 134.75 31.6 138.35 32.75 139.4 33.05 140.15 32.35
M 128 18.4
Q 126.45 15.15 122.65 14.05 120.35 13.45 119.25 14.95 119.3 16 119.7 16.7 120.8 18.65 122.95 19.7 124.1 20.35 125.55 20.45 127.2 20.7 127.95 19.8 128.25 19.05 128 18.4
M 165.25 98.75
Q 165.3 97.3 165.25 95.85 165.35 94.35 164.3 93.95 164.15 93.9 164.05 93.95 162.9 94.9 162.5 96.45 162.1 98.2 162.1 100.35 162.15 100.45 162.15 100.5 162.05 102.25 163.2 102.55 164.15 102.05 164.5 100.95 164.85 99.8 165.25 98.75
M 162.85 65.1
Q 162.8 65.65 162.65 66.1 162.6 68.6 163.1 70.3 163.25 70.7 163.3 71 163.7 72.4 165 72.65 166.2 71.5 165.95 69 165.7 67 165.1 65.3 164.85 64.5 164.1 64.2 163.05 63.8 162.85 65.1 Z"/>
</g>
</defs>

<g transform="matrix( 1, 0, 0, 1, 0,0) ">
<g transform="matrix( 1, 0, 0, 1, 0,0) ">
<use xlink:href="#Symbol_2_0_Layer1_0_FILL"/>
</g>

<g transform="matrix( 1, 0, 0, 1, 0,0) ">
<use xlink:href="#Symbol_2_0_Layer0_0_FILL"/>
</g>
</g>
</svg>
