<svg xmlns="http://www.w3.org/2000/svg" xmlns:xlink="http://www.w3.org/1999/xlink" preserveAspectRatio="none" width="1440" height="720"><defs><path fill="#FFDA99" d="M35.8-230q-16.2-7.8-35.8-7.8-19.4 0-35.7 7.8-12.8 6-23.6 16.8-22.5 22.5-24.5 53.5h-3v11.8h3q1.6 24.8 16.3 44.2Q-57.1-88.8-42-80v52.6h5.8l6.2 265.2h60l6.1-265.2H42v-51.9l.8-.4q30.1-17.3 39-50.9 2.4-8.8 3-17.4h2l-.1-11.7h-2q-1-11.9-5.7-23.3-6-16.6-19.6-30.2Q48.5-224 35.8-230z" id="a"/><path fill="#E8C68A" d="M8.8-83.4q-1 .9-1 2.6 1 2.5 4.5 2.5l2.2-.1q4-.6 5.6-3.7.1-1.9-1-2.7H19q-1-1.1-3.2-1.1-2 0-4 .8-1.7.5-3 1.7m25.4-1.8q-.5 1-.1 2 .2.3.6.4 1.4.5 2.7 0h.3q3.6-1.2 5-4.5-.2-2.4-2.9-1.8-3.9 1-5.6 4m-1.5-5q1.5-1.5 2.1-3.6l.1-.1q-.1-2-1.1-2.9l-1-.5-1.9-.5q-.8 0-1.4.2-3.9.7-6 3.4l-.8 1.6q-.5 1.6.1 3 .9 1 2.3 1.4 1.9.5 3.6.1 1-.2 1.8-.6 1.3-.6 2.3-1.6m21-11q-1.8 0-3 .9-2 1.4-3 3.9-.7 1.4.3 2.3.4.6 1.6.4l1-.1q3.3-1.5 4.6-5 .3-2.2-1.3-2.5h-.1m6-7.7q-.3 1.8.5 2.7h1.1q.9 0 1.4-.5 1.2-.8 2-1.9.9-1.5 1.5-3.3v-.2q.2-2-.8-2.6-.5-.3-1.1-.2l-1 .4q-2.1 1.3-3.1 3.8-.4.9-.5 1.8m-.4-17l-.7-.3q-1.2-.4-2.4.1-2.8 1.2-4.3 4-.8 1.5-.8 3.8l.1 1.3q.4 2 2 2.8.9.5 2.1.1 1-.3 1.8-.8 2.7-2 3.8-5.7v-.1q.4-3.8-1.6-5.2m14-2.7q-.8.1-1.4.7-1.5 1.9-2 4.9-.3 2.4.8 3.4.7.1 1-.1 1-.7 1.7-1.9.8-1.5 1.3-3.1v-.2q.3-2.7-1-3.7h-.3M68-141.1q-.8 0-1.4.3-3.1 1.7-3.6 6-.3 2.2.4 4.2h.1q.6 1.4 2.1 1.9l.8-.1q2-.5 2.9-2.1.9-1.7 1.3-3.6v-.2q.5-5-2.5-6.4m12.3 1.8q.1-1.5-1-1.9h-.2q-1.2 1-1.5 2.5-.5 1.8-.5 3.9l.1.2q-.1 1.7 1 2 1-.5 1.4-1.6l.7-2.2v-2.9m-42.2 32.2l-.6 1.8q-.6 2.9 1 4.4 1 .7 2.8.7 1.7-.1 2.8-.7l.3-.3q3-1.8 4.1-5.3v-.2q.1-2.6-1.1-3.8-.8-.5-1.8-.8-1-.2-2.2 0-3.6 1.1-5.3 4.2m-29.7 1.5q-.9 1.6-.8 4 0 1.1.5 1.9Q9.7-96.4 14-96q2.5.2 4.2-.6l1.6-.9q3-1.7 4.1-5.3 0-1.9-.5-3.2-1-2.5-3.4-3.5-.9-.4-1.9-.5-2.6-.3-4.3.3-3.7 1.3-5.4 4.2M33-125.3q-1.3-.1-2.3.2-3.8 1-5.6 3.8l-.6.9q-.8 1.3-.8 3.7 0 2.2.8 3.8.9 1.5 2.5 2.3 1.5.9 4 .7l1.8-.4 1.9-.7q1.5-.9 2.5-2.3t1.5-3.3l.4-1.5q0-4.1-2.5-6-1.4-1-3.6-1.2m6.1-9.5l-.4 2q0 2.8.9 4.6l.6 1q1.5 2.3 5 2.3l1-.1q3.6-1.1 5.3-4.2.8-1.6 1.3-3.5 0-2.3-.5-4.1l-.1-.4q-.7-2-2.2-3l-1.3-.7q-1.9-.8-4-.2-1 .3-1.7.8-1.6 1-2.7 2.6-.8 1.3-1.2 3M25.4-137q-1.8-3-5.1-4.4-1.9-.7-4-.6-2.3.3-4 1-3.1 1.6-4.5 4.9-.8 1.6-.8 3.8-.3 2.5.5 4.1.8 1.7 1.8 3 2.3 2.5 6.6 3h.2q4.4-.2 7-2.5 2.5-2.1 3.4-5.9.3-4-1.1-6.4M-36-88.2q-1.2-.6-2.7-.8-1.6-.3-2.4.6-.3.8 0 1.5 1.6 3.3 5.3 4.3 2.3.6 3.4-1 0-1-.4-1.7-1.2-1.9-3.3-3m10.5-8.5q-.9-.5-1.8-.6-4.2-.8-5.8 2-.3 2.2.7 3.7 1.7 3 5.7 3.8.9.2 2.1 0 1 0 2-.3v-.1q1.1-.7 1.8-1.9l-.1-.1q0-1.7-.3-2.9-1.6-2.5-4.3-3.6M-13.1-86q-4.5-.3-5.6 2.7-.1 1.3.5 2 2 2.8 6.5 3 1.6 0 2.8-.3 1.8-.5 2.6-2.2 0-1.3-.5-2-1.9-2.8-6.4-3.2m10.6-10.3q-1.7.7-3 1.8l-.7.7q-1.2 1.2-.7 3.9l.2.8q1.7 3.2 5.9 3.8 2.3.3 4.3-.3 3.8-1 5.2-4.3.2-2.5-.8-3.8-.9-1.3-2.4-2.1-1.6-.8-3.7-1-2.5-.1-4.3.5m-18-12.2q-1.3 1.1-1.8 3-.5 2.3.3 4.1 1.6 3.3 4.9 4.6 1.8.8 4.3.7l2-.3q3.7-1.2 4.8-5 0-2.9-1.2-4.7-1.9-2.8-5.6-3.8l-1-.2q-1.9-.2-3.4.1-2 .4-3.3 1.5m-7.6-16.3q-1-.4-2.1-.5-4.8 0-6.4 3l-.3.5q-1 1.7-.6 3.9.3 2.3 1.2 3.8 1.8 3 5.4 4 1 .2 2.3.2 4.3-.3 5.8-3.6l.1-.4.7-1.9q0-2.5-.8-4.1l-.3-.6q-1.6-3.1-5-4.3m25.8-.7q-1.9.6-3.3 1.6-2.7 2-3.5 5.9-.4 2.5.4 4.5 1.5 3.3 4.5 4.9 2.3 1.3 6 1 3.1-.2 5.2-1.6 2.8-2 3.8-5.8v-2.8q0-.8-.3-1.4-1.2-3.6-4.2-5.4-1.5-.9-3.5-1.2-2.8-.5-5.2.3m-9.2-15.8l-.3-.1q-1.6-.8-4.1-.6-2.1 0-3.5.8-3.3 1.4-4.8 4.7-1 2-.8 5.1.3 2.3 1 3.9 1.7 3 5.1 4.5 1.2.5 2.8.5 1.9.2 3.4 0 1.9-.5 3.3-1.5 2.8-1.8 3.8-5.7.1-.7.4-1.3 0-3.6-1.3-5.8-1.7-3-5-4.5m-35.1 31.8l-.3.9q-.2 2.5.6 4.1 1.7 3.1 5.5 4.1 1.1.3 2.2 0l1.8-.7q-.1-.2 0-.2.8-.8 1-2v-1.8q-1-3.8-3.9-5.4l-1.7-.7q-3.4-.9-5.1 1.2l-.1.5m-6.5 8.5q-.7.4-.4 1.6.9 3.3 3.5 5 1.1.6 2.9.5 1-.2 1.3-1 0-1.2-.5-2-1.3-3.4-5-4.5-1-.3-1.8.3m-10.8-13.9q-1.3 1.1-.6 3.2 1 3.8 4.2 5.4h1.1q.9-.3 1.1-1.2v-.5l-.1-1.1q-.8-3.2-3-5l-.8-.5q-.8-.6-1.8-.3m-7-13.1q-.5-.8-1.4-.6-1.3.6-1 2.6.3 3.3 2 5.2l.1.1q.4.9 1.5.9 1 0 1.3-1 .1-2.5-.6-4.3-.7-1.6-1.9-2.9m-5.3-10.8l-.2-.6q-.3-1.5-1.7-1.8-1.1 1.1-.8 3.6.2 2.2.8 3.8.3.7 1 1 1 .5 1.2-.8 0-.6.3-1 0-2.6-.5-4.3m11.6-1.7q-1-.7-2.2-.4-1.7.6-2.1 2.3-.4 1.8-.2 4.2.3 2 1.3 3.6l.6 1q.9 1.2 3 1.2 1.3-.4 1.8-1.6.6-1.1 1-2.4l-.1-1.5q-.5-4.2-3.1-6.4m9.4 14.2q-1.3-.3-2.4.3h-.1q-1 .6-1.5 1.5-.6 1.6-.3 3.4 0 .8.3 1.3 1 3.6 4 5.3 1.9 1 3.9 0v-.1q1.1-.8 1.5-2.5.2-4.8-2.4-7l-.1-.2q-.9-1.4-2.9-2m12-14.4q-2.1-.8-4 0-3 1.1-3.8 4.4l-.3 1.2q-.1 1.8.2 3.3.8 3.8 3.6 5.9 1.3 1 3.5 1.1 1.3.1 2.3-.2 1.7-.6 2.8-1.9 1-1.4 1.5-3.3v-1.6l-.1-1.8q-.2-1.4-.8-2.6-1.5-3.2-4.9-4.5M25.3-175q-.3-2.3-1-3.8-1.7-3.1-5.1-4.6-1.2-.4-2.8-.5-1.8-.3-3.3 0-2 .6-3.4 1.5-2.8 2-3.8 5.6l-.4 1.5q0 3.4 1.3 5.7 1.6 3.1 5 4.4l.3.2q1.6.8 4.2.7 2-.1 3.4-.8 3.3-1.6 4.9-4.8.8-2 .6-5.1m11.4-17.3q-1.8-3-5.6-4-.9-.3-2.2-.2-4.4.3-5.9 3.6l-.1.4-.6 1.9q0 2.5.8 4.2l.3.5q1.6 3.1 5 4.3 1 .4 2.1.4 4.9.1 6.5-3l.3-.4q.9-1.7.6-4-.3-2.2-1.2-3.7m42.6 23.6q-.3-2-.9-3.8-.2-.8-1-1-1-.4-1.2.8 0 .6-.2 1 0 2.5.4 4.3l.3.7q.4 1.3 1.7 1.6 1.2-1.2.9-3.7m-31.5-11.5q-1.4-1-3.6-1.1-1.3 0-2.3.2-1.7.5-2.8 2-1 1.3-1.5 3.2v1.6l.1 1.8q.2 1.4.8 2.5 1.5 3.3 4.9 4.6 2.2.8 4.1 0 2.9-1.1 3.8-4.3l.2-1.3q.1-1.8-.1-3.3-1-3.8-3.6-5.9m7.5-11.3q-1.8-1-3.7-.2v.2q-1.2.8-1.6 2.4-.2 5 2.4 7.1l.2.2q.9 1.4 2.9 2 1.3.3 2.4-.3 1-.7 1.6-1.6.6-1.5.3-3.3l-.3-1.3q-1.1-3.5-4.1-5.2m13.4 6.2q-.2 2.3.5 4 .6 1.8 1.8 3.1.7.8 1.5.6 1.2-.6 1-2.7-.3-3.3-2-5v-.3q-.5-.8-1.5-.8-1.2 0-1.3 1m-1.4 9.1q-.8-1.2-3-1.2-1.3.4-1.8 1.5l-.9 2.5v1.5q.6 4.2 3 6.4h.2q1 .6 2.1.3 1.7-.5 2.1-2.2.5-1.8.2-4.2-.4-2-1.2-3.5l-.7-1.1M59.5-200q-.9.3-1.1 1.2v.5l.1 1q.8 3.3 3.1 5.1l.7.5q.9.5 2 .3 1-1.1.5-3.2-1-3.8-4.1-5.4-.5-.2-1.2 0m-12-12.5q-1 .2-1.3 1 0 1.2.3 2.1 1.5 3.3 5.1 4.4 1 .3 1.8-.4.6-.3.4-1.6-.8-3.3-3.4-5-1.1-.7-3-.5m-10.2 7.3l-.1.1q-.7.8-1 2-.1 1.1.1 1.9.9 3.6 3.9 5.3.7.5 1.6.7 3.3.9 5-1.3l.3-.4.1-.8q.3-2.6-.6-4.2-1.6-3-5.5-4.1-1-.3-2.1 0-1 .3-1.7.8m-3.9-5.6q.4-2.3-.6-3.8-1.9-2.9-5.8-3.8-.9-.3-2 0l-2 .3v.1q-1.2.7-1.8 1.8v.2q0 1.7.3 3 1.6 2.3 4.4 3.6l1.7.6q4.3.7 5.8-2m-27 5.7q0 3 1 4.7 2 2.8 5.8 3.9.4.2 1 .2 1.8.2 3.3-.1 2-.4 3.4-1.5 1.2-1.1 1.7-3 .4-2.3-.3-4.2-1.6-3.2-5-4.6-1.6-.7-4.1-.6-1.3.1-2.2.4-3.6 1.2-4.6 4.8m.2-20.6q-.1 1.3.3 2 2 2.9 6.5 3.3 4.4.3 5.6-2.7 0-1.3-.5-2-2-2.8-6.6-3-1.5 0-2.8.3-1.7.6-2.5 2.2m29.4 1.9q-2.3-.6-3.4.9 0 1 .5 1.8 1 1.9 3.2 3 1.1.6 2.6.7 1.7.3 2.4-.6.3-.8 0-1.4-1.5-3.3-5.3-4.4m-9.5-3.8q1 0 1.5-.9 0-.6-.2-1-1.7-2.2-5.1-2.8-2.5-.5-3.7.8-.1.8.1 1.3 1.3 1.3 3.2 2 1.7.8 4.2.7m-105.5 62.3q1.1-.9 1.6-2.6.4-1.7.3-3.8v-.2q.2-1.7-1-2-1 .4-1.3 1.6-.3 1.2-.8 2.2v2.9q0 1.6 1 1.9h.3m15.8-10.6h-.1q-.7-1.5-2.3-1.9-.4 0-.7.2-2 .5-2.9 2.1-.8 1.6-1.3 3.5v.2q-.5 5 2.6 6.3.9.1 1.5-.1 3-1.8 3.5-6 .3-2.3-.4-4.3m-11.4-5.8v.3q-.3 2.6 1 3.6h.3q.9-.2 1.4-.7 1.7-1.9 2.2-5 .3-2.4-.9-3.3-.6-.2-1 .1-1 .7-1.6 1.9-.8 1.4-1.4 3.2M-51-188l-.1-1.3q-.4-1.9-2-2.7-1-.6-2.1-.3t-1.8.9q-2.8 2-3.8 5.7v.2q-.4 3.7 1.6 5.1l.6.3q1.3.3 2.4-.1 2.9-1.2 4.3-3.9.8-1.6.9-3.9m11.4 9.7l-.5-1q-1.5-2.3-5-2.3l-.9.2q-3.6 1-5.3 4-.8 1.7-1.4 3.6 0 2.3.5 4.1l.1.3q.7 2 2.3 3.1.4.4 1.2.6 1.9.8 4 .3 1-.3 1.7-.8 1.6-1 2.7-2.7.9-1.3 1.2-2.8.3-1 .3-2 .2-2.8-.9-4.6m16-11.5q.1-2.2-.8-3.8-.9-1.6-2.5-2.3-1.5-.9-4-.6-1 0-1.9.3l-1.8.8q-1.5.8-2.5 2.3-1 1.3-1.5 3.2l-.4 1.4q0 4.3 2.5 6 1.4 1.2 3.6 1.3v-.1h2.3q3.8-1 5.7-3.9.3-.3.4-.8 1-1.5 1-3.8m7.7 5.6h-.2q-4.4.2-7 2.4-2.5 2.3-3.4 6-.3 4 1.1 6.4 1.8 3 5.2 4.3 1.8.8 4 .7 2.3-.3 3.8-1 3.2-1.6 4.7-4.9.7-1.7.8-3.9 0-2.4-.5-4-.9-1.8-2-3-2.2-2.6-6.5-3m5.3-7.3v2.9q0 .8.2 1.3 1.2 3.6 4.2 5.3 1.5.9 3.4 1.3 2.9.5 5.3-.3 1.8-.6 3.2-1.6 2.8-2 3.5-5.9.4-2.4-.4-4.4-1.5-3.4-4.5-5.1-2.3-1.2-6-.9-3.1.2-5.2 1.7-2.7 2-3.8 5.7m2.2-25.1q-.3 2.4.7 3.8.9 1.3 2.4 2 1.6.8 3.8 1.1 2.5.2 4.3-.6 1.6-.6 3-1.7l.6-.7q1.2-1.2.8-3.8l-.3-1q-1.7-3-5.9-3.7-2.3-.3-4.3.3-3.8 1-5.1 4.3m-15.5 13q0 1.9.4 3.2 1 2.5 3.6 3.5.8.4 1.8.5 2.7.3 4.4-.3 3.5-1.3 5.3-4.3.9-1.4.8-3.9 0-1-.5-1.8-1.5-3.3-5.8-3.6-2.6-.2-4.2.5l-1.7.8q-3 1.8-4.1 5.4m1.3-13.3q-.8-1-2.3-1.4-1.9-.6-3.6-.2-1 .3-1.7.7-1.4.5-2.3 1.5-1.5 1.4-2.1 3.5v.2q0 2 1.1 2.9.4.3.9.4.9.4 2 .5h1.4q3.8-.9 5.8-3.5.5-.7.8-1.6.6-1.6 0-3m-.1-15.5q-4.5.4-6.3 3.3 0 1.2 1 1.4 3.3.5 5.6-.9l1.1-.6q1.2-.7 1.3-2.3-.4-.5-1.1-.8-1-.2-1.6-.1m-11.8 8.8q-1.4-.4-2.7 0h-.3q-3.6 1.1-5 4.4.2 2.5 2.9 1.8 3.9-.8 5.6-3.8.5-1 .1-2-.2-.3-.6-.5M-12-228l-2.3.1q-4 .7-5.7 3.8 0 1.9 1.1 2.6l.1.2q1.3.9 3.3 1 2 0 4.1-.7 1.6-.7 2.8-1.8 1-.8 1-2.5-1-2.7-4.4-2.7m5.7-4.3q0 1.5.8 2 .8.7 1.9 1 2 .6 4.3.3 1.9-.2 3.3-.9 1.1-.6 1.3-2 0-.4-.2-.7-.7-.7-1.4-1-1.2-.7-2.7-.9-5.2-.5-7.3 2.2m-42 32.6l-.1.2q-.1 2.7 1.2 3.9.7.5 1.8.7 1 .3 2.1-.2 3.6-1 5.3-4l.6-1.7q.6-3-1-4.5-1-.7-2.7-.7-1.8.1-2.8.8l-.4.2q-2.9 1.7-4 5.3m-1-12.9l-1.1.3q-3.3 1.5-4.5 4.9-.4 2.2 1.2 2.5h.2q1.8-.1 3-1 2-1.4 3-3.9.6-1.4-.2-2.3-.5-.6-1.7-.5m-11.8 12.6q-.9.2-1.4.5-1.1.7-2 2-1 1.4-1.5 3.3v.2q-.2 2 .9 2.7.4.2 1 0 .5 0 .8-.3 2.3-1.3 3.4-3.9l.5-1.8q.2-1.8-.6-2.5-.4-.2-1.1-.2z" id="b"/></defs><use xlink:href="#a" transform="matrix(1.75214 1.01158 -1.0116 1.7521 285 360)"/><use xlink:href="#b" transform="matrix(1.75214 1.01158 -1.0116 1.7521 285 360)"/><g><use xlink:href="#a" transform="matrix(-1.75195 -1.01147 1.01149 -1.75192 1155 360)"/><use xlink:href="#b" transform="matrix(-1.75195 -1.01147 1.01149 -1.75192 1155 360)"/></g></svg>
