
<svg xmlns="http://www.w3.org/2000/svg" version="1.1" xmlns:xlink="http://www.w3.org/1999/xlink" preserveAspectRatio="none" x="0px" y="0px" width="1280px" height="720px" viewBox="0 0 1280 720">
<defs>
<linearGradient id="Gradient_1" gradientUnits="userSpaceOnUse" x1="-180.35000000000002" y1="260.5" x2="271.45" y2="712.3" spreadMethod="pad">
<stop  offset="0%" stop-color="#FF9900" stop-opacity="0.28627450980392155"/>

<stop  offset="100%" stop-color="#FFF8CF"/>
</linearGradient>

<linearGradient id="Gradient_2" gradientUnits="userSpaceOnUse" x1="237.22500000000002" y1="-113.975" x2="449.975" y2="98.775" spreadMethod="pad">
<stop  offset="0%" stop-color="#FF9900" stop-opacity="0.3686274509803922"/>

<stop  offset="100%" stop-color="#FFF8CF" stop-opacity="0.4666666666666667"/>
</linearGradient>

<linearGradient id="Gradient_3" gradientUnits="userSpaceOnUse" x1="1132.3374999999999" y1="139.6125" x2="1186.7625" y2="85.1875" spreadMethod="pad">
<stop  offset="0%" stop-color="#FF9900" stop-opacity="0.3686274509803922"/>

<stop  offset="100%" stop-color="#FFF8CF"/>
</linearGradient>

<linearGradient id="Gradient_4" gradientUnits="userSpaceOnUse" x1="715.9" y1="109.42500000000001" x2="715.9" y2="724.175" spreadMethod="pad">
<stop  offset="0%" stop-color="#FFEFCA" stop-opacity="0.9686274509803922"/>

<stop  offset="100%" stop-color="#FFFFE8"/>
</linearGradient>

<linearGradient id="Gradient_5" gradientUnits="userSpaceOnUse" x1="824.45" y1="548.6875" x2="824.45" y2="355.8125" spreadMethod="pad">
<stop  offset="0%" stop-color="#FF9900" stop-opacity="0.11764705882352941"/>

<stop  offset="100%" stop-color="#FFF8CF"/>
</linearGradient>
</defs>

<g id="Layer_4">
<g transform="matrix( 1, 0, 0, 1, 0,0) ">
<g>
<g>
<path fill="#FFFFF8" stroke="none" d="
M 1282.3 724.2
L 1282.3 -8.95 -4.95 -8.95 -4.95 724.2 1282.3 724.2 Z"/>
</g>
</g>

<g>
<path stroke="#00233C" stroke-width="4" stroke-linejoin="miter" stroke-linecap="butt" stroke-miterlimit="1" fill="none" d="
M -4.95 -8.95
L 1282.3 -8.95 1282.3 724.2 -4.95 724.2 -4.95 -8.95 Z"/>
</g>
</g>
</g>

<g id="Layer_3">
<g transform="matrix( 1, 0, 0, 1, 0,0) ">
<g>
<g>
<path fill="url(#Gradient_1)" stroke="none" d="
M 195.3 344.6
Q 158.6517578125 272.1505859375 104.05 242.4 55.6177734375 216.0294921875 -6 220
L -6 724.2 476.55 724.2
Q 628.59921875 672.0478515625 590.65 612.45 545.0484375 540.8248046875 442.25 525.15 339.4533203125 509.514453125 285.7 463.3 231.9490234375 417.0970703125 195.3 344.6 Z"/>

<path fill="url(#Gradient_2)" stroke="none" d="
M 493.8 -4
L 192.85 -4
Q 194.1138671875 56.0625 237.05 98.95 281 142.95 343.35 142.95 405.7 142.95 449.9 98.95 492.5931640625 56.0625 493.8 -4 Z"/>

<path fill="url(#Gradient_3)" stroke="none" d="
M 1186.8 85.2
Q 1175.5 73.95 1159.55 73.95 1143.6 73.95 1132.35 85.2 1121.05 96.5 1121.05 112.45 1121.05 128.4 1132.35 139.65 1143.6 150.95 1159.55 150.95 1175.5 150.95 1186.8 139.65 1198.05 128.4 1198.05 112.45 1198.05 96.5 1186.8 85.2 Z"/>
</g>
</g>
</g>
</g>

<g id="Layer_2">
<g transform="matrix( 1, 0, 0, 1, 0,0) ">
<g>
<g>
<path fill="url(#Gradient_4)" stroke="none" d="
M 468.8 625.1
Q 420.91640625 680.710546875 361.55 699.4 302.178125 718.0857421875 149.55 724.2
L 1282.3 724.2 1282.3 112.85
Q 1273.44921875 111.96484375 1264.55 111.25 1188.95 105.15 1114.6 118.95 1036.95 133.35 985.7 182.3 937.05 228.75 907.05 285.65 876.3 343.9 832.6 395.1 785.15 450.65 705.05 464.45 626.45 477.95 570.3 524.8 516.69453125 569.5462890625 468.8 625.1 Z"/>
</g>
</g>
</g>
</g>

<g id="Layer_1">
<g transform="matrix( 1, 0, 0, 1, 0,0) ">
<g>
<g>
<path fill="url(#Gradient_5)" stroke="none" d="
M 892.9 384.2
Q 864.6 355.9 824.6 355.75 784.65 355.9 756.3 384.1 728.1 412.4 728.1 452.25 728.1 492.4 756.45 520.7 784.65 548.9 824.6 548.75 864.6 548.9 892.8 520.6 921.1 492.4 921.1 452.25 921.1 412.4 892.9 384.2 Z"/>
</g>
</g>
</g>
</g>
</svg>
