
<svg xmlns="http://www.w3.org/2000/svg" version="1.1" xmlns:xlink="http://www.w3.org/1999/xlink" preserveAspectRatio="none" x="0px" y="0px" width="1280px" height="720px" viewBox="0 0 1280 720">
<defs>
<radialGradient id="Gradient_1" gradientUnits="userSpaceOnUse" cx="0" cy="0" r="352.9125" fx="-1.2711563632473246e-14" fy="-207.59558823529414" gradientTransform="matrix( 0, -1, 1, 0, 640,360) " spreadMethod="pad">
<stop  offset="0%" stop-color="#DCEDFF"/>

<stop  offset="100%" stop-color="#BCDEFF"/>
</radialGradient>

<linearGradient id="Gradient_2" gradientUnits="userSpaceOnUse" x1="393.3" y1="460.83750000000003" x2="466.59999999999997" y2="333.8625" spreadMethod="pad">
<stop  offset="21.176470588235293%" stop-color="#98CCFF"/>

<stop  offset="100%" stop-color="#BCDEFF" stop-opacity="0"/>
</linearGradient>

<linearGradient id="Gradient_3" gradientUnits="userSpaceOnUse" x1="700.15" y1="641.3874999999999" x2="773.4499999999999" y2="514.4125" spreadMethod="pad">
<stop  offset="21.176470588235293%" stop-color="#98CCFF"/>

<stop  offset="100%" stop-color="#BCDEFF" stop-opacity="0"/>
</linearGradient>

<linearGradient id="Gradient_4" gradientUnits="userSpaceOnUse" x1="1009.1" y1="462.0375" x2="1082.4" y2="335.0625" spreadMethod="pad">
<stop  offset="21.176470588235293%" stop-color="#98CCFF"/>

<stop  offset="100%" stop-color="#BCDEFF" stop-opacity="0"/>
</linearGradient>

<linearGradient id="Gradient_5" gradientUnits="userSpaceOnUse" x1="2.7125000000000004" y1="-22.337500000000002" x2="14.387500000000001" y2="-42.5625" spreadMethod="pad">
<stop  offset="0%" stop-color="#4DA897" stop-opacity="0.9882352941176471"/>

<stop  offset="100%" stop-color="#4DA897" stop-opacity="0.24705882352941178"/>
</linearGradient>

<linearGradient id="Gradient_6" gradientUnits="userSpaceOnUse" x1="308.77500000000003" y1="310.55" x2="339.825" y2="310.55" spreadMethod="pad">
<stop  offset="0%" stop-color="#FF6666" stop-opacity="0.9882352941176471"/>

<stop  offset="100%" stop-color="#FF6666" stop-opacity="0.24705882352941178"/>
</linearGradient>

<linearGradient id="Gradient_7" gradientUnits="userSpaceOnUse" x1="625.2375" y1="498" x2="636.3625" y2="478.70000000000005" spreadMethod="pad">
<stop  offset="0%" stop-color="#CC33CC"/>

<stop  offset="100%" stop-color="#CC33CC" stop-opacity="0.24705882352941178"/>
</linearGradient>

<linearGradient id="Gradient_8" gradientUnits="userSpaceOnUse" x1="923.95" y1="309.8" x2="954.05" y2="309.8" spreadMethod="pad">
<stop  offset="0%" stop-color="#6666FF"/>

<stop  offset="100%" stop-color="#6666FF" stop-opacity="0.24705882352941178"/>
</linearGradient>

<linearGradient id="Gradient_9" gradientUnits="userSpaceOnUse" x1="342.29999999999995" y1="362.4" x2="612.5" y2="362.4" spreadMethod="pad">
<stop  offset="0%" stop-color="#FF8686"/>

<stop  offset="100%" stop-color="#DB70FF"/>
</linearGradient>

<linearGradient id="Gradient_10" gradientUnits="userSpaceOnUse" x1="342.29999999999995" y1="362.4" x2="612.5" y2="362.4" spreadMethod="pad">
<stop  offset="0%" stop-color="#9E9EFF"/>

<stop  offset="100%" stop-color="#DB70FF"/>
</linearGradient>

<linearGradient id="Gradient_11" gradientUnits="userSpaceOnUse" x1="455.8" y1="368.65" x2="603.2" y2="368.65" spreadMethod="pad">
<stop  offset="0%" stop-color="#9E9EFF" stop-opacity="0"/>

<stop  offset="100%" stop-color="#9E9EFF"/>
</linearGradient>

<linearGradient id="Gradient_12" gradientUnits="userSpaceOnUse" x1="455.8" y1="368.65" x2="603.2" y2="368.65" spreadMethod="pad">
<stop  offset="0%" stop-color="#FF8686" stop-opacity="0"/>

<stop  offset="100%" stop-color="#FF8686"/>
</linearGradient>

<filter id="Filter_1" x="-20%" y="-20%" width="140%" height="140%" color-interpolation-filters="sRGB">
<feColorMatrix in="SourceGraphic" type="matrix" values="-0.12970638243896412 1.722314917755945 -0.5926085353169809 0 0 0.24036940549721902 0.4245593092026793 0.3350712853001016 0 0 0.9527907375978687 0.6268713640958063 -0.5796621016936749 0 0 0 0 0 1 0 " result="result1"/>
</filter>

<filter id="Filter_2" x="-20%" y="-20%" width="140%" height="140%" color-interpolation-filters="sRGB">
<feColorMatrix in="SourceGraphic" type="matrix" values="1 0 0 0 0 0 1 0 0 0 0 0 1 0 0 0 0 0 1 0 " result="result1"/>
</filter>

<filter id="Filter_3" x="-20%" y="-20%" width="140%" height="140%" color-interpolation-filters="sRGB">
<feColorMatrix in="SourceGraphic" type="matrix" values="-0.5740000000000001 1.43 0.14399999999999988 0 0 0.426 0.42999999999999994 0.14400000000000002 0 0 0.4260000000000001 1.43 -0.8560000000000001 0 0 0 0 0 1 0 " result="result1"/>
</filter>
</defs>

<g id="Layer_3">
<g transform="matrix( 1, 0, 0, 1, 0,0) ">
<g>
<g>
<path fill="url(#Gradient_1)" stroke="none" d="
M 1280 720
L 1280 0 0 0 0 720 1280 720 Z"/>
</g>
</g>
</g>
</g>

<g id="Layer_10">
<g transform="matrix( 1, 0, 0, 1, 0,0) ">
<g>
<g>
<path fill="url(#Gradient_2)" stroke="none" d="
M 555 363.7
L 475.95 319.9 235.7 459.55 313.3 504.2 555 363.7 Z"/>

<path fill="url(#Gradient_3)" stroke="none" d="
M 861.85 544.25
L 782.75 500.45 542.55 640.1 620.15 684.75 861.85 544.25 Z"/>

<path fill="url(#Gradient_4)" stroke="none" d="
M 1170.8 364.9
L 1091.75 321.1 851.5 460.75 929.1 505.4 1170.8 364.9 Z"/>
</g>
</g>
</g>
</g>

<g id="Layer_4">
<g filter="url(#Filter_1)" transform="matrix( 1, 0, 0, 1, 0,0) ">
<g transform="matrix( 1.7899932861328125, 0, 0, 1.7899932861328125, 312.8,413.9) ">
<g id="Layer_1">
<g transform="matrix( 1, 0, 0, 1, 0,0) ">
<g>
<g>
<path fill="#62C6B2" stroke="none" d="
M 0 50.45
L 0 0.4 -43.1 -24.7 -43.1 25.35 0 50.45 Z"/>

<path fill="#4DA897" stroke="none" d="
M 0 0.4
L 0 50.45 43.1 25.35 43.1 -24.7 0 0.4 Z"/>

<path fill="#86DCCB" stroke="none" d="
M 43.1 -24.7
L 0 -50.4 -43.1 -24.7 0 0.4 43.1 -24.7 Z"/>
</g>
</g>
</g>
</g>

<g id="Layer_2">
<g transform="matrix( 1, 0, 0, 1, 0,0) ">
<g>
<g>
<path fill="url(#Gradient_5)" stroke="none" d="
M 28.9 -33.1
L 10.75 -44.05 -0.1 -24.7 28.9 -33.1 Z"/>
</g>
</g>
</g>
</g>

<g id="Layer_3"/>
</g>
</g>

<g filter="url(#Filter_2)" transform="matrix( 1, 0, 0, 1, 0,0) ">
<g transform="matrix( 1.7899932861328125, 0, 0, 1.7899932861328125, 620.1,594.4) ">
<g id="Layer_1">
<g transform="matrix( 1, 0, 0, 1, 0,0) ">
<g>
<g>
<path fill="#62C6B2" stroke="none" d="
M 0 50.45
L 0 0.4 -43.1 -24.7 -43.1 25.35 0 50.45 Z"/>

<path fill="#4DA897" stroke="none" d="
M 0 0.4
L 0 50.45 43.1 25.35 43.1 -24.7 0 0.4 Z"/>

<path fill="#86DCCB" stroke="none" d="
M 43.1 -24.7
L 0 -50.4 -43.1 -24.7 0 0.4 43.1 -24.7 Z"/>
</g>
</g>
</g>
</g>

<g id="Layer_2">
<g transform="matrix( 1, 0, 0, 1, 0,0) ">
<g>
<g>
<path fill="url(#Gradient_5)" stroke="none" d="
M 28.9 -33.1
L 10.75 -44.05 -0.1 -24.7 28.9 -33.1 Z"/>
</g>
</g>
</g>
</g>

<g id="Layer_3"/>
</g>
</g>

<g filter="url(#Filter_3)" transform="matrix( 1, 0, 0, 1, 0,0) ">
<g transform="matrix( 1.7899932861328125, 0, 0, 1.7899932861328125, 928.6,415.05) ">
<g id="Layer_1">
<g transform="matrix( 1, 0, 0, 1, 0,0) ">
<g>
<g>
<path fill="#62C6B2" stroke="none" d="
M 0 50.45
L 0 0.4 -43.1 -24.7 -43.1 25.35 0 50.45 Z"/>

<path fill="#4DA897" stroke="none" d="
M 0 0.4
L 0 50.45 43.1 25.35 43.1 -24.7 0 0.4 Z"/>

<path fill="#86DCCB" stroke="none" d="
M 43.1 -24.7
L 0 -50.4 -43.1 -24.7 0 0.4 43.1 -24.7 Z"/>
</g>
</g>
</g>
</g>

<g id="Layer_2">
<g transform="matrix( 1, 0, 0, 1, 0,0) ">
<g>
<g>
<path fill="url(#Gradient_5)" stroke="none" d="
M 28.9 -33.1
L 10.75 -44.05 -0.1 -24.7 28.9 -33.1 Z"/>
</g>
</g>
</g>
</g>

<g id="Layer_3"/>
</g>
</g>
</g>

<g id="Layer_11">
<g transform="matrix( 1, 0, 0, 1, 0,0) ">
<g>
<g>
<path fill="#FF8686" stroke="none" d="
M 335.35 329.1
Q 339.95 326.45 342.25 323.2 344.55 320 344.55 316.25 344.55 308.7 335.35 303.35 326.2 298 313.25 298 300.3 298 291.1 303.35 281.95 308.7 281.95 316.25 281.95 319.6 283.85 322.55 283.9 322.75 284.05 323 286.4 326.35 291.1 329.1 300.3 334.45 313.25 334.45 326.2 334.45 335.35 329.1 Z"/>

<path fill="#FF6666" stroke="none" d="
M 342.25 323.2
Q 339.95 326.45 335.35 329.1 326.2 334.45 313.25 334.45 300.3 334.45 291.1 329.1 286.4 326.35 284.05 323
L 313.25 371 342.25 323.2 Z"/>

<path fill="#CC33CC" stroke="none" d="
M 635.55 511.05
Q 628.7 513.3 620.3 513.3 611.95 513.3 605.1 511.05 601.4 509.9 598.15 508 593.45 505.2 591.15 501.85
L 620.3 549.85 649.3 502.1
Q 647 505.35 642.4 508 639.2 509.9 635.55 511.05 Z"/>

<path fill="#DB70FF" stroke="none" d="
M 649.3 502.1
Q 651.6 498.9 651.6 495.1 651.6 487.55 642.4 482.25 633.25 476.85 620.3 476.85 607.4 476.85 598.15 482.25 589 487.55 589 495.1 589 498.5 590.9 501.45 590.95 501.6 591.15 501.85 593.45 505.2 598.15 508 601.4 509.9 605.1 511.05 611.95 513.3 620.3 513.3 628.7 513.3 635.55 511.05 639.2 509.9 642.4 508 647 505.35 649.3 502.1 Z"/>

<path fill="#9E9EFF" stroke="none" d="
M 950.5 329.1
Q 955.1 326.45 957.4 323.2 959.7 320 959.7 316.25 959.7 308.7 950.5 303.35 941.3 298 928.4 298 915.45 298 906.25 303.35 897.1 308.7 897.1 316.25 897.1 319.6 899 322.55 899.05 322.75 899.2 323 901.5 326.35 906.25 329.1 915.45 334.45 928.4 334.45 941.3 334.45 950.5 329.1 Z"/>

<path fill="#6666FF" stroke="none" d="
M 957.4 323.2
Q 955.1 326.45 950.5 329.1 941.3 334.45 928.4 334.45 915.45 334.45 906.25 329.1 901.5 326.35 899.2 323
L 928.4 371 957.4 323.2 Z"/>
</g>
</g>
</g>
</g>

<g id="Layer_14">
<g transform="matrix( 1, 0, 0, 1, 0,0) ">
<g>
<g>
<path fill="url(#Gradient_6)" stroke="none" d="
M 339.9 306.6
Q 337.75 304.65 334.15 302.85 330.55 300.95 329.55 300.65
L 309.1 312.65
Q 309.05 312.9 309 313.15 308.4 315.5 309.65 317.6 310.9 319.75 313.3 320.3 315.6 320.9 317.75 319.65
L 339.9 306.6 Z"/>
</g>
</g>
</g>
</g>

<g id="Layer_13">
<g transform="matrix( 1, 0, 0, 1, 0,0) ">
<g>
<g>
<path fill="url(#Gradient_7)" stroke="none" d="
M 642.4 482.25
Q 638.15 479.75 635.2 479.05
L 616 490.15
Q 615.95 490.4 615.9 490.7 615.3 493 616.55 495.1 617.8 497.25 620.2 497.85 622.5 498.4 624.65 497.2
L 645.85 484.55
Q 644.3 483.35 642.4 482.25 Z"/>

<path fill="url(#Gradient_8)" stroke="none" d="
M 932.9 318.5
L 954.1 305.85
Q 952.55 304.65 950.65 303.55 946.4 301.05 943.45 300.35
L 924.25 311.45
Q 924.2 311.7 924.15 312 923.55 314.3 924.8 316.4 926.05 318.55 928.45 319.15 930.75 319.75 932.9 318.5 Z"/>
</g>
</g>
</g>
</g>

<g id="Layer_8_copy">
<g transform="matrix( 1.1810455322265625, 0.6788482666015625, 0, 1.1810455322265625, -97.2,-427.5) ">
<g transform="matrix( 0.8466949462890625, -0.486663818359375, 0, 0.8466949462890625, 82.25,314.65) ">
<path stroke="url(#Gradient_9)" stroke-width="10" stroke-linejoin="miter" stroke-linecap="round" stroke-miterlimit="3" fill="none" d="
M 312.9771133422852 313.1019157409668
Q 312.9771133422852 249.44356155395508 357.9749481201172 230.30984573364253 402.97278289794923 211.1761299133301 466.6311370849609 247.76605148315434 530.2894912719726 284.35597305297847 575.2873260498046 355.21792678833003 620.2851608276367 426.0798805236816 620.2851608276367 489.7382347106934"/>
</g>
</g>

<g transform="matrix( -1.1810455322265625, 0.6788482666015625, 0, 1.1810455322265625, 1338.25,-428.7) ">
<g transform="matrix( -0.8466949462890625, 0.486663818359375, 0, 0.8466949462890625, 1133.1,-288.3) ">
<path stroke="url(#Gradient_10)" stroke-width="10" stroke-linejoin="miter" stroke-linecap="round" stroke-miterlimit="3" fill="none" d="
M 928.0728866577149 311.9019157409668
Q 928.0728866577149 248.2435615539551 883.0750518798828 229.10984573364254 838.0772171020508 209.9761299133301 774.4188629150391 246.56605148315435 710.7605087280274 283.1559730529785 665.7626739501953 354.01792678833004 620.7648391723633 424.8798805236816 620.7648391723633 488.5382347106934"/>
</g>
</g>

<g transform="matrix( -0.7651824951171875, 0.439788818359375, 0, 0.7651824951171875, 1393.05,-282.45) ">
<g transform="matrix( -1.3068695068359375, 0.7511138916015625, 0, 1.3068695068359375, 1820.5,-677.2) ">
<path stroke="url(#Gradient_11)" stroke-width="10" stroke-linejoin="miter" stroke-linecap="round" stroke-miterlimit="3" fill="none" d="
M 1061.8024978637695 141.468276977539
Q 1030.5830520629884 148.04870071411136 999.2105697631835 175.530046081543 967.8380874633788 203.0496505737305 948.0198608398437 240.95375442504888 928.2016342163085 278.89611740112304 928.2016342163085 311.7989646911621"/>
</g>
</g>

<g transform="matrix( 0.7651824951171875, 0.439788818359375, 0, 0.7651824951171875, -152,-281.15) ">
<g transform="matrix( 1.3068695068359375, -0.7511138916015625, 0, 1.3068695068359375, 198.6,253.25) ">
<path stroke="url(#Gradient_12)" stroke-width="10" stroke-linejoin="miter" stroke-linecap="round" stroke-miterlimit="3" fill="none" d="
M 179.24750213623042 142.76827697753902
Q 210.4669479370117 149.34870071411137 241.83943023681644 176.830046081543 273.2119125366211 204.34965057373051 293.0301391601563 242.2537544250489 312.8483657836914 280.19611740112305 312.8483657836914 313.0989646911621"/>
</g>
</g>
</g>
</svg>
