
<svg xmlns="http://www.w3.org/2000/svg" version="1.1" xmlns:xlink="http://www.w3.org/1999/xlink" preserveAspectRatio="none" x="0px" y="0px" width="64px" height="64px" viewBox="0 0 64 64">
<defs/>

<g id="Layer_1"/>

<g id="Layer_2">
<g transform="matrix( 1, 0, 0, 1, 0,0) ">
<g>
<g>
<path fill="#D0515C" stroke="none" d="
M 48 32
Q 48 25.35 43.3 20.7 38.65 16 32 16 25.4 16 20.7 20.7 16 25.35 16 32 16 38.6 20.7 43.3 25.4 48 32 48 38.65 48 43.3 43.3 48 38.6 48 32 Z"/>
</g>
</g>
</g>
</g>

<g id="Layer_3">
<g transform="matrix( 1, 0, 0, 1, 0,0) ">
<g>
<g>
<path fill="#D0515C" stroke="none" d="
M 42.6 61.15
Q 42.9849609375 61.333984375 43.35 61.15 46.2669921875 60.035546875 48.9 58.25 49.2431640625 58.0494140625 49.3 57.65 49.4060546875 57.2453125 49.15 56.9 48.949609375 56.555859375 48.55 56.45 48.1462890625 56.394140625 47.8 56.6 45.3330078125 58.2642578125 42.6 59.3 42.24140625 59.4736328125 42.05 59.85 41.9158203125 60.2353515625 42.05 60.6 42.2234375 61.0087890625 42.6 61.15
M 56.55 51.3
Q 56.839453125 51.0060546875 56.8 50.6 56.7521484375 50.18828125 56.4 49.9 56.1068359375 49.6603515625 55.7 49.7 55.2884765625 49.748828125 55 50.05 53.9595703125 51.38671875 52.7 52.65 51.8240234375 53.5107421875 50.9 54.25 50.5845703125 54.5537109375 50.55 54.95 50.5111328125 55.384375 50.75 55.7 51.053125 56.0158203125 51.45 56.05 51.883984375 56.08828125 52.2 55.8 53.17578125 54.9892578125 54.1 54.05 55.440234375 52.71328125 56.55 51.3
M 20.65 60.1
Q 20.821484375 59.729296875 20.65 59.35 20.539453125 58.9677734375 20.15 58.8 17.5041015625 57.591015625 15.05 55.85 14.748046875 55.6087890625 14.35 55.65 13.94296875 55.7400390625 13.7 56.05 13.4580078125 56.401953125 13.5 56.8 13.5900390625 57.20625 13.9 57.45 16.495703125 59.308984375 19.3 60.6 19.709375 60.771484375 20.1 60.6 20.4822265625 60.478125 20.65 60.1
M 22.6 60.75
Q 22.4794921875 61.1673828125 22.65 61.5 22.8779296875 61.8865234375 23.25 62 26.1708984375 62.8337890625 29.3 63.1 29.7353515625 63.12578125 30.05 62.85 30.3662109375 62.5837890625 30.4 62.15 30.426171875 61.7650390625 30.15 61.45 29.8833984375 61.133984375 29.45 61.1 26.5291015625 60.8662109375 23.8 60.1 23.4322265625 59.9796875 23.05 60.15 22.71328125 60.3775390625 22.6 60.75
M 33.25 61.15
Q 32.860546875 61.1681640625 32.55 61.45 32.2888671875 61.7703125 32.3 62.15 32.3177734375 62.5892578125 32.6 62.85 32.9205078125 63.1607421875 33.3 63.15 36.52890625 63.0458984375 39.45 62.35 39.8783203125 62.27890625 40.1 61.9 40.319140625 61.575390625 40.2 61.15 40.129296875 60.771875 39.75 60.55 39.4251953125 60.3310546875 39 60.4 36.2708984375 61.05390625 33.25 61.15
M 7.75 48.7
Q 7.3380859375 48.645703125 7 48.9 6.6640625 49.144140625 6.6 49.55 6.54609375 49.961328125 6.8 50.3 8.2244140625 52.2251953125 10 54 10.023046875 54.026953125 10.05 54.05 10.37265625 54.4271484375 10.75 54.75 11.0646484375 55.025390625 11.45 55 11.883203125 54.9666015625 12.15 54.65 12.4259765625 54.3357421875 12.4 53.9 12.366015625 53.5173828125 12.05 53.25 11.7541015625 52.995703125 11.5 52.7 11.4744140625 52.6744140625 11.45 52.65 9.75546875 50.9474609375 8.4 49.1 8.15546875 48.76484375 7.75 48.7
M 2.25 40.4
Q 2.0794921875 40.7849609375 2.2 41.15 3.0767578125 44.128515625 4.55 46.85 4.7767578125 47.234765625 5.15 47.35 5.566015625 47.470703125 5.9 47.25 6.2859375 47.0734375 6.4 46.65 6.5203125 46.2849609375 6.3 45.9 4.9232421875 43.3712890625 4.1 40.6 3.98515625 40.22578125 3.6 40 3.2654296875 39.829296875 2.85 39.95 2.4759765625 40.0646484375 2.25 40.4
M 2.6 30.35
Q 2.3107421875 30.053515625 1.9 30.05 1.4892578125 30.053515625 1.2 30.35 0.903515625 30.6392578125 0.9 31.05 0.9 31.55 0.9 32.05 0.894921875 34.62734375 1.25 37.05 1.3140625 37.4546875 1.65 37.7 1.9875 37.9541015625 2.4 37.9 2.8052734375 37.8361328125 3.05 37.5 3.30390625 37.1630859375 3.25 36.75 2.905078125 34.47265625 2.9 32.05 2.9 31.55 2.9 31.05 2.896484375 30.6392578125 2.6 30.35
M 4.1 20.45
Q 3.7212890625 20.3283203125 3.35 20.5 2.97265625 20.6671875 2.8 21.05 1.7267578125 23.8955078125 1.25 27 1.19609375 27.411328125 1.45 27.75 1.6943359375 28.0859375 2.1 28.15 2.512109375 28.204296875 2.85 27.95 3.185546875 27.7064453125 3.25 27.3 3.6732421875 24.4044921875 4.65 21.75 4.8212890625 21.3712890625 4.65 21 4.4828125 20.6224609375 4.1 20.45
M 9.45 12.1
Q 9.13515625 11.823828125 8.7 11.85 8.316796875 11.884375 8.05 12.2 5.9765625 14.6330078125 4.5 17.3 4.3298828125 17.68515625 4.45 18.05 4.5646484375 18.4740234375 4.9 18.65 5.284765625 18.870703125 5.65 18.75 6.0732421875 18.6349609375 6.25 18.25 7.623046875 15.7669921875 9.55 13.5 9.8255859375 13.184375 9.8 12.75 9.7662109375 12.36640625 9.45 12.1
M 17.25 5.65
Q 17.0287109375 5.3212890625 16.6 5.2 16.225390625 5.13125 15.85 5.35 13.295703125 6.9533203125 10.95 9.1 10.66796875 9.4115234375 10.65 9.8 10.6388671875 10.2296875 10.9 10.5 11.210546875 10.83203125 11.6 10.85 12.0294921875 10.86015625 12.3 10.55 14.5041015625 8.546484375 16.9 7.05 17.278515625 6.8279296875 17.35 6.4 17.46953125 6.0251953125 17.25 5.65
M 26.5 2.35
Q 26.444140625 1.9501953125 26.1 1.7 25.7552734375 1.494140625 25.35 1.55 22.2953125 2.1890625 19.5 3.4 19.1240234375 3.604296875 18.95 4 18.816015625 4.3779296875 18.95 4.75 19.1541015625 5.1271484375 19.55 5.25 19.9267578125 5.433984375 20.3 5.25 22.9044921875 4.1109375 25.75 3.5 26.14921875 3.4439453125 26.35 3.1 26.6060546875 2.7544921875 26.5 2.35
M 35.65 3.1
Q 36.055078125 3.1396484375 36.35 2.85 36.7013671875 2.612890625 36.75 2.2 36.7900390625 1.79453125 36.5 1.45 36.2630859375 1.148828125 35.85 1.1 34.0013671875 0.896875 32.05 0.9 30.7625 0.8984375 29.45 1 29.0658203125 1.0341796875 28.8 1.35 28.523828125 1.66484375 28.55 2.05 28.5837890625 2.4837890625 28.9 2.75 29.215234375 3.02578125 29.6 3 30.8375 2.9015625 32.05 2.9 33.8984375 2.9029296875 35.65 3.1
M 61.5 31.35
Q 61.203515625 31.6392578125 61.2 32.05 61.204296875 35.059375 60.65 37.85 60.59453125 38.2822265625 60.8 38.6 61.064453125 38.9578125 61.45 39 61.8814453125 39.1056640625 62.2 38.85 62.5576171875 38.6349609375 62.6 38.2 63.195703125 35.240625 63.2 32.05 63.196484375 31.6392578125 62.9 31.35 62.6107421875 31.053515625 62.2 31.05 61.7892578125 31.053515625 61.5 31.35
M 58.35 48.35
Q 58.7427734375 48.2642578125 58.95 47.9 60.5607421875 45.2169921875 61.55 42.25 61.6833984375 41.8767578125 61.5 41.5 61.315234375 41.1302734375 60.9 41 60.5271484375 40.86640625 60.15 41.05 59.7802734375 41.2349609375 59.65 41.6 58.7390625 44.3828125 57.25 46.9 57.030859375 47.253125 57.1 47.65 57.2353515625 48.0435546875 57.6 48.25 57.9529296875 48.469921875 58.35 48.35
M 60.15 18.4
Q 58.810546875 15.6205078125 56.85 13.05 56.5888671875 12.7498046875 56.15 12.7 55.771484375 12.6466796875 55.45 12.9 55.112109375 13.16015625 55.05 13.55 54.9974609375 13.990625 55.25 14.3 57.0892578125 16.679296875 58.35 19.25 58.5328125 19.654296875 58.9 19.8 59.3078125 19.9337890625 59.65 19.75 60.05546875 19.5671875 60.2 19.15 60.3337890625 18.793359375 60.15 18.4
M 44.9 5.85
Q 45.2791015625 6.0333984375 45.65 5.9 46.0662109375 5.7689453125 46.25 5.4 46.4337890625 5.0216796875 46.3 4.6 46.16796875 4.233984375 45.8 4.05 42.953515625 2.65234375 39.9 1.85 39.5041015625 1.78046875 39.15 2 38.7857421875 2.2060546875 38.65 2.6 38.580078125 2.996484375 38.8 3.35 39.0052734375 3.713671875 39.4 3.8 42.246484375 4.54765625 44.9 5.85
M 52.7 11.4
Q 52.9923828125 11.7091796875 53.4 11.7 53.823828125 11.69609375 54.1 11.4 54.4099609375 11.1080078125 54.4 10.7 54.3955078125 10.276953125 54.1 9.95 51.8283203125 7.7662109375 49.35 6.1 49.003515625 5.894140625 48.6 5.95 48.2001953125 6.055859375 47.95 6.4 47.7439453125 6.7453125 47.8 7.15 47.9068359375 7.5494140625 48.25 7.75 50.5716796875 9.333984375 52.7 11.4
M 61.7 22.2
Q 61.56953125 21.8349609375 61.2 21.65 60.8228515625 21.46640625 60.4 21.6 60.034765625 21.7302734375 59.85 22.1 59.66640625 22.4767578125 59.8 22.85 60.7130859375 25.6171875 61 28.6 61.0478515625 29.01171875 61.35 29.25 61.6923828125 29.539453125 62.1 29.5 62.5109375 29.45234375 62.75 29.1 63.0390625 28.8068359375 63 28.4 62.68671875 25.1828125 61.7 22.2 Z"/>
</g>
</g>

<g>
<path stroke="#D0515C" stroke-width="2" stroke-linejoin="round" stroke-linecap="round" fill="none" d="
M 56 32
Q 56 41.9 49 48.95 41.9 56 32 56 22.05 56 15.05 48.95 8 41.9 8 32 8 22.05 15.05 15 22.05 8 32 8 41.9 8 49 15 56 22.05 56 32 Z"/>
</g>
</g>
</g>
</svg>
