
<svg xmlns="http://www.w3.org/2000/svg" version="1.1" xmlns:xlink="http://www.w3.org/1999/xlink" preserveAspectRatio="none" x="0px" y="0px" width="64px" height="64px" viewBox="0 0 64 64">
<defs/>

<g id="Layer_3">
<g transform="matrix( 1, 0, 0, 1, 0,0) ">
<g>
<path stroke="#D0515C" stroke-width="2" stroke-linejoin="round" stroke-linecap="round" fill="none" d="
M 20.25 57
L 20.25 33 17.25 33 17 29.7 15.25 7 25.25 7 23.5 29.7 23.25 33 20.25 33
M 23.5 29.7
L 17 29.7"/>
</g>
</g>
</g>

<g id="Layer_4">
<g transform="matrix( 1, 0, 0, 1, 0,0) ">
<g>
<path stroke="#D0515C" stroke-width="2" stroke-linejoin="round" stroke-linecap="round" fill="none" d="
M 46.6 18.3
Q 49 15.95 49 12.65 49 9.35 46.6 7 46.7 8.25 46.7 10.35 46.7 12.7 44.95 14.35 43.3 16.1 40.95 16.1 38.6 16.1 36.9 14.35 36 13.45 35.55 12.25 35.25 11.4 35.25 10.35 35.25 8.25 35.35 7 33.75 8.6 33.25 10.7 33 11.6 33 12.65 33 15.95 35.35 18.3 35.45 18.4 35.5 18.45 36.65 19.55 38 20.1
L 38 54
Q 38 55.25 38.85 56.1 39.75 57 41 57 42.25 57 43.1 56.1 44 55.25 44 54
L 44 20.1
Q 45.35 19.55 46.45 18.45 46.55 18.4 46.6 18.3 Z"/>
</g>
</g>
</g>
</svg>
