<svg xmlns="http://www.w3.org/2000/svg" version="1" viewBox="0 0 1092 1486"><path fill="#6F9BFF" d="M133 904q-164 121-71 261 93 141 282 261t398 3q209-118 252-186 44-68 32-137-29-165-380-243-350-79-513 41z"/><path fill="#FFC13F" d="M465 965q654 199 626-168-29-367-388-451-360-84-626 168-266 253 388 451z"/><path fill="#D0515C" d="M1088 370q14-50-12-95-23-39-59-68-38-30-81-54-43-25-87-45-45-20-90-37t-92-30q-44-13-90-22-45-9-90-14-44-5-89-5-44 0-88 3-47 4-94 14-48 11-90 34-45 25-72 67-25 39-31 86-7 46-1 92 6 45 16 89 10 45 24 89t34 85q23 44 63 74l11 7q43 18 90 18 44 0 88-4l86-10 88-16 83-17 90-20 83-23q46-13 91-30 43-16 84-37 45-22 83-53 38-32 52-78z"/></svg>
