
<svg xmlns="http://www.w3.org/2000/svg" version="1.1" xmlns:xlink="http://www.w3.org/1999/xlink" preserveAspectRatio="none" x="0px" y="0px" width="960px" height="960px" viewBox="0 0 960 960">
<defs/>

<g id="Layer_2">
<g transform="matrix( 1, 0, 0, 1, 0,0) ">
<g>
<g>
<path fill="#D0515C" stroke="none" d="
M 801.75 158.3
Q 761.35 117.9 715.95 89.8 611.4 25 480 25 291.55 25 158.3 158.3 25 291.55 25 480 25 668.45 158.3 801.75 291.55 935 480 935 668.45 935 801.75 801.75 857.6 745.85 890.05 680.3 935 589.45 935 480 935 291.55 801.75 158.3
M 660.85 233.3
L 660.85 372.45 493.9 414.2 466.05 414.2 466.05 414.15 410.45 400.3 410.45 354.2 354.8 340.3 354.8 386.4 299.15 372.5 299.15 233.35 466.05 275.05 466.05 275.05 493.9 275.05 660.85 233.3
M 800 539.45
L 800 692.5 493.9 762.05 466.05 762.05 160 692.5 160 539.45 466.1 609 493.9 609 800 539.45
M 730.4 386.35
L 730.4 525.5 493.9 581.15 466.1 581.15 466.1 581.2 229.55 525.55 229.55 386.4 466.1 442.05 493.9 442.05 730.4 386.35
M 480 247.25
L 466.1 247.25 299.15 205.5 480 135.95 480 247.25
M 493.95 247.25
L 480.05 247.25 480.05 135.95 660.9 205.5 493.95 247.25 Z"/>
</g>
</g>
</g>
</g>

<g id="Layer_3"/>

<g id="Layer_1"/>

<g id="Layer_4"/>
</svg>
