
<svg xmlns="http://www.w3.org/2000/svg" version="1.1" xmlns:xlink="http://www.w3.org/1999/xlink" preserveAspectRatio="none" x="0px" y="0px" width="1092px" height="1321px" viewBox="0 0 1092 1321">
<defs/>

<g id="Layer_6">
<g transform="matrix( 1, 0, 0, 1, 0,0) ">
<g>
<g>
<path fill="#FFC13F" stroke="none" d="
M 1956.5 704.2
L 2012.55 -120 -188 -120 -188 404.1 1956.5 704.2 Z"/>
</g>
</g>
</g>
</g>

<g id="Layer_7">
<g transform="matrix( 1, 0, 0, 1, 0,0) ">
<g>
<g>
<path fill="#6F9BFF" stroke="none" d="
M 1356.4 1412.35
L 1392.9 625.15 -188 404.1 -172 1412.35 1356.4 1412.35 Z"/>
</g>
</g>
</g>
</g>

<g id="Layer_4">
<g transform="matrix( 1, 0, 0, 1, 0,0) ">
<g>
<g>
<path fill="#6F9BFF" stroke="none" d="
M 646.35 612
Q 296.2 533.15 118.85 667.85 -22.95 775.55 125.3 999.9 162.45 1056.15 217.85 1119.75 494.2 1436.95 774.5 1228.65 938.35 1106.8 996.45 999.9 1037.7 923.95 1025.65 855.55 996.5 690.8 646.35 612 Z"/>
</g>
</g>
</g>
</g>

<g id="Layer_2">
<g transform="matrix( 1, 0, 0, 1, 0,0) ">
<g>
<g>
<path fill="#FFC13F" stroke="none" d="
M 1090.8 546.5
Q 1062.14921875 179.3486328125 701.65 93.3 341.151953125 7.3041015625 70.9 251.5 -199.3021484375 495.6958984375 460.05 704.65 1119.4505859375 913.6013671875 1090.8 546.5 Z"/>
</g>
</g>
</g>
</g>

<g id="Layer_1">
<g transform="matrix( 1, 0, 0, 1, 0,0) ">
<g>
<g>
<path fill="#D0515C" stroke="none" d="
M 17.55 1
Q 17.6 1.5 17.75 2 65.3 253.45 158.7 301.9 255.9 352.25 647.65 261.65 1039.35 171.05 1077.9 32.25 1082.1 17.05 1082.3 2 1082.3 1.5 1082.3 1 1082.3 0.5 1082.3 0
L 17.35 0
Q 17.45 0.5 17.55 1 Z"/>
</g>
</g>
</g>
</g>

<g id="Layer_5">
<g transform="matrix( 1, 0, 0, 1, 0,0) ">
<g>
<g>
<path fill="#D0515C" stroke="none" d="
M 13.95 1301.35
Q 15.7 1311.3 17.55 1321
L 1082.3 1321
Q 1083 1198.5 820.25 1081.6 524.05 949.85 245.25 990.5 -33.6 1031.15 13.95 1301.35 Z"/>
</g>
</g>
</g>
</g>
</svg>
